<svg width="162" height="162" viewBox="0 0 162 162" fill="none" xmlns="http://www.w3.org/2000/svg">
<g filter="url(#filter0_ii_1199_1638)">
<path fill-rule="evenodd" clip-rule="evenodd" d="M37.1252 13.5C31.1605 13.5 26.3252 18.3353 26.3252 24.3V137.7C26.3252 143.665 31.1605 148.5 37.1252 148.5H124.875C130.84 148.5 135.675 143.665 135.675 137.7V24.3C135.675 24.2784 135.675 24.2567 135.675 24.2351V47.25L101.925 13.5H37.1252Z" fill="#FA4E4E"/>
</g>
<path d="M102.925 104.418C98.3694 104.08 93.9836 102.388 90.4407 99.3429C83.5237 100.865 76.9432 103.064 70.3637 105.771C65.1341 115.075 60.2412 119.812 56.0233 119.812C55.1796 119.812 54.1679 119.644 53.4929 119.136C51.6367 118.29 50.625 116.429 50.625 114.568C50.625 113.045 50.9625 108.817 66.9895 101.88C70.702 95.1132 73.5691 88.1776 75.9316 80.9036C73.9066 76.8435 69.5208 66.8619 72.5566 61.7876C73.5691 59.9263 75.5941 58.9112 77.7878 59.0808C79.4745 59.0808 81.1612 59.9263 82.1737 61.2796C84.3674 64.3247 84.1987 70.7533 81.3299 80.2269C84.0299 85.2948 87.5663 89.8703 91.7899 93.7606C95.3336 93.0831 98.8757 92.576 102.419 92.576C110.348 92.7448 111.529 96.4665 111.361 98.6662C111.361 104.418 105.793 104.418 102.925 104.418V104.418ZM55.6867 114.906L56.1929 114.737C58.5546 113.892 60.41 112.2 61.76 110C59.2287 111.015 57.2046 112.707 55.6867 114.907V114.906ZM78.1245 64.156H77.6182C77.4495 64.156 77.112 64.156 76.9432 64.3247C76.2682 67.2002 76.7745 70.2453 77.9558 72.9521C78.9683 70.0766 78.9683 67.0315 78.1245 64.156V64.156ZM79.3057 88.6855L79.137 89.023L78.9683 88.8542C77.4495 92.7456 75.762 96.6361 73.9066 100.358L74.2441 100.189V100.527C77.9958 99.1664 81.8271 98.0365 85.7166 97.1432L85.5478 96.9745H86.0541C83.5228 94.4365 81.1612 91.561 79.3057 88.6855V88.6855ZM102.25 97.6512C100.731 97.6512 99.3819 97.6512 97.8632 97.9887C99.5507 98.835 101.238 99.1733 102.925 99.3429C104.106 99.5116 105.287 99.3429 106.299 99.0045C106.299 98.4966 105.624 97.6512 102.25 97.6512Z" fill="white"/>
<path d="M132.508 44.0859H105.089L135.675 74.6719L135.675 47.25L132.508 44.0859Z" fill="url(#paint0_linear_1199_1638)"/>
<path d="M112.725 47.25L135.675 47.25L101.925 13.5L101.925 36.45C101.925 42.4147 106.76 47.25 112.725 47.25Z" fill="#FDB8B8"/>
<defs>
<filter id="filter0_ii_1199_1638" x="26.3252" y="12.825" width="109.35" height="136.35" filterUnits="userSpaceOnUse" color-interpolation-filters="sRGB">
<feFlood flood-opacity="0" result="BackgroundImageFix"/>
<feBlend mode="normal" in="SourceGraphic" in2="BackgroundImageFix" result="shape"/>
<feColorMatrix in="SourceAlpha" type="matrix" values="0 0 0 0 0 0 0 0 0 0 0 0 0 0 0 0 0 0 127 0" result="hardAlpha"/>
<feOffset dy="-1.35"/>
<feGaussianBlur stdDeviation="0.3375"/>
<feComposite in2="hardAlpha" operator="arithmetic" k2="-1" k3="1"/>
<feColorMatrix type="matrix" values="0 0 0 0 0 0 0 0 0 0 0 0 0 0 0 0 0 0 0.3 0"/>
<feBlend mode="normal" in2="shape" result="effect1_innerShadow_1199_1638"/>
<feColorMatrix in="SourceAlpha" type="matrix" values="0 0 0 0 0 0 0 0 0 0 0 0 0 0 0 0 0 0 127 0" result="hardAlpha"/>
<feOffset dy="1.35"/>
<feGaussianBlur stdDeviation="0.3375"/>
<feComposite in2="hardAlpha" operator="arithmetic" k2="-1" k3="1"/>
<feColorMatrix type="matrix" values="0 0 0 0 1 0 0 0 0 1 0 0 0 0 1 0 0 0 0.3 0"/>
<feBlend mode="normal" in2="effect1_innerShadow_1199_1638" result="effect2_innerShadow_1199_1638"/>
</filter>
<linearGradient id="paint0_linear_1199_1638" x1="111.944" y1="37.2305" x2="142.53" y2="67.8164" gradientUnits="userSpaceOnUse">
<stop stop-opacity="0.2"/>
<stop offset="1" stop-opacity="0"/>
</linearGradient>
</defs>
</svg>
