<svg width="125" height="120" viewBox="0 0 125 120" fill="none" xmlns="http://www.w3.org/2000/svg">
<g filter="url(#filter0_d_810_35)">
<path d="M56.6103 4.16971C59.3653 -0.119629 65.6347 -0.119634 68.3897 4.16971L83.6969 28.0014C84.6448 29.4772 86.1123 30.5434 87.8088 30.9889L115.204 38.1825C120.135 39.4772 122.072 45.4397 118.844 49.3854L100.909 71.3078C99.7986 72.6654 99.2381 74.3905 99.3386 76.1417L100.963 104.419C101.255 109.509 96.1831 113.194 91.433 111.343L65.0413 101.06C63.4069 100.423 61.5931 100.423 59.9587 101.06L33.567 111.343C28.8169 113.194 23.7449 109.509 24.0372 104.419L25.6614 76.1417C25.7619 74.3905 25.2014 72.6654 24.0907 71.3078L6.15563 49.3854C2.92758 45.4397 4.86491 39.4772 9.79568 38.1825L37.1912 30.9889C38.8877 30.5434 40.3551 29.4772 41.3031 28.0014L56.6103 4.16971Z" fill="#FFB800"/>
</g>
<defs>
<filter id="filter0_d_810_35" x="0.568359" y="0.953125" width="123.863" height="118.875" filterUnits="userSpaceOnUse" color-interpolation-filters="sRGB">
<feFlood flood-opacity="0" result="BackgroundImageFix"/>
<feColorMatrix in="SourceAlpha" type="matrix" values="0 0 0 0 0 0 0 0 0 0 0 0 0 0 0 0 0 0 127 0" result="hardAlpha"/>
<feOffset dy="4"/>
<feGaussianBlur stdDeviation="2"/>
<feComposite in2="hardAlpha" operator="out"/>
<feColorMatrix type="matrix" values="0 0 0 0 0 0 0 0 0 0 0 0 0 0 0 0 0 0 0.25 0"/>
<feBlend mode="normal" in2="BackgroundImageFix" result="effect1_dropShadow_810_35"/>
<feBlend mode="normal" in="SourceGraphic" in2="effect1_dropShadow_810_35" result="shape"/>
</filter>
</defs>
</svg>
