<svg width="100" height="100" viewBox="0 0 100 100" fill="none" xmlns="http://www.w3.org/2000/svg">
<g clip-path="url(#clip0_882_3885)">
<path fill-rule="evenodd" clip-rule="evenodd" d="M43.5251 82.8939H31.9844L35.4407 44.9326L47.1572 39.8359C48.2703 40.1874 49.5005 40.3632 50.7307 40.3632C51.7266 40.3632 52.7225 40.246 53.7184 40.0117L59.6938 43.468L64.6733 46.3386L68.0125 82.8939H56.4132V67.1353C56.4132 66.4909 55.886 65.9636 55.2416 65.9636H44.6967C44.0523 65.9636 43.5251 66.4909 43.5251 67.1353V82.8939Z" fill="#F3A766"/>
<path fill-rule="evenodd" clip-rule="evenodd" d="M43.5266 88.5179L36.2038 87.815L35.9109 90.3926C35.7938 91.5642 34.7979 92.5015 33.5676 92.5015C33.509 92.5015 33.4505 92.5015 33.3333 92.5015C32.0445 92.3258 31.1072 91.2127 31.2829 89.9239L31.9859 82.894H43.5266V88.5179Z" fill="#F3A766"/>
<path fill-rule="evenodd" clip-rule="evenodd" d="M64.0298 90.3926L56.4141 89.6896V82.894H68.0134L68.7163 89.9239C68.8335 91.2127 67.8962 92.3258 66.6074 92.5015C66.5488 92.5015 66.4902 92.5015 66.3731 92.5015C65.2014 92.5015 64.2055 91.5642 64.0298 90.3926Z" fill="#F3A766"/>
<path fill-rule="evenodd" clip-rule="evenodd" d="M31.8086 84.4758L31.9843 82.894H43.5251V84.4758H31.8086Z" fill="#DB965C"/>
<path fill-rule="evenodd" clip-rule="evenodd" d="M56.4141 84.4758V82.894H68.0134L68.1891 84.4758H56.4141Z" fill="#DB965C"/>
<path fill-rule="evenodd" clip-rule="evenodd" d="M25.1323 37.4924C23.9607 37.4924 22.9062 36.5551 22.789 35.3835C22.7305 34.4461 22.6719 33.5088 22.6719 32.5715C22.6719 20.2106 30.5805 9.49008 42.2969 5.7994C43.5272 5.38932 44.8746 6.09231 45.2261 7.32254C45.6361 8.55277 44.9332 9.90016 43.7029 10.2517C33.9197 13.3565 27.3585 22.261 27.3585 32.5715C27.3585 33.3331 27.417 34.1532 27.4756 34.9148C27.5928 36.2036 26.6555 37.3167 25.3667 37.4924C25.3081 37.4924 25.1909 37.4924 25.1323 37.4924Z" fill="#4D4D4D"/>
<path fill-rule="evenodd" clip-rule="evenodd" d="M89.9252 82.4838C89.4565 82.4838 88.9879 82.3081 88.5778 82.0152C87.5233 81.3122 87.2304 79.8476 87.992 78.7931L93.1472 71.3532H84.9457C84.067 71.3532 83.3054 70.8845 82.8953 70.123C82.4852 69.3028 82.5438 68.3655 83.0125 67.6625L90.7454 56.5904C91.5069 55.536 92.9715 55.243 94.026 56.0046C95.0804 56.7076 95.3734 58.1722 94.6118 59.2266L89.4565 66.6666H97.6581C98.5368 66.6666 99.2984 67.1353 99.7084 67.9554C100.119 68.717 100.06 69.6543 99.5327 70.3573L91.8584 81.4879C91.3898 82.1323 90.6282 82.4838 89.9252 82.4838Z" fill="#FFCF00"/>
<path fill-rule="evenodd" clip-rule="evenodd" d="M81.1949 33.099C82.8352 33.099 84.4755 32.8061 86.1158 32.1617C89.3964 30.8728 90.3923 28.6467 90.6267 27.0064C91.2711 23.0814 88.1076 18.512 84.9442 15.9929C83.5968 14.8799 81.8979 14.0597 80.1404 13.2396C76.5083 11.5407 73.1106 9.95896 72.0561 5.74103C71.8803 4.97946 71.2945 4.45222 70.5329 4.27647C69.7714 4.15931 69.0098 4.5108 68.5997 5.15521C61.8627 15.3485 68.4825 25.4833 68.7755 25.8933L68.834 25.9519C73.2863 31.8687 78.0315 33.099 81.1949 33.099Z" fill="#7ED63F"/>
<path fill-rule="evenodd" clip-rule="evenodd" d="M92.5611 31.5758C93.4399 31.5758 94.26 30.9314 94.4358 30.0527C94.6701 28.9982 93.9671 28.0023 92.9126 27.768C90.6279 27.3579 89.0462 26.6549 88.929 26.5963H88.8704L88.8119 26.5377C88.7533 26.5377 88.6947 26.5377 88.6361 26.4791C88.2846 26.4206 84.1839 25.0732 80.3174 22.3198C79.4387 21.734 78.2085 21.9683 77.6226 22.7885C77.0368 23.6672 77.2126 24.8974 78.0913 25.4832C82.3092 28.4709 86.7029 29.9355 87.4645 30.1698C87.9331 30.3456 89.7492 31.1072 92.2096 31.5758H92.5611Z" fill="#378B4E"/>
<path fill-rule="evenodd" clip-rule="evenodd" d="M13.2953 84.417C11.655 84.417 9.95607 84.1241 8.37435 83.4797C5.09374 82.1908 4.09784 79.9647 3.80493 78.3244C3.2191 74.3994 6.38255 69.83 9.54599 67.2524C10.8934 66.1393 12.5923 65.3777 14.3497 64.5576C17.9818 62.8587 21.3796 61.2184 22.4341 57.059C22.6098 56.2975 23.1957 55.7116 23.9572 55.5945C24.7188 55.4773 25.4804 55.8288 25.8905 56.4146C32.6274 66.6665 26.0076 76.8013 25.7147 77.2113L25.6561 77.2699C21.2039 83.1867 16.4587 84.417 13.2953 84.417Z" fill="#7ED63F"/>
<path fill-rule="evenodd" clip-rule="evenodd" d="M1.93151 82.8938C0.99419 82.8938 0.232619 82.2494 0.0568725 81.3706C-0.177457 80.3162 0.525531 79.2617 1.58001 79.0859C3.86472 78.6758 5.44644 77.9729 5.56361 77.9143H5.62219L5.68077 77.8557C5.73936 77.8557 5.79794 77.8557 5.85652 77.7971C6.20801 77.68 10.3088 76.3911 14.1752 73.6378C15.0539 73.0519 16.2256 73.2277 16.87 74.1064C17.4558 74.9852 17.2801 76.1568 16.4013 76.8012C12.1834 79.7889 7.78974 81.2535 7.02817 81.4878C6.55951 81.6635 4.68488 82.4251 2.283 82.8938C2.16584 82.8938 2.04867 82.8938 1.93151 82.8938Z" fill="#378B4E"/>
<path fill-rule="evenodd" clip-rule="evenodd" d="M56.4158 29.3496V2.75326C56.4158 1.6402 55.537 0.702881 54.424 0.702881H49.9131C48.9172 0.702881 48.0385 1.46445 47.9213 2.51893L45.168 26.7134C46.7497 25.9519 49.093 27.3578 50.909 27.3578C53.018 27.3578 54.7755 28.3537 56.4158 29.3496Z" fill="#FCBE37"/>
<path fill-rule="evenodd" clip-rule="evenodd" d="M24.6651 51.2594C24.8995 51.2594 25.1924 51.2008 25.4267 51.0836L49.4454 40.656C46.3406 38.6642 42.2398 35.6765 42.2398 31.7514C42.2398 31.6929 42.2398 31.6929 42.2398 31.6343L21.3845 43.6437C20.9744 43.878 20.6229 44.3466 20.4472 44.8153C20.33 45.3425 20.3886 45.8698 20.6815 46.3384L22.9077 50.2635C23.3177 50.9079 23.9621 51.2594 24.6651 51.2594Z" fill="#FCBE37"/>
<path fill-rule="evenodd" clip-rule="evenodd" d="M77.0384 52.7824L79.3231 48.8574C79.7917 47.9787 79.5574 46.8656 78.7373 46.2798L58.4092 31.2827C58.2335 35.2077 56.8275 39.66 53.5469 41.476L74.3436 53.4854C75.2809 54.0712 76.5111 53.7197 77.0384 52.7824Z" fill="#FCBE37"/>
<path fill-rule="evenodd" clip-rule="evenodd" d="M50.7326 42.4134C55.7707 42.4134 59.8714 38.3127 59.8714 33.2746C59.8714 28.2365 55.7707 24.1357 50.7326 24.1357C45.6945 24.1357 41.5938 28.2365 41.5938 33.2746C41.5938 38.3127 45.6945 42.4134 50.7326 42.4134Z" fill="#DF5A49"/>
<path fill-rule="evenodd" clip-rule="evenodd" d="M42.0039 67.1352C42.0039 65.6121 43.2341 64.3818 44.6987 64.3818H55.2435C56.7666 64.3818 57.9969 65.6121 57.9969 67.1352V89.3965H42.0039V67.1352Z" fill="#663333"/>
<path fill-rule="evenodd" clip-rule="evenodd" d="M43.5273 67.135V82.8937V84.4754V87.8146H56.4155V84.4754V82.8937V67.135C56.4155 66.4906 55.8882 65.9634 55.2438 65.9634H44.699C44.0546 65.9634 43.5273 66.4906 43.5273 67.135Z" fill="#6F6E73"/>
<path fill-rule="evenodd" clip-rule="evenodd" d="M97.6567 99.9412H2.34329C1.05448 99.9412 0 98.8868 0 97.5979V90.158C0 88.8692 1.05448 87.8147 2.34329 87.8147H97.6567C98.9455 87.8147 100 88.8692 100 90.158V97.5979C100 98.8868 98.9455 99.9412 97.6567 99.9412Z" fill="#99A4AC"/>
</g>
<defs>
<clipPath id="clip0_882_3885">
<rect width="100" height="100" fill="white"/>
</clipPath>
</defs>
</svg>
