<svg width="100" height="100" viewBox="0 0 100 100" fill="none" xmlns="http://www.w3.org/2000/svg">
<g clip-path="url(#clip0_882_3594)">
<path d="M78.7874 41.3735V51.5149L68.8692 54.0785C63.902 55.3625 59.3489 50.9024 60.5335 45.9106C61.2917 42.7157 62.1241 40.2551 62.121 40.1512L70.2401 36.0907C74.1671 34.1292 78.7874 36.9837 78.7874 41.3735Z" fill="#5A6CD9"/>
<path d="M31.7387 28.7879C42.0088 32.8346 52.1502 33.2262 62.1215 28.7879V9.09109C52.7012 5.68075 43.1541 5.76727 33.4897 9.09109C28.9389 15.2221 28.1325 21.8498 31.7387 28.7879Z" fill="#F38054"/>
<path d="M33.4912 9.09086C28.0152 5.05044 22.9127 5.05044 18.1836 9.09086V28.7877C22.6756 33.3234 27.1932 33.5449 31.7402 28.7877C31.6135 21.8492 32.2131 15.2215 33.4912 9.09086Z" fill="#F36F3D"/>
<path d="M62.1197 40.5655C62.1197 34.6122 62.1197 37.7847 62.1197 28.7878H31.7369C28.1773 37.4423 27.7416 46.5624 35.6672 55.7511C46.1154 58.5106 55.3189 57.521 62.8572 51.5149C62.3662 47.8888 62.1197 44.2321 62.1197 40.5655Z" fill="#F9996E"/>
<path d="M31.7373 28.7878H18.1807V40.5655C18.1807 47.8321 17.2109 55.0665 15.2998 62.0786L9.08984 84.8483C11.3729 90.2352 29.5318 90.2357 31.8172 84.8483C37.6873 77.3299 38.4443 67.3805 35.6676 55.7511C33.1746 46.5237 31.8947 37.4159 31.7373 28.7878Z" fill="#F38054"/>
<path d="M90.908 62.0543C90.908 56.2342 86.1888 51.5149 80.3685 51.5149C77.698 51.5149 56.0871 51.5149 53.0718 51.5149C46.4767 63.4768 48.9783 75.666 59.749 84.8482C71.3427 90.2519 81.9828 91.3873 90.908 84.8482V62.0543Z" fill="#727BEB"/>
<path d="M53.0713 51.5151H45.6043C37.9902 51.5151 31.8164 57.6888 31.8164 65.303V84.8485C41.1271 90.8332 50.4377 90.8332 59.7484 84.8485C54.6213 74.9092 51.816 62.7608 53.0713 51.5151Z" fill="#5A6CD9"/>
<path d="M81.8198 84.8483V78.7877C73.6198 75.3266 65.3541 75.3801 57.026 78.7877C54.6338 81.0129 55.8506 83.0262 59.7518 84.8483C61.9534 88.1844 79.1723 88.1115 81.8198 84.8483Z" fill="#DBD8F1"/>
<path d="M40.9102 78.7877V84.8483C46.3584 87.4266 52.6295 87.641 58.241 85.4405L59.7512 84.8483C58.7563 82.9196 57.8439 80.8954 57.0254 78.7877C51.1459 75.892 45.7742 75.892 40.9102 78.7877Z" fill="#CBC5EF"/>
<path d="M100 92.4239C100 96.6077 96.608 99.9997 92.4242 99.9997H83.3334C82.1231 93.7202 84.8006 88.5673 92.4242 84.8481C96.6076 84.8481 100 88.238 100 92.4239Z" fill="#FCE299"/>
<path d="M77.2742 84.8481C77.6232 90.536 75.021 95.6673 68.1831 99.9997H53.0316C52.5431 93.7776 55.2857 88.6313 62.1226 84.8481H77.2742Z" fill="#FCE299"/>
<path d="M92.426 84.8481L83.3352 99.9997H68.1836L77.2746 84.8481H92.426Z" fill="#69576E"/>
<path d="M55.0086 72.7271C63.9455 75.5554 72.8824 75.5554 81.8195 72.7271V66.6666C72.4252 63.2098 63.0311 63.2098 53.6367 66.6666C51.5193 68.6937 51.7004 70.7213 55.0086 72.7271Z" fill="#DBD8F1"/>
<path d="M53.6365 66.6664C49.3945 63.8381 45.1523 63.8381 40.9102 66.6664V72.7269C45.3018 75.0838 50.0012 75.0838 55.0084 72.7269C54.441 70.6924 53.985 68.6678 53.6365 66.6664Z" fill="#CBC5EF"/>
<path d="M56.313 78.3157L57.024 78.7876H81.8177V72.7271H55.0068C53.8962 74.6423 54.4685 77.0911 56.313 78.3157Z" fill="#ECEAF5"/>
<path d="M55.0084 72.7271H40.9102V78.7876H57.0254C56.2748 76.8544 55.6234 74.9325 55.0084 72.7271Z" fill="#DBD8F1"/>
<path d="M81.8168 66.6665V66.0604C81.8168 63.0483 79.3744 60.606 76.3623 60.606H52.899C51.0048 62.7561 50.9695 64.8036 53.6339 66.6665H81.8168Z" fill="#ECEAF5"/>
<path d="M52.9016 60.606H46.3646C43.3525 60.606 40.9102 63.0483 40.9102 66.0604V66.6665H53.6365C53.2799 64.6167 53.0359 62.5917 52.9016 60.606Z" fill="#DBD8F1"/>
<path d="M69.6957 4.5455C69.6957 2.03437 67.6613 0 65.1502 0H26.5848C20.4531 0 20.4531 2.03222 20.4531 4.5455C20.4531 7.05662 21.2779 9.09099 26.5848 9.09099H65.1502C67.6582 9.09099 69.6957 7.05858 69.6957 4.5455Z" fill="#69576E"/>
<path d="M22.04 4.5455C22.04 2.0375 24.0725 0 26.5855 0H15.151C12.6432 0 10.6055 2.03222 10.6055 4.5455C10.6055 7.05662 12.6398 9.09099 15.151 9.09099H26.5855C24.0744 9.09099 22.04 7.05662 22.04 4.5455Z" fill="#594C5E"/>
<path d="M46.9692 84.8481C48.4188 91.6046 45.3885 96.6551 37.8784 99.9997H22.7268C22.0495 94.1139 24.4428 88.9198 31.8178 84.8481H46.9692Z" fill="#FDCD64"/>
<path d="M62.1215 84.8481L53.0305 99.9997H37.8789L46.9699 84.8481H62.1215Z" fill="#69576E"/>
<path d="M16.6666 84.8481C18.1533 91.1319 15.6709 96.3321 7.57578 99.9997C3.39238 99.9997 0 96.6098 0 92.4239C0 88.2401 3.39199 84.8481 7.57578 84.8481H9.09102H16.6666Z" fill="#FDCD64"/>
<path d="M31.8166 84.8481L22.7258 99.9997H7.57422L16.665 84.8481H31.8166Z" fill="#594C5E"/>
<path d="M47.3424 25.7574H42.4252C41.5885 25.7574 40.91 25.0791 40.91 24.2422V20.4078C40.91 18.0031 38.6668 16.7051 36.751 17.1756C33.6268 26.4627 38.6672 35.565 48.851 36.0082L51.0473 32.0543C52.6172 29.23 50.5748 25.7574 47.3424 25.7574Z" fill="#FCE299"/>
<path d="M36.752 17.1758C35.9348 17.3766 35.177 17.8969 34.6785 18.7939L29.2584 28.5515C27.6887 31.3757 29.7311 34.8486 32.9635 34.8486H37.8807C38.7174 34.8486 39.3959 35.5269 39.3959 36.3638V40.1982C39.3959 43.6285 43.9615 44.8122 45.6281 41.8122L48.852 36.0085C40.7586 34.5855 35.1996 25.7314 36.752 17.1758Z" fill="#FDCD64"/>
</g>
<defs>
<clipPath id="clip0_882_3594">
<rect width="100" height="99.9998" fill="white"/>
</clipPath>
</defs>
</svg>
