<svg width="100" height="100" viewBox="0 0 100 100" fill="none" xmlns="http://www.w3.org/2000/svg">
<g clip-path="url(#clip0_882_3991)">
<path d="M81.6654 35V90H73.1154L72.5987 89.55C71.6865 88.7754 70.5288 88.3501 69.332 88.3501C68.1353 88.3501 66.9776 88.7754 66.0654 89.55L65.5487 90H53.7987L53.2654 89.55C52.355 88.7716 51.1965 88.3438 49.9987 88.3438C48.8009 88.3438 47.6424 88.7716 46.732 89.55L46.2154 90H34.4487L33.932 89.55C33.0199 88.7754 31.8621 88.3501 30.6654 88.3501C29.4687 88.3501 28.3109 88.7754 27.3987 89.55L26.882 90H18.332V35H81.6654Z" fill="#547580"/>
<path d="M79.9987 36.6668H19.9987C19.5567 36.6668 19.1327 36.4912 18.8202 36.1787C18.5076 35.8661 18.332 35.4422 18.332 35.0002C18.332 34.5581 18.5076 34.1342 18.8202 33.8217C19.1327 33.5091 19.5567 33.3335 19.9987 33.3335H79.9987C80.4407 33.3335 80.8647 33.5091 81.1772 33.8217C81.4898 34.1342 81.6654 34.5581 81.6654 35.0002C81.6654 35.4422 81.4898 35.8661 81.1772 36.1787C80.8647 36.4912 80.4407 36.6668 79.9987 36.6668Z" fill="#3F5C6C"/>
<path d="M19.9984 28.3332V88.9332C19.1609 88.7771 18.3792 88.4035 17.7318 87.8498L16.7651 87.0165C15.7518 86.1448 14.5701 86.9665 13.3318 86.6665C11.3518 86.1865 9.22344 85.0265 7.39844 85.9998L13.1818 28.1665C13.2229 27.7568 13.4143 27.3769 13.719 27.0999C14.0236 26.8229 14.42 26.6686 14.8318 26.6665H18.3318C18.7738 26.6665 19.1977 26.8421 19.5103 27.1547C19.8228 27.4672 19.9984 27.8911 19.9984 28.3332Z" fill="#35495E"/>
<path d="M92.6 86.0001C91.28 85.2951 89.8017 86.6101 88.3333 86.6668C86.5 86.7368 84.6867 85.7584 83.2167 87.0168L82.2667 87.8501C81.6192 88.4038 80.8375 88.7774 80 88.9334V28.3334C80 27.8914 80.1756 27.4675 80.4882 27.1549C80.8007 26.8423 81.2246 26.6667 81.6667 26.6667H85.1667C85.5784 26.6688 85.9748 26.8232 86.2795 27.1002C86.5841 27.3771 86.7755 27.7571 86.8167 28.1667L92.6 86.0001Z" fill="#35495E"/>
<path d="M30.0013 41.6665H43.3346C44.2187 41.6665 45.0665 42.0177 45.6917 42.6428C46.3168 43.2679 46.668 44.1158 46.668 44.9998V48.3332C46.668 48.7752 46.4924 49.1991 46.1798 49.5117C45.8673 49.8242 45.4433 49.9998 45.0013 49.9998H28.3346C27.8926 49.9998 27.4687 49.8242 27.1561 49.5117C26.8436 49.1991 26.668 48.7752 26.668 48.3332V44.9998C26.668 44.1158 27.0192 43.2679 27.6443 42.6428C28.2694 42.0177 29.1172 41.6665 30.0013 41.6665Z" fill="#9FC9D3"/>
<path d="M43.3333 50V88.05C42.36 88.7867 41.1667 90.075 40 90C38.9467 89.9317 37.9117 88.5767 37.0667 87.85L36.1 87.0167C34.8117 85.9133 33.2667 86.85 31.6667 86.6667C31.115 86.6017 30.5567 85 30 85.05V50H43.3333Z" fill="#84B5CB"/>
<path d="M56.6654 41.6665H69.9987C70.8828 41.6665 71.7306 42.0177 72.3557 42.6428C72.9808 43.2679 73.332 44.1158 73.332 44.9998V48.3332C73.332 48.7752 73.1564 49.1991 72.8439 49.5117C72.5313 49.8242 72.1074 49.9998 71.6654 49.9998H54.9987C54.5567 49.9998 54.1327 49.8242 53.8202 49.5117C53.5076 49.1991 53.332 48.7752 53.332 48.3332V44.9998C53.332 44.1158 53.6832 43.2679 54.3083 42.6428C54.9335 42.0177 55.7813 41.6665 56.6654 41.6665Z" fill="#9FC9D3"/>
<path d="M70.0013 50V85.05C68.8846 84.955 67.7463 86.3083 66.668 86.6667C65.668 87 64.718 86.3033 63.8846 87.0167L62.9346 87.85C62.0896 88.5767 61.0546 89.9317 60.0013 90C58.8346 90.075 57.6413 88.7867 56.668 88.05V50H70.0013Z" fill="#84B5CB"/>
<path d="M36.6667 55C36.2246 55 35.8007 55.1756 35.4882 55.4882C35.1756 55.8007 35 56.2246 35 56.6667V63.3333C35 63.7754 35.1756 64.1993 35.4882 64.5118C35.8007 64.8244 36.2246 65 36.6667 65C37.1087 65 37.5326 64.8244 37.8452 64.5118C38.1577 64.1993 38.3333 63.7754 38.3333 63.3333V56.6667C38.3333 56.2246 38.1577 55.8007 37.8452 55.4882C37.5326 55.1756 37.1087 55 36.6667 55Z" fill="#ECF0F1"/>
<path d="M36.6667 68.3333C36.2246 68.3333 35.8007 68.5088 35.4882 68.8214C35.1756 69.134 35 69.5579 35 69.9999V71.6666C35 72.1086 35.1756 72.5325 35.4882 72.8451C35.8007 73.1577 36.2246 73.3333 36.6667 73.3333C37.1087 73.3333 37.5326 73.1577 37.8452 72.8451C38.1577 72.5325 38.3333 72.1086 38.3333 71.6666V69.9999C38.3333 69.5579 38.1577 69.134 37.8452 68.8214C37.5326 68.5088 37.1087 68.3333 36.6667 68.3333Z" fill="#ECF0F1"/>
<path d="M36.6667 76.6667C36.2246 76.6667 35.8007 76.8423 35.4882 77.1549C35.1756 77.4675 35 77.8914 35 78.3334V81.6667C35 82.1088 35.1756 82.5327 35.4882 82.8453C35.8007 83.1578 36.2246 83.3334 36.6667 83.3334C37.1087 83.3334 37.5326 83.1578 37.8452 82.8453C38.1577 82.5327 38.3333 82.1088 38.3333 81.6667V78.3334C38.3333 77.8914 38.1577 77.4675 37.8452 77.1549C37.5326 76.8423 37.1087 76.6667 36.6667 76.6667Z" fill="#ECF0F1"/>
<path d="M63.3346 55C62.8926 55 62.4687 55.1756 62.1561 55.4882C61.8436 55.8007 61.668 56.2246 61.668 56.6667V63.3333C61.668 63.7754 61.8436 64.1993 62.1561 64.5118C62.4687 64.8244 62.8926 65 63.3346 65C63.7767 65 64.2006 64.8244 64.5131 64.5118C64.8257 64.1993 65.0013 63.7754 65.0013 63.3333V56.6667C65.0013 56.2246 64.8257 55.8007 64.5131 55.4882C64.2006 55.1756 63.7767 55 63.3346 55Z" fill="#ECF0F1"/>
<path d="M63.3346 68.3335C62.8926 68.3335 62.4687 68.5091 62.1561 68.8217C61.8436 69.1342 61.668 69.5581 61.668 70.0002V71.6668C61.668 72.1089 61.8436 72.5328 62.1561 72.8453C62.4687 73.1579 62.8926 73.3335 63.3346 73.3335C63.7767 73.3335 64.2006 73.1579 64.5131 72.8453C64.8257 72.5328 65.0013 72.1089 65.0013 71.6668V70.0002C65.0013 69.5581 64.8257 69.1342 64.5131 68.8217C64.2006 68.5091 63.7767 68.3335 63.3346 68.3335Z" fill="#ECF0F1"/>
<path d="M63.3346 76.6665C62.8926 76.6665 62.4687 76.8421 62.1561 77.1547C61.8436 77.4672 61.668 77.8911 61.668 78.3332V81.6665C61.668 82.1085 61.8436 82.5325 62.1561 82.845C62.4687 83.1576 62.8926 83.3332 63.3346 83.3332C63.7767 83.3332 64.2006 83.1576 64.5131 82.845C64.8257 82.5325 65.0013 82.1085 65.0013 81.6665V78.3332C65.0013 77.8911 64.8257 77.4672 64.5131 77.1547C64.2006 76.8421 63.7767 76.6665 63.3346 76.6665Z" fill="#ECF0F1"/>
<path d="M16.8206 95.0484C15.3351 93.6523 13.3733 92.875 11.3347 92.875C9.29618 92.875 7.33432 93.6523 5.8489 95.0484C5.52379 95.3488 5.33131 95.766 5.31381 96.2083C5.2963 96.6505 5.45521 97.0816 5.75557 97.4067C6.05592 97.7319 6.47313 97.9243 6.9154 97.9418C7.35768 97.9593 7.78879 97.8004 8.1139 97.5001C8.97944 96.6682 10.1334 96.2035 11.3339 96.2035C12.5344 96.2035 13.6884 96.6682 14.5539 97.5001L15.5156 98.3901C15.6753 98.5429 15.8639 98.6625 16.0704 98.7417C16.2768 98.821 16.4969 98.8583 16.718 98.8517C16.939 98.845 17.1565 98.7944 17.3577 98.7029C17.559 98.6113 17.7401 98.4806 17.8903 98.3184C18.0406 98.1562 18.1571 97.9657 18.233 97.758C18.309 97.5503 18.3428 97.3296 18.3326 97.1087C18.3224 96.8879 18.2683 96.6712 18.1735 96.4714C18.0787 96.2717 17.9452 96.0927 17.7806 95.9451L16.8206 95.0484Z" fill="#84B5CB"/>
<path d="M36.1529 95.0484C34.6674 93.6523 32.7056 92.875 30.667 92.875C28.6285 92.875 26.6666 93.6523 25.1812 95.0484L24.2212 95.9384C24.0606 96.0872 23.931 96.2662 23.8396 96.4652C23.7483 96.6641 23.697 96.8791 23.6887 97.0979C23.6804 97.3166 23.7153 97.5349 23.7914 97.7401C23.8674 97.9454 23.9832 98.1337 24.132 98.2942C24.2809 98.4548 24.4598 98.5844 24.6588 98.6758C24.8577 98.7672 25.0727 98.8185 25.2915 98.8267C25.5102 98.835 25.7285 98.8001 25.9338 98.7241C26.139 98.648 26.3273 98.5322 26.4879 98.3834L27.4479 97.4934C28.3134 96.6615 29.4673 96.1968 30.6679 96.1968C31.8684 96.1968 33.0223 96.6615 33.8879 97.4934L34.8479 98.3834C35.0084 98.5322 35.1967 98.648 35.402 98.7241C35.6072 98.8001 35.8255 98.835 36.0442 98.8267C36.263 98.8185 36.478 98.7672 36.6769 98.6758C36.8759 98.5844 37.0549 98.4548 37.2037 98.2942C37.3525 98.1337 37.4683 97.9454 37.5443 97.7401C37.6204 97.5349 37.6553 97.3166 37.647 97.0979C37.6387 96.8791 37.5874 96.6641 37.4961 96.4652C37.4047 96.2662 37.2751 96.0872 37.1145 95.9384L36.1529 95.0484Z" fill="#84B5CB"/>
<path d="M55.4858 95.0499C54.0016 93.652 52.0396 92.8735 50.0008 92.8735C47.9619 92.8735 46 93.652 44.5158 95.0499L43.5541 95.9399C43.2296 96.2403 43.0378 96.6572 43.0208 97.099C43.0037 97.5408 43.1629 97.9713 43.4633 98.2957C43.7636 98.6202 44.1806 98.812 44.6224 98.8291C45.0642 98.8461 45.4946 98.6869 45.8191 98.3866L46.7808 97.4949C47.6457 96.6618 48.7999 96.1964 50.0008 96.1964C51.2017 96.1964 52.3558 96.6618 53.2208 97.4949L54.1824 98.3849C54.3431 98.5336 54.5315 98.6492 54.7368 98.7252C54.9421 98.8011 55.1604 98.8358 55.3792 98.8274C55.5979 98.819 55.8129 98.7675 56.0118 98.676C56.2106 98.5845 56.3895 98.4547 56.5383 98.2941C56.687 98.1334 56.8026 97.945 56.8785 97.7397C56.9545 97.5344 56.9892 97.3161 56.9808 97.0973C56.9723 96.8786 56.9209 96.6636 56.8294 96.4647C56.7379 96.2659 56.6081 96.087 56.4474 95.9382L55.4858 95.0499Z" fill="#84B5CB"/>
<path d="M74.8186 95.0484C73.3332 93.6523 71.3713 92.875 69.3327 92.875C67.2942 92.875 65.3323 93.6523 63.8469 95.0484L62.8852 95.9384C62.561 96.239 62.3695 96.6561 62.3528 97.0979C62.336 97.5397 62.4955 97.97 62.7961 98.2942C63.0967 98.6185 63.5137 98.81 63.9555 98.8267C64.3973 98.8435 64.8277 98.684 65.1519 98.3834L66.1119 97.4934C66.9775 96.6615 68.1314 96.1968 69.3319 96.1968C70.5324 96.1968 71.6864 96.6615 72.5519 97.4934L73.5119 98.3834C73.8361 98.684 74.2665 98.8435 74.7083 98.8267C75.1501 98.81 75.5672 98.6185 75.8677 98.2942C76.1683 97.97 76.3278 97.5397 76.3111 97.0979C76.2943 96.6561 76.1028 96.239 75.7786 95.9384L74.8186 95.0484Z" fill="#84B5CB"/>
<path d="M94.1534 95.0484C92.668 93.6523 90.7061 92.875 88.6676 92.875C86.629 92.875 84.6672 93.6523 83.1818 95.0484L82.2218 95.9384C82.0572 96.0861 81.9236 96.265 81.8288 96.4648C81.734 96.6646 81.68 96.8812 81.6697 97.1021C81.6595 97.323 81.6934 97.5437 81.7693 97.7513C81.8452 97.959 81.9617 98.1495 82.112 98.3117C82.2622 98.4739 82.4433 98.6046 82.6446 98.6962C82.8458 98.7877 83.0633 98.8383 83.2844 98.845C83.5054 98.8517 83.7255 98.8143 83.9319 98.735C84.1384 98.6558 84.327 98.5363 84.4868 98.3834L85.4484 97.4934C86.314 96.6615 87.4679 96.1968 88.6684 96.1968C89.8689 96.1968 91.0229 96.6615 91.8884 97.4934C92.214 97.7855 92.6414 97.9378 93.0783 97.9176C93.5152 97.8974 93.9267 97.7063 94.224 97.3854C94.5212 97.0645 94.6804 96.6396 94.6672 96.2025C94.654 95.7653 94.4695 95.3508 94.1534 95.0484Z" fill="#84B5CB"/>
<path d="M16.6667 21.6667C16.2246 21.6667 15.8007 21.4911 15.4882 21.1785C15.1756 20.866 15 20.442 15 20V11.6667C15 11.2246 15.1756 10.8007 15.4882 10.4882C15.8007 10.1756 16.2246 10 16.6667 10C17.1087 10 17.5326 10.1756 17.8452 10.4882C18.1577 10.8007 18.3333 11.2246 18.3333 11.6667V20C18.3333 20.442 18.1577 20.866 17.8452 21.1785C17.5326 21.4911 17.1087 21.6667 16.6667 21.6667Z" fill="#A5A5A4"/>
<path d="M29.9987 9.99984H19.9987C19.5567 9.99984 19.1327 9.82424 18.8202 9.51168C18.5076 9.19912 18.332 8.7752 18.332 8.33317C18.332 7.89114 18.5076 7.46722 18.8202 7.15466C19.1327 6.8421 19.5567 6.6665 19.9987 6.6665H29.9987C30.4407 6.6665 30.8647 6.8421 31.1772 7.15466C31.4898 7.46722 31.6654 7.89114 31.6654 8.33317C31.6654 8.7752 31.4898 9.19912 31.1772 9.51168C30.8647 9.82424 30.4407 9.99984 29.9987 9.99984Z" fill="#A5A5A4"/>
<path d="M83.3346 21.6667C82.8926 21.6667 82.4687 21.4911 82.1561 21.1785C81.8436 20.866 81.668 20.442 81.668 20V11.6667C81.668 11.2246 81.8436 10.8007 82.1561 10.4882C82.4687 10.1756 82.8926 10 83.3346 10C83.7767 10 84.2006 10.1756 84.5131 10.4882C84.8257 10.8007 85.0013 11.2246 85.0013 11.6667V20C85.0013 20.442 84.8257 20.866 84.5131 21.1785C84.2006 21.4911 83.7767 21.6667 83.3346 21.6667Z" fill="#A5A5A4"/>
<path d="M79.9987 9.99984H69.9987C69.5567 9.99984 69.1327 9.82424 68.8202 9.51168C68.5076 9.19912 68.332 8.7752 68.332 8.33317C68.332 7.89114 68.5076 7.46722 68.8202 7.15466C69.1327 6.8421 69.5567 6.6665 69.9987 6.6665H79.9987C80.4407 6.6665 80.8647 6.8421 81.1772 7.15466C81.4898 7.46722 81.6654 7.89114 81.6654 8.33317C81.6654 8.7752 81.4898 9.19912 81.1772 9.51168C80.8647 9.82424 80.4407 9.99984 79.9987 9.99984Z" fill="#A5A5A4"/>
<path d="M62.9695 18.68L59.9011 16.2733C60.0323 15.4295 60.0323 14.5705 59.9011 13.7267L62.9695 11.32C63.151 11.1824 63.2751 10.9824 63.3179 10.7586C63.3607 10.5349 63.3191 10.3032 63.2011 10.1083L61.0478 6.55832C60.923 6.36045 60.7343 6.21123 60.513 6.13544C60.2916 6.05964 60.051 6.06184 59.8311 6.14165L56.1078 7.47499C55.3952 6.94922 54.617 6.51891 53.7928 6.19499L53.1395 2.46665C53.0956 2.23875 52.9728 2.03362 52.7926 1.8873C52.6125 1.74099 52.3865 1.66286 52.1545 1.66665H47.8478C47.6165 1.66264 47.3911 1.74006 47.211 1.88538C47.031 2.0307 46.9077 2.23468 46.8628 2.46165L46.2095 6.18999C45.3853 6.51391 44.607 6.94422 43.8945 7.46999L40.1711 6.13665C39.9512 6.05684 39.7107 6.05464 39.4893 6.13044C39.268 6.20623 39.0793 6.35545 38.9545 6.55332L36.8011 10.1083C36.6832 10.3032 36.6416 10.5349 36.6844 10.7586C36.7271 10.9824 36.8513 11.1824 37.0328 11.32L40.1011 13.7267C39.97 14.5705 39.97 15.4295 40.1011 16.2733L37.0328 18.68C36.8513 18.8176 36.7271 19.0176 36.6844 19.2413C36.6416 19.4651 36.6832 19.6968 36.8011 19.8917L38.9545 23.4417C39.0793 23.6395 39.268 23.7887 39.4893 23.8645C39.7107 23.9403 39.9512 23.9381 40.1711 23.8583L43.8945 22.525C44.607 23.0508 45.3853 23.4811 46.2095 23.805L46.8628 27.5333C46.9077 27.7603 47.031 27.9643 47.211 28.1096C47.3911 28.2549 47.6165 28.3323 47.8478 28.3283H52.1545C52.3858 28.3323 52.6112 28.2549 52.7913 28.1096C52.9713 27.9643 53.0946 27.7603 53.1395 27.5333L53.7928 23.805C54.617 23.4811 55.3952 23.0508 56.1078 22.525L59.8311 23.8583C60.051 23.9381 60.2916 23.9403 60.513 23.8645C60.7343 23.7887 60.923 23.6395 61.0478 23.4417L63.2011 19.8917C63.3191 19.6968 63.3607 19.4651 63.3179 19.2413C63.2751 19.0176 63.151 18.8176 62.9695 18.68Z" fill="#A5A5A4"/>
<path d="M50.0013 18.3332C51.8423 18.3332 53.3346 16.8408 53.3346 14.9998C53.3346 13.1589 51.8423 11.6665 50.0013 11.6665C48.1604 11.6665 46.668 13.1589 46.668 14.9998C46.668 16.8408 48.1604 18.3332 50.0013 18.3332Z" fill="#ECF0F1"/>
<path d="M16.6654 11.6667C18.5063 11.6667 19.9987 10.1743 19.9987 8.33333C19.9987 6.49238 18.5063 5 16.6654 5C14.8244 5 13.332 6.49238 13.332 8.33333C13.332 10.1743 14.8244 11.6667 16.6654 11.6667Z" fill="#547580"/>
<path d="M83.3333 11.6667C85.1743 11.6667 86.6667 10.1743 86.6667 8.33333C86.6667 6.49238 85.1743 5 83.3333 5C81.4924 5 80 6.49238 80 8.33333C80 10.1743 81.4924 11.6667 83.3333 11.6667Z" fill="#547580"/>
<path d="M99.6001 93.95C99.4578 94.1164 99.2842 94.2531 99.0891 94.3523C98.894 94.4516 98.6813 94.5114 98.4631 94.5284C98.2449 94.5454 98.0254 94.5193 97.8173 94.4515C97.6092 94.3837 97.4164 94.2756 97.2501 94.1334L91.9334 89.55C91.0213 88.7754 89.8635 88.3501 88.6668 88.3501C87.4701 88.3501 86.3123 88.7754 85.4001 89.55L84.4501 90.3667C82.9313 91.6656 80.9986 92.3794 79.0001 92.3794C77.0016 92.3794 75.0689 91.6656 73.5501 90.3667L72.6001 89.55C71.6879 88.7754 70.5301 88.3501 69.3334 88.3501C68.1367 88.3501 66.979 88.7754 66.0668 89.55L65.1168 90.3667C63.6011 91.6653 61.671 92.3791 59.6751 92.3791C57.6792 92.3791 55.7491 91.6653 54.2334 90.3667L53.2668 89.55C52.3564 88.7716 51.1979 88.3439 50.0001 88.3439C48.8023 88.3439 47.6438 88.7716 46.7334 89.55L45.7668 90.3834C44.2473 91.6759 42.3168 92.3842 40.322 92.3812C38.3272 92.3781 36.3989 91.6639 34.8834 90.3667L33.9334 89.55C33.0212 88.7754 31.8635 88.3501 30.6668 88.3501C29.47 88.3501 28.3123 88.7754 27.4001 89.55L26.4501 90.3667C24.9313 91.6656 22.9986 92.3794 21.0001 92.3794C19.0016 92.3794 17.0689 91.6656 15.5501 90.3667L14.6001 89.55C13.6879 88.7754 12.5301 88.3501 11.3334 88.3501C10.1367 88.3501 8.97894 88.7754 8.06676 89.55L2.75009 94.1334C2.41415 94.4207 1.97783 94.5628 1.53712 94.5284C1.09641 94.494 0.687405 94.286 0.400087 93.95C0.112769 93.6141 -0.0293287 93.1778 0.00505293 92.7371C0.0394346 92.2963 0.24748 91.8873 0.583421 91.6L5.90009 87.0167C6.35676 86.6179 6.8605 86.2765 7.40009 86C8.88349 85.2115 10.5696 84.8868 12.2398 85.068C13.9099 85.2493 15.4871 85.9282 16.7668 87.0167L17.7334 87.85C18.3809 88.4037 19.1626 88.7773 20.0001 88.9334C20.7467 89.0935 21.5202 89.0791 22.2602 88.8911C23.0003 88.7032 23.687 88.3469 24.2668 87.85L25.2168 87.0167C26.738 85.73 28.666 85.0241 30.6584 85.0241C32.6508 85.0241 34.5788 85.73 36.1001 87.0167L37.0668 87.85C37.9333 88.5902 39.026 89.0133 40.165 89.0496C41.304 89.086 42.4215 88.7334 43.3334 88.05C43.4291 87.9929 43.5185 87.9258 43.6001 87.85L44.5668 87.0167C46.0827 85.7256 48.0089 85.0166 50.0001 85.0166C51.9913 85.0166 53.9175 85.7256 55.4334 87.0167L56.4001 87.85C56.4817 87.9258 56.5711 87.9929 56.6668 88.05C57.5787 88.7334 58.6962 89.086 59.8352 89.0496C60.9742 89.0133 62.0669 88.5902 62.9334 87.85L63.8834 87.0167C64.7225 86.301 65.6951 85.7588 66.7449 85.4212C67.7948 85.0837 68.9012 84.9575 70.0001 85.05C71.7586 85.1783 73.4295 85.8677 74.7668 87.0167L75.7334 87.85C76.3132 88.3469 76.9999 88.7032 77.74 88.8911C78.48 89.0791 79.2535 89.0935 80.0001 88.9334C80.8376 88.7773 81.6193 88.4037 82.2668 87.85L83.2168 87.0167C84.4999 85.9284 86.0798 85.2499 87.7524 85.0686C89.4251 84.8874 91.1137 85.2118 92.6001 86C93.1397 86.2765 93.6434 86.6179 94.1001 87.0167L99.4168 91.6C99.5831 91.7423 99.7198 91.9159 99.8191 92.111C99.9183 92.3061 99.9781 92.5188 99.9952 92.737C100.012 92.9553 99.9861 93.1747 99.9183 93.3828C99.8505 93.591 99.7424 93.7837 99.6001 93.95Z" fill="#9FC9D3"/>
</g>
<defs>
<clipPath id="clip0_882_3991">
<rect width="100" height="100" fill="white"/>
</clipPath>
</defs>
</svg>
