<svg width="100" height="100" viewBox="0 0 100 100" fill="none" xmlns="http://www.w3.org/2000/svg">
<path d="M23.4375 79.6875H29.6875V89.0625H23.4375V79.6875Z" fill="#A1D51C"/>
<path d="M10.9375 89.0625H42.1875V95.3125H10.9375V89.0625Z" fill="#A1D51C"/>
<path d="M23.4375 79.6875H29.6875V82.8125H23.4375V79.6875Z" fill="#7AB92D"/>
<path d="M14.0625 89.0625H42.1875V92.1875H17.1875C16.3587 92.1875 15.5638 91.8583 14.9778 91.2722C14.3917 90.6862 14.0625 89.8913 14.0625 89.0625Z" fill="#C4F236"/>
<path d="M50 90.625C48.7568 90.625 47.5645 90.1311 46.6854 89.252C45.8064 88.373 45.3125 87.1807 45.3125 85.9375V73.4375C45.3125 73.0231 45.4771 72.6257 45.7701 72.3326C46.0632 72.0396 46.4606 71.875 46.875 71.875C47.2894 71.875 47.6868 72.0396 47.9799 72.3326C48.2729 72.6257 48.4375 73.0231 48.4375 73.4375V85.9375C48.4375 86.3519 48.6021 86.7493 48.8951 87.0423C49.1882 87.3354 49.5856 87.5 50 87.5C50.4144 87.5 50.8118 87.3354 51.1049 87.0423C51.3979 86.7493 51.5625 86.3519 51.5625 85.9375V68.75C51.5625 67.0924 52.221 65.5027 53.3931 64.3306C54.5652 63.1585 56.1549 62.5 57.8125 62.5H84.375C86.0326 62.5 87.6223 63.1585 88.7944 64.3306C89.9665 65.5027 90.625 67.0924 90.625 68.75V70.3125C90.625 70.7269 90.4604 71.1243 90.1674 71.4173C89.8743 71.7104 89.4769 71.875 89.0625 71.875C88.6481 71.875 88.2507 71.7104 87.9576 71.4173C87.6646 71.1243 87.5 70.7269 87.5 70.3125V68.75C87.5 67.9212 87.1708 67.1263 86.5847 66.5403C85.9987 65.9542 85.2038 65.625 84.375 65.625H57.8125C56.9837 65.625 56.1888 65.9542 55.6028 66.5403C55.0167 67.1263 54.6875 67.9212 54.6875 68.75V85.9375C54.6875 87.1807 54.1936 88.373 53.3146 89.252C52.4355 90.1311 51.2432 90.625 50 90.625Z" fill="#57B7EB"/>
<path d="M56.25 95.3125H40.625C38.9674 95.3125 37.3777 94.654 36.2056 93.4819C35.0335 92.3098 34.375 90.7201 34.375 89.0625V79.6875C34.375 79.2731 34.5396 78.8756 34.8326 78.5826C35.1257 78.2896 35.5231 78.125 35.9375 78.125C36.3519 78.125 36.7493 78.2896 37.0424 78.5826C37.3354 78.8756 37.5 79.2731 37.5 79.6875V89.0625C37.5 89.8913 37.8292 90.6861 38.4153 91.2722C39.0013 91.8582 39.7962 92.1875 40.625 92.1875H56.25C57.0788 92.1875 57.8737 91.8582 58.4597 91.2722C59.0458 90.6861 59.375 89.8913 59.375 89.0625V62.5C59.375 60.8424 60.0335 59.2527 61.2056 58.0806C62.3777 56.9085 63.9674 56.25 65.625 56.25H68.75C70.4076 56.25 71.9973 56.9085 73.1694 58.0806C74.3415 59.2527 75 60.8424 75 62.5V70.3125C75 70.7269 74.8354 71.1243 74.5424 71.4173C74.2493 71.7104 73.8519 71.875 73.4375 71.875C73.0231 71.875 72.6257 71.7104 72.3326 71.4173C72.0396 71.1243 71.875 70.7269 71.875 70.3125V62.5C71.875 61.6712 71.5458 60.8763 70.9597 60.2903C70.3737 59.7042 69.5788 59.375 68.75 59.375H65.625C64.7962 59.375 64.0013 59.7042 63.4153 60.2903C62.8292 60.8763 62.5 61.6712 62.5 62.5V89.0625C62.5 90.7201 61.8415 92.3098 60.6694 93.4819C59.4973 94.654 57.9076 95.3125 56.25 95.3125Z" fill="#FCBC04"/>
<path d="M43.75 29.6875H9.375C6.78617 29.6875 4.6875 31.7862 4.6875 34.375V74.9999C4.6875 77.5888 6.78617 79.6874 9.375 79.6874H43.75C46.3388 79.6874 48.4375 77.5888 48.4375 74.9999V34.375C48.4375 31.7862 46.3388 29.6875 43.75 29.6875Z" fill="#C4F236"/>
<path d="M15.625 68.75V29.6875H9.375C8.1318 29.6875 6.93951 30.1814 6.06044 31.0604C5.18136 31.9395 4.6875 33.1318 4.6875 34.375V74.9999C4.6875 76.2431 5.18136 77.4354 6.06044 78.3145C6.93951 79.1936 8.1318 79.6874 9.375 79.6874H43.75C44.9932 79.6874 46.1855 79.1936 47.0646 78.3145C47.9436 77.4354 48.4375 76.2431 48.4375 74.9999V68.75H15.625Z" fill="#A1D51C"/>
<path d="M79.6875 4.6875L82.9062 10.4062L88.875 7.67187L88.1094 14.1875L94.5469 15.4844L90.1094 20.3125L94.5469 25.1406L88.1094 26.4375L88.875 32.9531L82.9062 30.2187L79.6875 35.9375L76.4687 30.2187L70.5 32.9531L71.2656 26.4375L64.8281 25.1406L69.2656 20.3125L64.8281 15.4844L71.2656 14.1875L70.5 7.67187L76.4687 10.4062L79.6875 4.6875Z" fill="#F89C8D"/>
<path d="M79.6875 25C82.2763 25 84.375 22.9013 84.375 20.3125C84.375 17.7237 82.2763 15.625 79.6875 15.625C77.0987 15.625 75 17.7237 75 20.3125C75 22.9013 77.0987 25 79.6875 25Z" fill="#F8664F"/>
<path d="M18.75 35.9375H26.5625V45.3125H18.75V35.9375Z" fill="#57B7EB"/>
<path d="M26.5625 35.9375H34.375V45.3125H26.5625V35.9375Z" fill="#AAE1F9"/>
<path d="M26.5625 45.3125H34.375V54.6875H26.5625V45.3125Z" fill="#57B7EB"/>
<path d="M18.75 45.3125H26.5625V54.6875H18.75V45.3125Z" fill="#AAE1F9"/>
<path d="M26.5625 54.6875H34.375V64.0625H26.5625V54.6875Z" fill="#AAE1F9"/>
<path d="M34.375 54.6875H42.1875V64.0625H34.375V54.6875Z" fill="#57B7EB"/>
<path d="M34.375 45.3125H42.1875V54.6875H34.375V45.3125Z" fill="#AAE1F9"/>
<path d="M34.375 35.9375H42.1875V45.3125H34.375V35.9375Z" fill="#57B7EB"/>
<path d="M10.9375 64.0625H18.75V73.4375H10.9375V64.0625Z" fill="#4891D3"/>
<path d="M10.9375 35.9375H18.75V45.3125H10.9375V35.9375Z" fill="#AAE1F9"/>
<path d="M10.9375 45.3125H18.75V54.6875H10.9375V45.3125Z" fill="#57B7EB"/>
<path d="M18.75 54.6875H26.5625V64.0625H18.75V54.6875Z" fill="#57B7EB"/>
<path d="M18.75 64.0625H26.5625V73.4375H18.75V64.0625Z" fill="#AAE1F9"/>
<path d="M10.9375 54.6875H18.75V64.0625H10.9375V54.6875Z" fill="#AAE1F9"/>
<path d="M34.375 64.0625H42.1875V73.4375H34.375V64.0625Z" fill="#AAE1F9"/>
<path d="M26.5625 64.0625H34.375V73.4375H26.5625V64.0625Z" fill="#57B7EB"/>
<path d="M67.1875 76.5625H95.3125V95.3125H67.1875V76.5625Z" fill="#A1D51C"/>
<path d="M70.3125 70.3125H76.5625V76.5625H70.3125V70.3125Z" fill="#F8664F"/>
<path d="M85.9375 70.3125H92.1875V76.5625H85.9375V70.3125Z" fill="#F8664F"/>
<path d="M10.9375 35.9375H15.625V45.3125H10.9375V35.9375Z" fill="#57B7EB"/>
<path d="M15.625 50V45.3125H10.9375V54.6875H16.2344C15.8396 53.1559 15.6349 51.5816 15.625 50Z" fill="#4891D3"/>
<path d="M18.75 60.3594V64.0625H22C20.7631 62.9718 19.6709 61.7273 18.75 60.3594Z" fill="#4891D3"/>
<path d="M22 64.0625H18.75V73.4375H26.5625V67.0312C24.9035 66.2722 23.366 65.2718 22 64.0625Z" fill="#57B7EB"/>
<path d="M16.2344 54.6875H10.9375V64.0625H18.75V60.3594C17.6023 58.6216 16.7521 56.7047 16.2344 54.6875Z" fill="#57B7EB"/>
<path d="M34.375 68.75H42.1875V73.4375H34.375V68.75Z" fill="#57B7EB"/>
<path d="M26.5625 67.0312V73.4375H34.375V68.75C31.6771 68.7497 29.0114 68.1632 26.5625 67.0312Z" fill="#4891D3"/>
<path d="M73.4375 76.5625H95.3125V92.1875H85.9375C82.6223 92.1875 79.4429 90.8705 77.0987 88.5263C74.7545 86.1821 73.4375 83.0027 73.4375 79.6875V76.5625Z" fill="#C4F236"/>
<path d="M71.875 70.3125H76.5625V73.4375H75C74.1712 73.4375 73.3763 73.1083 72.7903 72.5222C72.2042 71.9362 71.875 71.1413 71.875 70.3125Z" fill="#F89C8D"/>
<path d="M87.5 70.3125H92.1875V73.4375H90.625C89.7962 73.4375 89.0013 73.1083 88.4153 72.5222C87.8292 71.9362 87.5 71.1413 87.5 70.3125Z" fill="#F89C8D"/>
<path d="M77.3438 84.375H76.5625V83.5937C76.5625 83.1793 76.3979 82.7819 76.1049 82.4889C75.8118 82.1959 75.4144 82.0312 75 82.0312C74.5856 82.0312 74.1882 82.1959 73.8951 82.4889C73.6021 82.7819 73.4375 83.1793 73.4375 83.5937V84.375H72.6563C72.2418 84.375 71.8444 84.5396 71.5514 84.8326C71.2584 85.1257 71.0938 85.5231 71.0938 85.9375C71.0938 86.3519 71.2584 86.7493 71.5514 87.0423C71.8444 87.3354 72.2418 87.5 72.6563 87.5H73.4375V88.2812C73.4375 88.6956 73.6021 89.0931 73.8951 89.3861C74.1882 89.6791 74.5856 89.8437 75 89.8437C75.4144 89.8437 75.8118 89.6791 76.1049 89.3861C76.3979 89.0931 76.5625 88.6956 76.5625 88.2812V87.5H77.3438C77.7582 87.5 78.1556 87.3354 78.4486 87.0423C78.7416 86.7493 78.9063 86.3519 78.9063 85.9375C78.9063 85.5231 78.7416 85.1257 78.4486 84.8326C78.1556 84.5396 77.7582 84.375 77.3438 84.375Z" fill="#FCBC04"/>
<path d="M73.4375 83.5937V84.375H72.6562C72.2418 84.375 71.8444 84.5396 71.5514 84.8326C71.2584 85.1257 71.0938 85.5231 71.0938 85.9375C71.0938 86.3519 71.2584 86.7493 71.5514 87.0423C71.8444 87.3354 72.2418 87.5 72.6562 87.5H73.4375V88.2812C73.4375 88.6956 73.6021 89.0931 73.8951 89.3861C74.1882 89.6791 74.5856 89.8437 75 89.8437C75.4144 89.8437 75.8118 89.6791 76.1049 89.3861C76.3979 89.0931 76.5625 88.6956 76.5625 88.2812V87.9375C75.2237 86.4169 74.2746 84.5938 73.7969 82.625C73.5707 82.8978 73.444 83.2394 73.4375 83.5937Z" fill="#E59730"/>
<path d="M89.0625 87.5H85.9375C85.5231 87.5 85.1257 87.3354 84.8326 87.0424C84.5396 86.7493 84.375 86.3519 84.375 85.9375C84.375 85.5231 84.5396 85.1257 84.8326 84.8326C85.1257 84.5396 85.5231 84.375 85.9375 84.375H89.0625C89.4769 84.375 89.8743 84.5396 90.1674 84.8326C90.4604 85.1257 90.625 85.5231 90.625 85.9375C90.625 86.3519 90.4604 86.7493 90.1674 87.0424C89.8743 87.3354 89.4769 87.5 89.0625 87.5Z" fill="#F8664F"/>
<path d="M56.25 49.9998C55.8628 49.9988 55.4897 49.854 55.2032 49.5936C54.8972 49.3155 54.7138 48.9276 54.6933 48.5146C54.6728 48.1017 54.8168 47.6974 55.0938 47.3904L63.5313 38.0155C63.8157 37.7365 64.1959 37.5766 64.5942 37.5687C64.9926 37.5607 65.3789 37.7052 65.6742 37.9726C65.9695 38.24 66.1516 38.6101 66.1831 39.0072C66.2146 39.4044 66.0933 39.7986 65.8438 40.1092L57.4063 49.4842C57.2602 49.6461 57.0819 49.7756 56.8827 49.8644C56.6836 49.9532 56.4681 49.9993 56.25 49.9998Z" fill="#F9E109"/>
<path d="M59.375 21.875H40.625C40.2106 21.875 39.8132 21.7104 39.5201 21.4174C39.2271 21.1243 39.0625 20.7269 39.0625 20.3125C39.0625 19.8981 39.2271 19.5007 39.5201 19.2076C39.8132 18.9146 40.2106 18.75 40.625 18.75H59.375C59.7894 18.75 60.1868 18.9146 60.4799 19.2076C60.7729 19.5007 60.9375 19.8981 60.9375 20.3125C60.9375 20.7269 60.7729 21.1243 60.4799 21.4174C60.1868 21.7104 59.7894 21.875 59.375 21.875Z" fill="#F9E109"/>
<path d="M56.2497 34.375C55.9158 34.3724 55.5916 34.263 55.3245 34.0627C55.0574 33.8625 54.8614 33.5819 54.7653 33.2622C54.6693 32.9425 54.6781 32.6004 54.7905 32.2861C54.903 31.9718 55.1132 31.7018 55.3903 31.5156L60.0778 28.3906C60.2471 28.2542 60.443 28.1547 60.653 28.0983C60.863 28.042 61.0824 28.0301 61.2972 28.0634C61.5121 28.0966 61.7176 28.1744 61.9007 28.2917C62.0838 28.4089 62.2403 28.5631 62.3604 28.7443C62.4805 28.9256 62.5615 29.1299 62.5981 29.3442C62.6347 29.5584 62.6262 29.778 62.5732 29.9889C62.5201 30.1997 62.4236 30.3971 62.2899 30.5685C62.1561 30.74 61.9881 30.8816 61.7965 30.9843L57.109 34.1093C56.8574 34.2856 56.5568 34.3785 56.2497 34.375Z" fill="#F9E109"/>
</svg>
