<svg width="47" height="47" viewBox="0 0 47 47" fill="none" xmlns="http://www.w3.org/2000/svg">
<path d="M12.398 2.09717H4.23267C3.33076 2.09717 2.59961 2.82832 2.59961 3.73023V42.9238C2.59961 43.8257 3.33076 44.5568 4.23267 44.5568H12.398C13.2999 44.5568 14.0311 43.8257 14.0311 42.9238V3.73023C14.0311 2.82832 13.2999 2.09717 12.398 2.09717Z" stroke="white" stroke-width="3.26613" stroke-linecap="round" stroke-linejoin="round"/>
<path d="M23.8238 8.62842H15.6585C14.7565 8.62842 14.0254 9.35957 14.0254 10.2615V42.9228C14.0254 43.8247 14.7565 44.5558 15.6585 44.5558H23.8238C24.7257 44.5558 25.4568 43.8247 25.4568 42.9228V10.2615C25.4568 9.35957 24.7257 8.62842 23.8238 8.62842Z" stroke="white" stroke-width="3.26613" stroke-linecap="round" stroke-linejoin="round"/>
<path d="M34.7531 7.7394L28.4162 9.32522C27.5413 9.54418 27.0095 10.431 27.2285 11.3059L35.1576 42.9901C35.3766 43.865 36.2634 44.3968 37.1383 44.1778L43.4751 42.592C44.3501 42.3731 44.8818 41.4863 44.6629 40.6114L36.7338 8.92715C36.5148 8.05221 35.628 7.52044 34.7531 7.7394Z" stroke="white" stroke-width="3.26613" stroke-linecap="round" stroke-linejoin="round"/>
<path d="M2.59961 33.125H14.0311" stroke="white" stroke-width="3.26613" stroke-linecap="round" stroke-linejoin="round"/>
<path d="M14.0254 29.8599H25.4568" stroke="white" stroke-width="3.26613" stroke-linecap="round" stroke-linejoin="round"/>
<path d="M33.625 36.3897L43.0315 34.0381" stroke="white" stroke-width="3.26613" stroke-linecap="round" stroke-linejoin="round"/>
</svg>
