<svg width="42" height="43" viewBox="0 0 42 43" fill="none" xmlns="http://www.w3.org/2000/svg">
<path d="M20.623 4.38916V6.18108" stroke="white" stroke-width="2.73914" stroke-linecap="round" stroke-linejoin="round"/>
<path d="M20.623 15.0801V19.3564" stroke="white" stroke-width="2.73914" stroke-linecap="round" stroke-linejoin="round"/>
<path d="M20.623 36.0474V37.8394" stroke="white" stroke-width="2.73914" stroke-linecap="round" stroke-linejoin="round"/>
<path d="M3.89844 21.1147H5.69036" stroke="white" stroke-width="2.73914" stroke-linecap="round" stroke-linejoin="round"/>
<path d="M35.5586 21.1147H37.3506" stroke="white" stroke-width="2.73914" stroke-linecap="round" stroke-linejoin="round"/>
<path d="M32.567 9.1665L31.375 10.3585" stroke="white" stroke-width="2.73914" stroke-linecap="round" stroke-linejoin="round"/>
<path d="M9.86977 31.8652L8.67773 33.0572" stroke="white" stroke-width="2.73914" stroke-linecap="round" stroke-linejoin="round"/>
<path d="M8.67773 9.1665L9.86977 10.3585" stroke="white" stroke-width="2.73914" stroke-linecap="round" stroke-linejoin="round"/>
<path d="M31.375 31.8652L32.567 33.0572" stroke="white" stroke-width="2.73914" stroke-linecap="round" stroke-linejoin="round"/>
<path d="M9.86719 21.1126C9.86719 23.9651 11.0004 26.7009 13.0174 28.718C15.0345 30.735 17.7703 31.8682 20.6228 31.8682C23.4754 31.8682 26.2111 30.735 28.2282 28.718C30.2453 26.7009 31.3785 23.9651 31.3785 21.1126C31.3785 18.26 30.2453 15.5243 28.2282 13.5072C26.2111 11.4901 23.4754 10.3569 20.6228 10.3569C17.7703 10.3569 15.0345 11.4901 13.0174 13.5072C11.0004 15.5243 9.86719 18.26 9.86719 21.1126Z" stroke="white" stroke-width="2.73914" stroke-linecap="round" stroke-linejoin="round"/>
<path d="M16.6891 18.0933C16.0724 18.9145 15.707 19.9351 15.707 21.0411C15.707 23.7549 17.907 25.9549 20.6208 25.9549C23.3346 25.9549 25.5346 23.7549 25.5346 21.0411C25.5346 19.9351 25.1692 18.9145 24.5525 18.0933" stroke="white" stroke-width="2.73914" stroke-linecap="round" stroke-linejoin="round"/>
</svg>
