<svg width="36" height="37" viewBox="0 0 36 37" fill="none" xmlns="http://www.w3.org/2000/svg">
<path d="M11.4327 2.97852L6.06025 15.6574C5.98594 15.8383 5.95722 16.0347 5.97656 16.2292C5.9959 16.4238 6.06273 16.6107 6.17121 16.7734C6.27966 16.9361 6.42644 17.0696 6.59862 17.1623C6.77077 17.255 6.96308 17.304 7.15861 17.305H13.8204L9.04493 34.0192L29.5557 14.583C29.7261 14.4188 29.8439 14.2077 29.894 13.9765C29.9441 13.7453 29.9246 13.5043 29.8374 13.2843C29.7505 13.0643 29.6001 12.8751 29.4055 12.7407C29.2106 12.6063 28.9805 12.5328 28.7438 12.5295H19.7898L24.5653 2.97852H11.4327Z" stroke="white" stroke-width="2.34783" stroke-linecap="round" stroke-linejoin="round"/>
</svg>
