<svg width="37" height="37" viewBox="0 0 37 37" fill="none" xmlns="http://www.w3.org/2000/svg">
<g clip-path="url(#clip0_510_4456)">
<path d="M33.4057 4.94009L31.1857 11.4944C31.109 11.646 31.0691 11.8134 31.0691 11.9833C31.0691 12.1532 31.109 12.3206 31.1857 12.4722L35.335 18.0222C35.4542 18.1811 35.5263 18.3703 35.5429 18.5682C35.5596 18.7662 35.5201 18.9648 35.4291 19.1413C35.3381 19.3179 35.1991 19.4652 35.0282 19.5664C34.8573 19.6676 34.6614 19.7187 34.4628 19.7137H27.5385C27.3688 19.7186 27.2024 19.7616 27.0515 19.8393C26.9006 19.9171 26.769 20.0277 26.6664 20.1629L22.8078 25.7129C22.6946 25.8752 22.5382 26.0024 22.3563 26.0802C22.1745 26.1579 21.9744 26.1831 21.7789 26.1528C21.5835 26.1225 21.4004 26.038 21.2506 25.9088C21.1008 25.7797 20.9902 25.6111 20.9314 25.4222L18.87 18.8151C18.8229 18.6518 18.7352 18.5031 18.615 18.3829C18.4949 18.2627 18.3461 18.175 18.1828 18.1279L11.5757 16.0665C11.3868 16.0077 11.2182 15.8972 11.0891 15.7473C10.9599 15.5975 10.8754 15.4144 10.8451 15.219C10.8148 15.0235 10.84 14.8234 10.9177 14.6416C10.9955 14.4597 11.1227 14.3033 11.285 14.1901L16.9407 10.1994C17.076 10.0968 17.1865 9.96521 17.2643 9.81428C17.342 9.66336 17.385 9.49693 17.39 9.32723V2.40295C17.3973 2.22108 17.4516 2.0442 17.5474 1.88943C17.6432 1.73466 17.7773 1.60725 17.9368 1.51953C18.0963 1.43181 18.2757 1.38676 18.4577 1.38873C18.6397 1.39071 18.8181 1.43965 18.9757 1.5308L24.5257 5.68009C24.6666 5.77795 24.8287 5.84096 24.9987 5.86393C25.1687 5.8869 25.3417 5.86918 25.5035 5.81223L32.0578 3.59223C32.2458 3.52617 32.4486 3.51457 32.6429 3.55878C32.8371 3.60298 33.015 3.70118 33.1558 3.84206C33.2967 3.98294 33.3949 4.16077 33.4391 4.35504C33.4833 4.54932 33.4717 4.75212 33.4057 4.94009V4.94009Z" stroke="white" stroke-width="2.64286" stroke-linecap="round" stroke-linejoin="round"/>
<path d="M18.6056 18.3916L1.32129 35.6759" stroke="white" stroke-width="2.64286" stroke-linecap="round" stroke-linejoin="round"/>
</g>
<defs>
<clipPath id="clip0_510_4456">
<rect width="37" height="37" fill="white"/>
</clipPath>
</defs>
</svg>
