<svg width="123" height="70" viewBox="0 0 123 70" fill="none" xmlns="http://www.w3.org/2000/svg">
<path d="M42.6751 33.8738H14.6485L13.6857 36.009L28.5929 43.3011C28.6532 43.2876 28.7186 43.2792 28.7795 43.2792H28.7971C28.8147 43.2792 28.8323 43.2792 28.8492 43.2835L43.6824 36.1005L42.6751 33.8738ZM26.5737 44.1781L12.9969 37.5333L5.89417 53.2956L26.5739 44.1781H26.5737ZM44.3713 37.6289L30.9161 44.1437L51.408 53.226L44.3715 37.6289H44.3713ZM12.1772 35.2712L12.809 33.8738H9.32502L12.177 35.2712H12.1772ZM44.5146 33.8738L45.191 35.3711L48.286 33.8738H44.5146ZM37.6441 22.7091H19.6805L18.5642 25.1843L28.6622 30.8698L38.7906 25.2498L37.6441 22.7091ZM27.5894 32.1927L17.8711 26.7217L15.4079 32.1927H27.5894ZM39.4793 26.7823L29.735 32.1927H41.9208L39.4793 26.7823ZM17.0992 24.3593L17.8408 22.7091H14.1649L17.099 24.3593H17.0992ZM39.4793 22.7091L40.2597 24.434L43.3723 22.7091H39.4793ZM32.6255 11.5831H24.6948L23.2516 14.7885L28.6581 19.351L34.0687 14.7832L32.6255 11.5829V11.5831ZM28.0514 21.028L22.5358 16.3732L20.4389 21.028H28.0512H28.0514ZM34.7835 16.3689L29.2681 21.028H36.8845L34.7835 16.3689ZM25.4531 9.90203H31.8662L28.6581 2.79376L25.4531 9.90203ZM21.9174 13.6614L22.8583 11.5831H19.4532L21.9172 13.6614H21.9174ZM34.461 11.5831L35.4029 13.6614L37.862 11.5831H34.461ZM46.2805 65.6085L48.4654 65.3954C48.5963 66.1289 48.862 66.6704 49.2635 67.0102C49.6639 67.3551 50.2044 67.5308 50.8851 67.5308C51.6091 67.5308 52.1539 67.3771 52.5202 67.0673C52.8863 66.7619 53.069 66.4034 53.069 65.9971C53.069 65.7311 52.9911 65.5086 52.8335 65.325C52.6859 65.1377 52.4155 64.9758 52.0314 64.8449C51.7698 64.7491 51.1682 64.5913 50.2354 64.3555C49.0319 64.0592 48.1905 63.6924 47.706 63.2551C47.0264 62.6441 46.6819 61.9022 46.6819 61.0201C46.6819 60.4526 46.8428 59.9238 47.1656 59.4303C47.4839 58.9369 47.9464 58.5617 48.5482 58.3039C49.1543 58.0462 49.8816 57.9195 50.7324 57.9195C52.1318 57.9195 53.178 58.2249 53.8844 58.8368C54.5866 59.4479 54.957 60.2645 54.9923 61.286L52.7511 61.3867C52.6549 60.8143 52.4505 60.3998 52.1318 60.1513C51.8174 59.9021 51.3423 59.7754 50.7148 59.7754C50.0611 59.7754 49.5507 59.9105 49.1844 60.1775C48.9446 60.3478 48.8266 60.5785 48.8266 60.8674C48.8266 61.129 48.9364 61.3558 49.1586 61.5437C49.4417 61.7796 50.1308 62.0289 51.2211 62.2864C52.3106 62.5431 53.1177 62.8101 53.6405 63.0854C54.1636 63.3642 54.5692 63.7358 54.8699 64.2161C55.1616 64.6961 55.3102 65.2863 55.3102 65.9889C55.3102 66.6268 55.1358 67.2243 54.7787 67.775C54.4249 68.3341 53.9279 68.7486 53.2785 69.0148C52.6332 69.2901 51.827 69.4209 50.8632 69.4209C49.4595 69.4209 48.3825 69.0979 47.6282 68.4516C46.8782 67.8008 46.4289 66.8536 46.2805 65.6087V65.6085ZM31.3611 69.2244V58.1074H33.545L38.0883 65.5305V58.1074H40.1726V69.2244H37.9182L33.4452 61.9761V69.2244H31.3611ZM16.6853 69.2244V58.1074H24.917V59.9891H18.9263V62.4518H24.5028V64.3252H18.9263V67.351H25.1306V69.2244H16.6853ZM8.27925 65.1377L10.4509 65.8276C10.119 67.0411 9.56582 67.941 8.78987 68.5343C8.01801 69.1194 7.03234 69.4162 5.83816 69.4162C4.36803 69.4162 3.15198 68.9095 2.20576 67.9013C1.25545 66.8923 0.780396 65.5127 0.780396 63.7659C0.780396 61.9145 1.25974 60.4784 2.21435 59.452C3.16548 58.4305 4.42077 57.9193 5.97716 57.9193C7.33323 57.9193 8.43624 58.3213 9.287 59.1246C9.79231 59.5961 10.1719 60.2821 10.4241 61.1726L8.20076 61.7005C8.07423 61.1247 7.79991 60.6706 7.38086 60.3339C6.96284 60.0024 6.45651 59.8362 5.86392 59.8362C5.04014 59.8362 4.37294 60.1334 3.85843 60.7226C3.34822 61.3167 3.09087 62.2729 3.09087 63.5997C3.09087 65.0011 3.34393 66.0059 3.84923 66.5993C4.35556 67.1979 5.00927 67.495 5.81629 67.495C6.41297 67.495 6.92339 67.307 7.35511 66.9277C7.78253 66.5475 8.09181 65.949 8.27946 65.1373L8.27925 65.1377ZM28.6581 0.208628C29.0242 0.151718 29.3948 0.343739 29.5514 0.694004L33.7067 9.90203H40.1549C40.6217 9.90203 40.9962 10.2779 40.9962 10.7405C40.9962 11.0284 40.8521 11.2818 40.6299 11.4347L36.1134 15.2469L38.7248 21.028H46.6163C47.0781 21.028 47.4536 21.4033 47.4536 21.8665C47.4536 22.2115 47.2484 22.5036 46.9567 22.6346L40.9527 25.9667L43.7562 32.1931H51.9484C52.411 32.1931 52.7898 32.569 52.7898 33.0316C52.7898 33.3899 52.5676 33.6914 52.2583 33.813L45.8839 36.8999L53.7098 54.2522C53.8975 54.676 53.7098 55.1736 53.2865 55.3659C53.0905 55.4533 52.8767 55.4572 52.6857 55.3962C52.4981 55.4574 52.2843 55.4533 52.0882 55.3659L28.9194 45.096C28.8145 45.1263 28.7057 45.1312 28.6011 45.122L5.35759 55.3661C5.02236 55.5145 4.64276 55.4273 4.40728 55.1739C4.32429 55.1655 4.23721 55.1436 4.15933 55.104C3.73599 54.9161 3.54834 54.4185 3.73599 53.9947L11.4926 36.7953L5.33613 33.7829C4.92199 33.5815 4.74763 33.0797 4.95286 32.665C5.09635 32.3677 5.39316 32.1935 5.70223 32.1935H13.5678L16.4063 25.8967L10.5507 22.6008C10.1449 22.3734 10.0016 21.862 10.2279 21.4567C10.3804 21.1856 10.6688 21.0286 10.9605 21.0286H18.5994L21.2067 15.2475L16.624 11.3833C16.2712 11.0861 16.2235 10.5583 16.5234 10.204C16.6851 10.0077 16.9249 9.90674 17.1603 9.90674V9.90264H23.6126L27.7638 0.694624C27.9253 0.344358 28.2959 0.152338 28.6581 0.209248V0.208628Z" fill="white"/>
<path fill-rule="evenodd" clip-rule="evenodd" d="M94.7684 34.2667C94.7727 33.8866 94.7114 33.529 94.5899 33.1926C94.3234 32.4808 93.8573 32.1275 93.1858 32.1275C92.5096 32.1275 92.0387 32.4767 91.777 33.1707C91.6507 33.4937 91.5904 33.8606 91.5904 34.2667C91.5904 34.8342 91.7075 35.31 91.9473 35.6987C92.2265 36.162 92.6323 36.3937 93.1644 36.3937C93.8616 36.3937 94.3367 36.0394 94.5848 35.337C94.7032 35.0006 94.7641 34.6471 94.7684 34.2667ZM95.7187 34.2667C95.7187 35.4193 95.3224 36.2711 94.5288 36.8207C94.1449 37.0877 93.6956 37.2187 93.186 37.2187C92.1392 37.2187 91.3936 36.7249 90.9451 35.7339C90.7398 35.2797 90.635 34.7906 90.635 34.2667C90.635 33.0833 91.0491 32.2231 91.8737 31.6818C92.266 31.4241 92.7016 31.2974 93.186 31.3023C93.6781 31.3066 94.1274 31.4417 94.5194 31.717C94.9033 31.9791 95.2001 32.3416 95.4137 32.7998C95.6183 33.2497 95.7187 33.7388 95.7187 34.2667ZM88.9263 34.2667C88.9304 33.9134 88.8785 33.5685 88.7695 33.236C88.6606 32.913 88.4946 32.6509 88.2675 32.4464C88.032 32.2407 87.7487 32.1316 87.4177 32.1273C87.0255 32.1181 86.707 32.2229 86.458 32.4327C86.206 32.6382 86.0316 32.9046 85.9219 33.2233C85.8129 33.5591 85.7567 33.8999 85.7524 34.2449C85.7475 34.8911 85.8916 35.4107 86.1841 35.8127C86.4758 36.2013 86.8511 36.4019 87.3131 36.4152C87.339 36.4019 87.3652 36.3935 87.3961 36.3935C88.0414 36.354 88.4856 35.9999 88.7389 35.3317C88.8613 35.0043 88.9222 34.651 88.9265 34.2665L88.9263 34.2667ZM89.8682 34.2231C89.8682 35.4023 89.4803 36.2668 88.6992 36.8207C88.3245 37.0877 87.8971 37.2187 87.4177 37.2187C86.7722 37.2187 86.2577 36.961 85.8697 36.4371H85.8438V38.9954C85.8438 39.3799 85.6913 39.5719 85.381 39.5719C85.2377 39.5719 85.1197 39.515 85.0325 39.4016C84.9452 39.2927 84.9059 39.1657 84.9059 39.0214V31.8124C84.9059 31.4724 85.0541 31.3021 85.3595 31.3021C85.6821 31.3021 85.844 31.4634 85.844 31.7905V32.0837H85.8699C86.1316 31.5723 86.6109 31.3107 87.3088 31.3021C87.6751 31.2929 88.0236 31.3676 88.3505 31.5113C88.9917 31.7999 89.4316 32.3103 89.6806 33.0397C89.8069 33.4106 89.8682 33.7992 89.8682 34.2231ZM83.6245 34.9742C83.6245 35.8607 83.2925 36.5069 82.6261 36.9041C82.2766 37.1139 81.841 37.2189 81.3046 37.2189C80.3242 37.2189 79.657 36.8478 79.3034 36.0967C79.1425 35.756 79.0636 35.3808 79.0636 34.9744V31.7909C79.0636 31.4638 79.2161 31.3025 79.5305 31.3025C79.8439 31.3025 80.0056 31.4638 80.0056 31.7909V34.953C80.0056 35.9129 80.4454 36.3939 81.3265 36.3939C82.2332 36.3939 82.6825 35.9129 82.6825 34.953V31.7909C82.6825 31.4638 82.8393 31.3025 83.1494 31.3025C83.4677 31.3025 83.6245 31.4638 83.6245 31.7909V34.9744V34.9742ZM78.44 31.7907C78.44 32.0485 78.2221 32.2366 77.7865 32.3498C77.5726 32.4069 77.4377 32.4505 77.368 32.4849C76.8578 32.7646 76.6005 33.2495 76.6005 33.9259V36.7292C76.6005 37.0566 76.448 37.2187 76.143 37.2187C75.8202 37.2187 75.6585 37.0482 75.6585 36.7073V31.8124C75.6585 31.4851 75.811 31.3191 76.1254 31.3191C76.4388 31.3191 76.6005 31.4851 76.6005 31.8124V32.2976H76.6221C76.7613 32.0483 76.949 31.8219 77.1804 31.6161C77.4159 31.4112 77.6554 31.3064 77.9036 31.3021C78.0395 31.2972 78.166 31.3408 78.275 31.4372C78.3882 31.5328 78.4402 31.6513 78.4402 31.7905L78.44 31.7907ZM74.7777 33.6123C74.7777 34.9433 74.3948 35.9388 73.6187 36.5986C73.1342 37.0132 72.4327 37.2189 71.5034 37.2189C70.3745 37.2189 69.5072 36.7823 68.9054 35.9087C68.3823 35.1574 68.1159 34.3189 68.1116 33.3983C68.1032 32.2544 68.3909 31.3068 68.9749 30.5598C69.2623 30.1931 69.6202 29.901 70.0474 29.6869C70.4967 29.4687 70.9893 29.3544 71.5251 29.3463C72.0662 29.3379 72.5895 29.4253 73.0905 29.604C73.5574 29.7702 73.9186 30.0011 74.1759 30.3023C74.2462 30.3854 74.2808 30.4902 74.2808 30.6171C74.2808 30.7397 74.233 30.8396 74.1375 30.9226C74.0453 30.9965 73.9413 31.0357 73.8147 31.04C73.6747 31.0316 73.5535 30.984 73.4437 30.9006C73.1126 30.639 72.8295 30.4601 72.5897 30.3551C72.2929 30.2324 71.9619 30.1714 71.5907 30.1714C70.7543 30.1714 70.1216 30.5121 69.694 31.1938C69.3236 31.7787 69.1366 32.4509 69.1316 33.2106C69.1233 34.3151 69.4327 35.1839 70.056 35.8174C70.4139 36.18 70.8759 36.3722 71.4382 36.3941C71.8311 36.4068 72.2234 36.3194 72.6199 36.1272C73.4312 35.7386 73.8368 35.0092 73.8368 33.9484V33.6127H72.4589C72.1925 33.6127 72.0441 33.4724 72.0181 33.1887C72.04 32.879 72.1758 32.7212 72.4153 32.7212H74.1504C74.5692 32.7212 74.7781 32.9621 74.7781 33.4381V33.6127L74.7777 33.6123Z" fill="white"/>
<path fill-rule="evenodd" clip-rule="evenodd" d="M109.248 36.2181C108.175 36.2181 107.33 35.362 107.33 34.2968C107.33 33.2442 108.175 32.3889 109.248 32.3889C110.307 32.3889 111.202 33.2442 111.202 34.2968C111.202 35.362 110.307 36.2181 109.248 36.2181ZM109.23 31.2316C107.569 31.2316 106.235 32.5418 106.166 34.1744V39.6282C106.166 39.9866 106.458 40.2786 106.815 40.2786C107.146 40.2786 107.456 40.0345 107.46 39.6198V36.6543C107.888 36.9911 108.551 37.257 109.205 37.2746C110.901 37.3225 112.313 35.9384 112.313 34.2792C112.313 32.6593 111.062 31.2314 109.231 31.2314L109.23 31.2316Z" fill="white"/>
<path fill-rule="evenodd" clip-rule="evenodd" d="M100.85 35.0479C101.038 35.607 101.753 36.1837 102.537 36.1837C102.982 36.1783 103.422 36.0828 103.841 35.79C104.508 35.3319 105.067 36.1659 104.565 36.5941C104.041 37.0211 103.235 37.2838 102.515 37.2748C100.828 37.2572 99.5854 35.8866 99.5854 34.2356C99.5854 32.6206 100.886 31.2752 102.52 31.2316C103.75 31.197 104.673 31.9391 105.101 32.6986C105.532 33.4632 105.651 34.6461 104.512 34.651H101.055C100.728 34.651 100.793 34.8817 100.85 35.0479ZM102.564 32.2927C101.862 32.3019 101.168 32.7123 100.894 33.3015C100.811 33.4761 100.92 33.6331 101.112 33.6331H104.006C104.198 33.6331 104.233 33.4323 104.142 33.262C103.854 32.708 103.283 32.2884 102.564 32.2927H102.564Z" fill="white"/>
<path fill-rule="evenodd" clip-rule="evenodd" d="M117.213 35.441V34.022C117.213 33.2404 116.582 32.6076 115.8 32.6076C115.064 32.6076 114.388 33.197 114.388 34.022V35.4193V35.437C114.388 35.8081 114.087 36.1053 113.721 36.1053C113.351 36.1053 113.037 35.8038 113.054 35.437L113.058 34.1227C113.058 32.1757 114.498 31.2319 115.788 31.2319C116.682 31.2319 117.401 31.6383 117.863 32.2234C118.461 31.4856 119.285 31.2319 119.943 31.2319C121.565 31.2319 122.773 32.6295 122.834 34.2535C122.89 35.7072 122.306 38.1353 119.206 39.349C118.74 39.4895 118.304 39.1308 118.343 38.6852C118.365 38.445 118.487 38.1615 118.883 38.0481C121.439 37.3146 121.7 34.9653 121.578 34.1579C121.452 33.2707 120.928 32.6203 119.978 32.6076C119.15 32.5943 118.517 33.2365 118.513 34.022V35.441C118.517 35.8163 118.225 36.1051 117.863 36.1051C117.51 36.1051 117.2 35.8214 117.214 35.441H117.213Z" fill="white"/>
<path fill-rule="evenodd" clip-rule="evenodd" d="M97.6329 32.9565C98.2523 32.9565 98.7576 33.4626 98.7576 34.0829C98.7576 34.7072 98.2523 35.2092 97.6329 35.2092C97.0093 35.2092 96.5081 34.7072 96.5081 34.0829C96.5081 33.4626 97.0093 32.9565 97.6329 32.9565Z" fill="white"/>
<path d="M62.6888 46.3308H62.408V23.2939H62.6888V46.3308Z" fill="white"/>
</svg>
