<svg width="244" height="138" viewBox="0 0 244 138" fill="none" xmlns="http://www.w3.org/2000/svg">
<path d="M84.2504 67.0795H28.5056L26.5906 71.3326L56.241 85.8582C56.361 85.8313 56.4911 85.8146 56.6122 85.8146H56.6472C56.6821 85.8146 56.7171 85.8146 56.7509 85.8231L86.2541 71.5149L84.2504 67.0795ZM52.2249 87.6052L25.2205 74.369L11.0932 105.767L52.2253 87.6052H52.2249ZM87.6242 74.5594L60.8618 87.5367L101.62 105.628L87.6246 74.5594H87.6242ZM23.5901 69.863L24.8468 67.0795H17.9172L23.5897 69.863H23.5901ZM87.9092 67.0795L89.2546 70.062L95.4106 67.0795H87.9092ZM74.2438 44.8399H38.5143L36.294 49.7703L56.3788 61.0957L76.5243 49.9008L74.2438 44.8399ZM54.2451 63.7308L34.9153 52.8328L30.016 63.7308H54.2451ZM77.894 52.9535L58.5126 63.7308H82.7502L77.894 52.9535ZM33.3801 48.127L34.8551 44.8399H27.5437L33.3797 48.127H33.3801ZM77.894 44.8399L79.4463 48.2758L85.6373 44.8399H77.894ZM64.2619 22.6773H48.4876L45.6172 29.0624L56.3707 38.1506L67.1324 29.0518L64.2619 22.6769V22.6773ZM55.164 41.4912L44.1934 32.219L40.0227 41.4912H55.1636H55.164ZM68.5542 32.2104L57.5839 41.4912H72.733L68.5542 32.2104ZM49.996 19.3286H62.7515L56.3707 5.1692L49.996 19.3286ZM42.9635 26.8171L44.8349 22.6773H38.0622L42.9631 26.8171H42.9635ZM67.9126 22.6773L69.7861 26.8171L74.6772 22.6773H67.9126ZM91.4216 130.294L95.7675 129.869C96.0277 131.33 96.5563 132.409 97.3548 133.086C98.1513 133.773 99.2263 134.123 100.58 134.123C102.02 134.123 103.104 133.817 103.832 133.2C104.561 132.591 104.924 131.877 104.924 131.068C104.924 130.538 104.769 130.095 104.456 129.729C104.162 129.356 103.624 129.033 102.86 128.773C102.34 128.582 101.143 128.268 99.2881 127.798C96.8941 127.208 95.2207 126.477 94.2571 125.606C92.9052 124.389 92.2201 122.911 92.2201 121.154C92.2201 120.023 92.5401 118.97 93.1821 117.987C93.8151 117.004 94.7352 116.257 95.9322 115.743C97.1377 115.23 98.5843 114.978 100.276 114.978C103.06 114.978 105.141 115.586 106.546 116.805C107.942 118.022 108.679 119.649 108.749 121.684L104.292 121.884C104.1 120.744 103.694 119.918 103.06 119.423C102.435 118.927 101.49 118.674 100.241 118.674C98.9413 118.674 97.926 118.944 97.1974 119.475C96.7205 119.815 96.4859 120.274 96.4859 120.85C96.4859 121.371 96.7043 121.823 97.1462 122.197C97.7093 122.667 99.0799 123.163 101.249 123.676C103.416 124.188 105.021 124.719 106.061 125.268C107.101 125.823 107.908 126.563 108.506 127.52C109.086 128.476 109.382 129.652 109.382 131.051C109.382 132.322 109.035 133.512 108.325 134.609C107.621 135.723 106.632 136.549 105.341 137.079C104.057 137.627 102.454 137.888 100.537 137.888C97.7447 137.888 95.6025 137.244 94.1022 135.957C92.6105 134.661 91.7168 132.774 91.4216 130.294V130.294ZM61.7469 137.496V115.352H66.0907L75.1273 130.138V115.352H79.2731V137.496H74.789L65.8923 123.058V137.496H61.7469ZM32.5567 137.496V115.352H48.9296V119.1H37.014V124.006H48.1058V127.737H37.014V133.765H49.3544V137.496H32.5567ZM15.8371 129.356L20.1566 130.73C19.4963 133.147 18.3961 134.94 16.8527 136.122C15.3175 137.287 13.357 137.879 10.9818 137.879C8.05769 137.879 5.63897 136.869 3.75693 134.861C1.86676 132.851 0.921875 130.103 0.921875 126.623C0.921875 122.935 1.8753 120.075 3.77401 118.03C5.6658 115.995 8.16259 114.977 11.2583 114.977C13.9555 114.977 16.1494 115.778 17.8415 117.378C18.8466 118.317 19.6016 119.684 20.1033 121.458L15.681 122.509C15.4293 121.362 14.8837 120.458 14.0502 119.787C13.2188 119.127 12.2117 118.796 11.033 118.796C9.39451 118.796 8.06745 119.388 7.0441 120.561C6.02928 121.745 5.5174 123.649 5.5174 126.292C5.5174 129.084 6.02075 131.085 7.0258 132.267C8.03289 133.46 9.33312 134.052 10.9383 134.052C12.1251 134.052 13.1403 133.677 13.999 132.922C14.8491 132.164 15.4643 130.972 15.8375 129.355L15.8371 129.356ZM56.3707 0.0197164C57.0989 -0.093647 57.836 0.288851 58.1474 0.986566L66.4123 19.3286H79.2378C80.1664 19.3286 80.9112 20.0773 80.9112 20.9989C80.9112 21.5722 80.6246 22.0771 80.1826 22.3817L71.1994 29.9754L76.3934 41.4912H92.0896C93.0081 41.4912 93.755 42.2386 93.755 43.1614C93.755 43.8485 93.3468 44.4304 92.7666 44.6914L80.8246 51.3289L86.4008 63.7316H102.695C103.615 63.7316 104.369 64.4802 104.369 65.4018C104.369 66.1155 103.927 66.7161 103.312 66.9583L90.6329 73.1073L106.199 107.673C106.572 108.517 106.199 109.508 105.357 109.891C104.967 110.065 104.541 110.073 104.162 109.951C103.788 110.073 103.363 110.065 102.973 109.891L56.8903 89.4336C56.6817 89.494 56.4654 89.5038 56.2573 89.4855L10.0259 109.891C9.35914 110.187 8.60413 110.013 8.13575 109.508C7.97068 109.492 7.79748 109.448 7.64258 109.369C6.80056 108.995 6.42732 108.004 6.80056 107.16L22.2285 72.8989L9.98324 66.8984C9.15951 66.4971 8.8127 65.4977 9.22091 64.6715C9.50632 64.0794 10.0967 63.7324 10.7114 63.7324H26.3561L32.0018 51.1894L20.355 44.6242C19.5479 44.1711 19.2629 43.1524 19.713 42.345C20.0163 41.8051 20.59 41.4924 21.1702 41.4924H36.3639L41.5498 29.9766L32.4348 22.2793C31.733 21.6872 31.6383 20.636 32.2347 19.9301C32.5563 19.539 33.0332 19.338 33.5016 19.338V19.3298H46.3352L54.5919 0.9878C54.9131 0.290085 55.6503 -0.0924125 56.3707 0.0209509V0.0197164Z" fill="#005F24"/>
<path fill-rule="evenodd" clip-rule="evenodd" d="M187.864 67.862C187.872 67.1047 187.75 66.3923 187.509 65.7223C186.978 64.3045 186.051 63.6006 184.716 63.6006C183.371 63.6006 182.434 64.2963 181.914 65.6787C181.662 66.3222 181.542 67.0529 181.542 67.862C181.542 68.9923 181.775 69.94 182.252 70.7144C182.808 71.6372 183.615 72.0988 184.673 72.0988C186.06 72.0988 187.005 71.393 187.498 69.9939C187.734 69.3239 187.855 68.6196 187.864 67.862ZM189.754 67.862C189.754 70.1578 188.965 71.8546 187.387 72.9494C186.623 73.4812 185.73 73.7422 184.716 73.7422C182.634 73.7422 181.151 72.7586 180.259 70.7845C179.851 69.8797 179.642 68.9055 179.642 67.862C179.642 65.5046 180.466 63.7911 182.106 62.7129C182.886 62.1995 183.753 61.9471 184.716 61.9569C185.695 61.9655 186.588 62.2346 187.368 62.7831C188.132 63.305 188.722 64.0272 189.147 64.9398C189.554 65.8361 189.754 66.8103 189.754 67.862ZM176.244 67.862C176.252 67.1581 176.148 66.471 175.932 65.8088C175.715 65.1653 175.385 64.6433 174.933 64.236C174.465 63.8262 173.901 63.6088 173.243 63.6002C172.463 63.5819 171.829 63.7907 171.334 64.2087C170.833 64.6181 170.486 65.1486 170.268 65.7835C170.051 66.4523 169.939 67.1312 169.931 67.8184C169.921 69.1057 170.208 70.1407 170.789 70.9416C171.37 71.7155 172.116 72.1151 173.035 72.1416C173.087 72.1151 173.139 72.0984 173.2 72.0984C174.483 72.0197 175.367 71.3143 175.871 69.9833C176.114 69.3312 176.235 68.6274 176.244 67.8616L176.244 67.862ZM178.117 67.7751C178.117 70.1239 177.345 71.846 175.792 72.9494C175.047 73.4812 174.196 73.7422 173.243 73.7422C171.959 73.7422 170.936 73.2288 170.164 72.1853H170.112V77.2813C170.112 78.0471 169.809 78.4297 169.192 78.4297C168.907 78.4297 168.672 78.3163 168.499 78.0904C168.325 77.8734 168.247 77.6206 168.247 77.3331V62.9731C168.247 62.2958 168.542 61.9565 169.149 61.9565C169.791 61.9565 170.113 62.2778 170.113 62.9294V63.5134H170.164C170.685 62.4948 171.638 61.9736 173.026 61.9565C173.755 61.9381 174.448 62.087 175.098 62.3732C176.374 62.9482 177.249 63.9648 177.744 65.4177C177.995 66.1566 178.117 66.9306 178.117 67.7751ZM165.698 69.2713C165.698 71.037 165.038 72.3243 163.712 73.1154C163.017 73.5334 162.151 73.7426 161.084 73.7426C159.134 73.7426 157.807 73.0033 157.104 71.5072C156.784 70.8286 156.627 70.0811 156.627 69.2717V62.9303C156.627 62.2786 156.93 61.9573 157.555 61.9573C158.179 61.9573 158.5 62.2786 158.5 62.9303V69.2289C158.5 71.141 159.375 72.0992 161.127 72.0992C162.931 72.0992 163.825 71.141 163.825 69.2289V62.9303C163.825 62.2786 164.137 61.9573 164.753 61.9573C165.386 61.9573 165.698 62.2786 165.698 62.9303V69.2717V69.2713ZM155.386 62.9298C155.386 63.4432 154.953 63.818 154.086 64.0435C153.661 64.1573 153.393 64.2441 153.254 64.3126C152.239 64.8697 151.727 65.8357 151.727 67.183V72.7672C151.727 73.4192 151.424 73.7422 150.818 73.7422C150.176 73.7422 149.854 73.4025 149.854 72.7235V62.9731C149.854 62.321 150.157 61.9903 150.783 61.9903C151.406 61.9903 151.727 62.321 151.727 62.9731V63.9395H151.771C152.047 63.4429 152.421 62.9918 152.881 62.582C153.349 62.1738 153.826 61.9651 154.319 61.9565C154.59 61.9467 154.841 62.0336 155.058 62.2256C155.283 62.4161 155.387 62.6521 155.387 62.9294L155.386 62.9298ZM148.102 66.5583C148.102 69.2097 147.34 71.1927 145.797 72.507C144.833 73.3328 143.438 73.7426 141.589 73.7426C139.344 73.7426 137.619 72.8728 136.422 71.1328C135.381 69.6362 134.852 67.966 134.843 66.1322C134.826 63.8535 135.399 61.9658 136.56 60.4778C137.132 59.7475 137.844 59.1656 138.693 58.7391C139.587 58.3044 140.567 58.0769 141.633 58.0605C142.709 58.0438 143.75 58.2179 144.746 58.5739C145.675 58.9051 146.393 59.365 146.905 59.9649C147.045 60.1304 147.114 60.3392 147.114 60.592C147.114 60.8363 147.018 61.0353 146.829 61.2005C146.645 61.3477 146.438 61.4259 146.187 61.4345C145.908 61.4178 145.667 61.3228 145.449 61.1568C144.79 60.6357 144.227 60.2793 143.75 60.0701C143.16 59.8258 142.501 59.7043 141.763 59.7043C140.099 59.7043 138.841 60.3829 137.99 61.7408C137.254 62.9058 136.882 64.2449 136.872 65.7582C136.855 67.9582 137.471 69.6888 138.71 70.9509C139.422 71.6731 140.341 72.056 141.46 72.0996C142.241 72.1249 143.021 71.9508 143.81 71.5679C145.424 70.7939 146.231 69.341 146.231 67.2279V66.5591H143.49C142.96 66.5591 142.665 66.2798 142.613 65.7146C142.657 65.0976 142.927 64.7832 143.403 64.7832H146.854C147.687 64.7832 148.103 65.2632 148.103 66.2113V66.5591L148.102 66.5583Z" fill="#005F24"/>
<path fill-rule="evenodd" clip-rule="evenodd" d="M216.663 71.7497C214.53 71.7497 212.848 70.0444 212.848 67.9227C212.848 65.8259 214.529 64.1222 216.663 64.1222C218.77 64.1222 220.549 65.8259 220.549 67.9227C220.549 70.0444 218.77 71.7497 216.663 71.7497ZM216.628 61.817C213.324 61.817 210.671 64.4268 210.532 67.6789V78.5426C210.532 79.2566 211.114 79.8381 211.824 79.8381C212.482 79.8381 213.1 79.352 213.108 78.5259V72.6187C213.958 73.2896 215.276 73.8193 216.577 73.8543C219.951 73.9497 222.759 71.1927 222.759 67.8876C222.759 64.6609 220.271 61.8166 216.629 61.8166L216.628 61.817Z" fill="#005F24"/>
<path fill-rule="evenodd" clip-rule="evenodd" d="M199.961 69.4189C200.334 70.5326 201.756 71.6813 203.316 71.6813C204.201 71.6707 205.076 71.4803 205.91 70.8971C207.236 69.9845 208.347 71.6458 207.349 72.4989C206.308 73.3495 204.705 73.8727 203.273 73.8547C199.917 73.8197 197.445 71.0896 197.445 67.8008C197.445 64.5838 200.031 61.9039 203.281 61.817C205.728 61.7481 207.565 63.2263 208.416 64.7392C209.274 66.2623 209.509 68.6184 207.245 68.6282H200.369C199.717 68.6282 199.847 69.0878 199.961 69.4189ZM203.37 63.9306C201.973 63.9489 200.594 64.7665 200.047 65.9401C199.882 66.288 200.099 66.6007 200.481 66.6007H206.238C206.62 66.6007 206.69 66.2007 206.509 65.8614C205.935 64.758 204.8 63.922 203.37 63.9306H203.37Z" fill="#005F24"/>
<path fill-rule="evenodd" clip-rule="evenodd" d="M232.507 70.2018V67.3751C232.507 65.8182 231.25 64.5577 229.696 64.5577C228.231 64.5577 226.887 65.7317 226.887 67.3751V70.1586V70.1937C226.887 70.933 226.288 71.5251 225.561 71.5251C224.824 71.5251 224.199 70.9244 224.234 70.1937L224.242 67.5757C224.242 63.6973 227.105 61.8174 229.672 61.8174C231.449 61.8174 232.88 62.6269 233.799 63.7923C234.988 62.3227 236.626 61.8174 237.936 61.8174C241.162 61.8174 243.564 64.6014 243.685 67.8363C243.797 70.7319 242.636 75.5687 236.47 77.9864C235.543 78.2661 234.676 77.5517 234.753 76.664C234.796 76.1856 235.039 75.6209 235.828 75.3949C240.911 73.9339 241.43 69.2541 241.189 67.6459C240.937 65.8785 239.895 64.583 238.005 64.5577C236.358 64.5312 235.099 65.8104 235.091 67.3751V70.2018C235.099 70.9493 234.519 71.5247 233.799 71.5247C233.097 71.5247 232.481 70.9595 232.507 70.2018H232.507Z" fill="#005F24"/>
<path fill-rule="evenodd" clip-rule="evenodd" d="M193.561 65.253C194.793 65.253 195.798 66.261 195.798 67.4966C195.798 68.7403 194.793 69.7402 193.561 69.7402C192.321 69.7402 191.324 68.7403 191.324 67.4966C191.324 66.261 192.321 65.253 193.561 65.253Z" fill="#005F24"/>
<path d="M124.057 91.8934H123.498V46.0049H124.057V91.8934Z" fill="#005F24"/>
</svg>
