<svg width="56" height="56" viewBox="0 0 56 56" fill="none" xmlns="http://www.w3.org/2000/svg">
<path fill-rule="evenodd" clip-rule="evenodd" d="M40.321 26.7507L41.9556 34.5688H34.5181L33.8616 26.7507H40.321ZM39.8527 24.5107L38.6362 18.6926H33.1851L33.6736 24.5107H39.8527ZM31.4292 24.5107L30.9407 18.6926H25.0671L24.5786 24.5107H31.4292ZM24.3906 26.7507L23.7341 34.5688H32.2737L31.6173 26.7507H24.3906ZM22.1462 26.7507L21.4898 34.5688H14.0446L15.6782 26.7507H22.1462ZM22.3343 24.5107L22.8228 18.6926H17.3618L16.1462 24.5107H22.3343ZM34.7061 36.8088H42.424L43.7692 43.243H35.2464L34.7061 36.8088ZM32.4618 36.8088H23.546L23.0058 43.243H33.002L32.4618 36.8088ZM21.3017 36.8088H13.5766L12.2322 43.243H20.7615L21.3017 36.8088ZM46.2466 44.1335L40.6466 17.343C40.5402 16.8222 40.081 16.4526 39.549 16.4526H16.4546C15.9226 16.4526 15.469 16.8222 15.357 17.343L9.75702 44.1335C9.68982 44.4639 9.77384 44.8054 9.98664 45.0686C10.1994 45.3318 10.5186 45.483 10.8546 45.483H22.625V48.1714H20.12C19.504 48.1714 19 48.6754 19 49.2914C19 49.9074 19.504 50.4114 20.12 50.4114H35.884C36.5 50.4114 37.004 49.9074 37.004 49.2914C37.004 48.6754 36.5 48.1714 35.884 48.1714H33.3826V45.483H45.149C45.485 45.483 45.8042 45.3318 46.017 45.0686C46.2298 44.8054 46.3138 44.4639 46.2466 44.1335ZM31.1426 45.4832V48.1712H24.865V45.4832H31.1426Z" fill="#93C01F"/>
<path fill-rule="evenodd" clip-rule="evenodd" d="M45.1992 2.6601V4.22813C45.1992 4.53612 45.4512 4.78813 45.7592 4.78813C46.0672 4.78813 46.3192 4.53612 46.3192 4.22813V2.6601C46.3192 2.3521 46.0672 2.1001 45.7592 2.1001C45.4512 2.1001 45.1992 2.3521 45.1992 2.6601ZM47.9445 8.84233C47.9445 9.44713 47.6981 9.99035 47.3005 10.3935C46.9029 10.7911 46.3597 11.0376 45.7493 11.0376C45.1445 11.0376 44.6013 10.7911 44.1981 10.3935C43.8005 9.99594 43.5541 9.45273 43.5541 8.84233C43.5541 8.23753 43.8005 7.69432 44.1981 7.29112C44.5957 6.89352 45.1389 6.64714 45.7493 6.64714C46.3541 6.64714 46.8973 6.89352 47.3005 7.29112C47.6981 7.68872 47.9445 8.23193 47.9445 8.84233ZM49.0645 8.84233C49.0645 7.01673 47.5805 5.53271 45.7549 5.53271C43.9237 5.53271 42.4453 7.01673 42.4453 8.84233C42.4453 10.6735 43.9293 12.152 45.7549 12.152C47.5861 12.152 49.0645 10.6679 49.0645 8.84233ZM45.1992 15.025V13.457C45.1992 13.1434 45.4512 12.897 45.7592 12.897C46.0672 12.897 46.3192 13.149 46.3192 13.457V15.025C46.3192 15.333 46.0672 15.585 45.7592 15.585C45.4512 15.585 45.1992 15.333 45.1992 15.025ZM49.7257 4.07103L48.6169 5.17982C48.3985 5.39822 48.3985 5.75103 48.6169 5.96943C48.8353 6.18783 49.1881 6.18783 49.4065 5.96943L50.5153 4.86065C50.7337 4.64225 50.7337 4.28943 50.5153 4.07103C50.3025 3.85263 49.9441 3.85263 49.7257 4.07103ZM40.988 12.8126L42.0968 11.7038C42.3152 11.4854 42.6736 11.4854 42.8864 11.7038C43.1048 11.9222 43.1048 12.2751 42.8864 12.4935L41.7776 13.6022C41.5592 13.8206 41.2064 13.8206 40.988 13.6022C40.7696 13.3838 40.7696 13.031 40.988 12.8126ZM51.9366 8.28223H50.3686C50.0606 8.28223 49.8086 8.53423 49.8086 8.84223C49.8086 9.15023 50.0606 9.40223 50.3686 9.40223H51.9366C52.2446 9.40223 52.4966 9.15023 52.4966 8.84223C52.4966 8.53423 52.2502 8.28223 51.9366 8.28223ZM39.5756 8.28223H41.1436C41.4516 8.28223 41.7036 8.53423 41.7036 8.84223C41.7036 9.15023 41.4516 9.40223 41.1436 9.40223H39.5756C39.2676 9.40223 39.0156 9.15023 39.0156 8.84223C39.0156 8.53423 39.2676 8.28223 39.5756 8.28223ZM50.5231 12.8126L49.4143 11.7038C49.1959 11.4854 48.8431 11.4854 48.6247 11.7038C48.4063 11.9222 48.4063 12.2751 48.6247 12.4935L49.7335 13.6022C49.9519 13.8206 50.3047 13.8206 50.5231 13.6022C50.7415 13.3894 50.7415 13.031 50.5231 12.8126ZM41.7815 4.07103L42.8903 5.17982C43.1087 5.39822 43.1087 5.75103 42.8903 5.96943C42.6719 6.18783 42.3191 6.18783 42.1007 5.96943L40.9919 4.86065C40.7735 4.64225 40.7735 4.28943 40.9919 4.07103C41.2103 3.85263 41.5631 3.85263 41.7815 4.07103Z" fill="#93C01F"/>
</svg>
