<svg width="48" height="48" viewBox="0 0 48 48" fill="none" xmlns="http://www.w3.org/2000/svg">
<path fill-rule="evenodd" clip-rule="evenodd" d="M22.7773 6.60006L15.489 12.7739H11.3897C10.8617 12.7739 10.4297 13.2059 10.4297 13.734C10.4297 14.2668 10.8569 14.694 11.3897 14.694H18.0508V19.5376H11.3897C10.8617 19.5376 10.4297 19.9696 10.4297 20.4976C10.4297 21.0257 10.8569 21.4577 11.3897 21.4577H17.948L16.8736 32.0587L13.5185 43.084H7.23734C6.70934 43.084 6.27734 43.516 6.27734 44.044C6.27734 44.5768 6.70454 45.004 7.23734 45.004H14.1428C14.408 45.0297 14.6661 44.9417 14.8605 44.772L23.6934 37.9745L32.5023 44.755C32.6181 44.86 32.7596 44.9371 32.9159 44.9758C33.0164 45.0019 33.1219 45.0119 33.2286 45.004H40.7747C41.3027 45.004 41.7347 44.572 41.7347 44.044C41.7347 43.516 41.3027 43.084 40.7747 43.084H33.8651L30.5239 32.1042C30.5198 32.0644 30.5133 32.0247 30.5042 31.9855L29.4372 21.4577H35.991C36.519 21.4577 36.951 21.0257 36.951 20.4976C36.951 19.9696 36.519 19.5376 35.991 19.5376H29.338V14.694H35.991C36.519 14.694 36.951 14.262 36.951 13.734C36.951 13.2059 36.519 12.7739 35.991 12.7739H31.8914L24.6973 6.67989V3.95561C24.6973 3.42761 24.2653 2.99561 23.7373 2.99561C23.2093 2.99561 22.7773 3.42761 22.7773 3.95561V6.60006ZM21.9521 14.694H25.4269L23.6897 15.9451L21.9521 14.694ZM19.9708 15.6313V18.6233L22.0483 17.1271L19.9708 15.6313ZM23.6898 18.3091L21.9839 19.5376H25.3961L23.6898 18.3091ZM27.418 18.6294V15.6243L25.3313 17.127L27.418 18.6294ZM23.6926 8.34698L28.9167 12.7739H18.4685L23.6926 8.34698ZM21.165 21.4577H26.2162L23.6964 24.2629L21.165 21.4577ZM27.6381 22.7434L24.9877 25.694L28.3116 29.3774L27.6381 22.7434ZM19.7517 22.7529L22.4083 25.6969L19.0755 29.4073L19.7517 22.7529ZM23.6997 27.128L19.9716 31.2784H27.4449L23.6997 27.128ZM22.1224 36.7652L16.022 41.4599L18.337 33.8514L22.1224 36.7652ZM31.3673 41.4628L25.2646 36.7654L29.0513 33.8512L31.3673 41.4628ZM23.6936 35.5561L26.7496 33.2043H20.6382L23.6936 35.5561ZM13.0528 24.2515H12.0928C11.5648 24.2515 11.1328 23.8243 11.1328 23.2915C11.1328 22.7635 11.5648 22.3315 12.0928 22.3315H13.0528C13.5808 22.3315 14.0128 22.7635 14.0128 23.2915C14.0128 23.8195 13.5808 24.2515 13.0528 24.2515ZM12.0928 17.4928H13.0528C13.5808 17.4928 14.0128 17.0608 14.0128 16.5328C14.0128 16.0048 13.5808 15.5728 13.0528 15.5728H12.0928C11.5648 15.5728 11.1328 16.0048 11.1328 16.5328C11.1328 17.0608 11.5648 17.4928 12.0928 17.4928ZM35.2833 24.2515H34.3233C33.7953 24.2515 33.3633 23.8243 33.3633 23.2915C33.3633 22.7635 33.7953 22.3315 34.3233 22.3315H35.2833C35.8113 22.3315 36.2433 22.7635 36.2433 23.2915C36.2433 23.8195 35.8113 24.2515 35.2833 24.2515ZM34.3233 17.4928H35.2833C35.8113 17.4928 36.2433 17.0608 36.2433 16.5328C36.2433 16.0048 35.8113 15.5728 35.2833 15.5728H34.3233C33.7953 15.5728 33.3633 16.0048 33.3633 16.5328C33.3633 17.0608 33.7953 17.4928 34.3233 17.4928Z" fill="#93C01F"/>
</svg>
