<svg width="42" height="42" viewBox="0 0 42 42" fill="none" xmlns="http://www.w3.org/2000/svg">
<path d="M7.34922 34.6516C7.95184 33.9767 12.0004 30.797 14.0128 29.2296C14.7457 28.6587 15.6447 28.3516 16.5737 28.3516C18.8201 28.3516 23.1489 28.3516 25.4062 28.3516C26.346 28.3516 27.254 28.6717 28.0107 29.2292C30.6091 31.1434 33.0449 32.5696 35.6992 34.6516M10.4992 37.8012H31.4992C34.9786 37.8012 37.7992 34.9806 37.7992 31.5012V10.5012C37.7992 7.02178 34.9786 4.20117 31.4992 4.20117H10.4992C7.01982 4.20117 4.19922 7.02178 4.19922 10.5012V31.5012C4.19922 34.9806 7.01982 37.8012 10.4992 37.8012ZM27.0167 16.2272C27.0167 13.0221 24.3109 10.4033 20.9992 10.4033C17.6876 10.4033 14.9818 13.0221 14.9818 16.2272C14.9818 19.4324 17.6876 22.0512 20.9992 22.0512C24.3109 22.0512 27.0167 19.4324 27.0167 16.2272Z" stroke="#93C01F" stroke-width="3.5"/>
</svg>
