<svg width="356" height="356" viewBox="0 0 356 356" fill="none" xmlns="http://www.w3.org/2000/svg">
<g clip-path="url(#clip0_801_299)">
<path d="M275.429 92.9836C274.85 90.0221 273.901 86.9266 271.595 84.9832C268.812 82.6381 264.522 82.6193 261.365 84.4288C258.209 86.2382 256.139 89.5871 255.246 93.1175C254.353 96.6479 254.525 100.364 255.025 103.972C255.523 107.58 256.342 111.14 256.729 114.761C257.717 124.011 255.793 133.55 251.297 141.691L259.638 141.422C266.142 135.399 271.074 127.691 273.824 119.259C276.573 110.827 277.131 101.688 275.431 92.9825L275.429 92.9836Z" fill="#21827E"/>
<path d="M271.435 99.3933C269.654 103.315 267.424 107.02 264.81 110.439C265.022 107.521 265.076 104.591 264.968 101.668C264.986 101.618 264.984 101.562 264.96 101.508C264.925 100.604 264.876 99.6999 264.81 98.7979C264.533 94.9975 263.976 91.2181 263.145 87.4996C263.073 87.1764 262.563 87.2606 262.635 87.5859C263.612 91.9574 264.204 96.4108 264.416 100.883C262.526 98.7603 260.822 96.4738 259.34 94.0468C259.169 93.7668 258.699 93.9815 258.872 94.266C260.491 96.9165 262.357 99.4055 264.452 101.696C264.526 103.693 264.526 105.693 264.449 107.69C264.251 112.75 263.573 117.792 262.422 122.723C261.137 119.13 260.121 115.447 259.389 111.702C259.324 111.377 258.815 111.461 258.879 111.788C259.667 115.809 260.776 119.763 262.192 123.608C262.194 123.616 262.2 123.619 262.203 123.626C261.875 124.96 261.514 126.287 261.115 127.602C260.022 131.213 258.667 134.744 257.061 138.159C256.92 138.461 257.404 138.64 257.544 138.341C258.394 136.533 259.171 134.693 259.878 132.825C262.916 130.881 265.513 128.303 267.46 125.262C267.639 124.982 267.219 124.683 267.039 124.964C265.255 127.749 262.916 130.162 260.18 132.014C261.728 127.784 262.914 123.421 263.723 118.986C264.183 116.462 264.52 113.917 264.737 111.36C264.757 111.346 264.778 111.334 264.794 111.311C267.628 107.702 270.019 103.757 271.916 99.5781C272.055 99.2749 271.571 99.0945 271.434 99.3955L271.435 99.3933Z" fill="#CFFDF7"/>
<path d="M285.476 121.14C285.662 119.416 282.978 119.192 282.792 120.921C281.053 137.103 273.985 152.635 262.623 164.325C252.497 174.742 239.366 181.961 225.182 185.01C223.493 185.373 223.959 188.03 225.661 187.664C249.769 182.482 270.197 165.765 279.849 143.003C282.802 136.04 284.67 128.657 285.477 121.14H285.476Z" fill="#1A5D5B"/>
<path d="M261.987 176.488C257.974 175.507 253.71 175.88 249.753 177.071C247.769 177.669 245.719 178.572 244.617 180.33L245.079 181.177C246.603 183.043 248.836 184.172 251.068 185.072C254.495 186.454 258.145 187.43 261.837 187.329C265.529 187.228 269.28 185.967 271.91 183.369C269.763 179.834 266.001 177.468 261.987 176.488Z" fill="#1A5D5B"/>
<path d="M251.619 166C250.846 170.064 248.74 173.796 246.016 176.907C244.65 178.468 242.979 179.963 240.925 180.237L240.347 179.466C239.284 177.303 239.184 174.8 239.291 172.392C239.457 168.697 240.082 164.965 241.704 161.641C243.326 158.318 246.028 155.423 249.478 154.103C251.8 157.526 252.39 161.934 251.618 165.998L251.619 166Z" fill="#1A5D5B"/>
<path d="M264.764 155.312C264.614 159.447 263.096 163.455 260.874 166.944C259.759 168.693 258.334 170.424 256.345 171.006L255.656 170.331C254.278 168.355 253.801 165.896 253.545 163.499C253.15 159.821 253.205 156.037 254.307 152.507C255.409 148.976 257.642 145.705 260.854 143.878C263.665 146.909 264.915 151.178 264.765 155.312H264.764Z" fill="#1A5D5B"/>
<path d="M274.696 138.063C275.585 142.104 275.117 146.365 273.838 150.3C273.196 152.275 272.249 154.306 270.469 155.369L269.634 154.887C267.806 153.319 266.728 151.058 265.88 148.803C264.578 145.341 263.686 141.665 263.87 137.969C264.053 134.275 265.397 130.548 268.049 127.974C271.529 130.204 273.806 134.023 274.696 138.063Z" fill="#1A5D5B"/>
<path d="M279.595 120.033C281.521 123.694 282.196 127.927 282.004 132.06C281.908 134.132 281.531 136.345 280.096 137.841L279.163 137.599C276.986 136.572 275.348 134.677 273.935 132.727C271.765 129.734 269.931 126.425 269.131 122.814C268.331 119.203 268.642 115.252 270.518 112.066C274.464 113.293 277.67 116.372 279.595 120.032V120.033Z" fill="#1A5D5B"/>
<path d="M286.92 104.992C288.042 108.974 287.822 113.256 286.775 117.258C286.249 119.265 285.421 121.35 283.706 122.515L282.844 122.083C280.928 120.625 279.721 118.43 278.743 116.228C277.243 112.848 276.138 109.229 276.107 105.53C276.075 101.832 277.201 98.0323 279.698 95.3076C283.302 97.3307 285.798 101.01 286.92 104.992Z" fill="#1A5D5B"/>
<path d="M275.998 162.021C271.87 161.874 267.769 163.105 264.135 165.075C262.313 166.063 260.488 167.364 259.766 169.309L260.389 170.045C262.259 171.562 264.675 172.215 267.043 172.644C270.677 173.301 274.45 173.516 278.045 172.667C281.64 171.819 285.057 169.822 287.107 166.745C284.288 163.719 280.127 162.167 275.998 162.021Z" fill="#1A5D5B"/>
<path d="M286.393 145.179C282.295 145.702 278.447 147.58 275.179 150.112C273.541 151.383 271.948 152.961 271.549 154.997L272.283 155.622C274.373 156.818 276.862 157.071 279.268 157.11C282.961 157.171 286.718 156.772 290.13 155.354C293.541 153.935 296.591 151.411 298.118 148.044C294.849 145.514 290.491 144.654 286.393 145.177V145.179Z" fill="#1A5D5B"/>
<path d="M291.97 125.051C288.105 126.513 284.798 129.235 282.206 132.457C280.907 134.074 279.724 135.979 279.808 138.053L280.667 138.491C282.977 139.167 285.456 138.835 287.807 138.314C291.413 137.514 294.975 136.253 297.964 134.081C300.954 131.908 303.335 128.744 304.039 125.113C300.273 123.412 295.834 123.589 291.97 125.052V125.051Z" fill="#1A5D5B"/>
<path d="M290.14 106.283C287.078 109.061 284.995 112.806 283.761 116.755C283.142 118.736 282.738 120.943 283.575 122.842L284.534 122.935C286.931 122.718 289.118 121.499 291.114 120.152C294.177 118.086 297.031 115.607 299.019 112.49C301.007 109.372 302.067 105.554 301.395 101.917C297.269 101.716 293.203 103.506 290.141 106.284L290.14 106.283Z" fill="#1A5D5B"/>
<path d="M237.323 220.877C243.089 221.764 249.153 220.552 254.138 217.516C255.384 216.758 256.606 215.84 257.267 214.539C258.011 213.07 257.924 211.257 257.227 209.766C256.53 208.274 255.273 207.09 253.842 206.278C255.543 206.304 257.331 206.306 259.002 205.985C260.672 205.664 262.317 204.969 263.499 203.744C264.682 202.519 265.331 200.708 264.904 199.059C264.591 197.852 263.707 196.807 262.569 196.3C266.102 195.107 269.073 192.528 270.763 189.2C271.392 187.958 271.849 186.542 271.552 185.181C271.107 183.141 268.972 181.757 266.887 181.746C264.802 181.735 262.842 182.866 261.396 184.371C259.951 185.876 258.942 187.738 257.951 189.575C257.503 187.367 256.202 185.124 254.063 184.425C251.98 183.745 249.634 184.676 248.077 186.221C246.52 187.766 245.605 189.831 244.797 191.871C244.147 189.963 243.579 187.893 241.984 186.664C240.772 185.733 239.173 185.384 237.65 185.53C236.128 185.676 234.678 186.287 233.386 187.104C230.771 188.758 228.749 191.266 227.423 194.066C226.096 196.866 225.442 199.951 225.227 203.042C225.031 205.845 225.2 208.72 226.195 211.347C227.939 215.953 232.463 220.129 237.324 220.877H237.323Z" fill="#64BFBA"/>
<path d="M239.921 191.228C239.488 196.49 239.317 201.771 239.401 207.049C241.375 205.793 243.331 204.511 245.267 203.198C248.387 201.085 251.458 198.898 254.48 196.642C254.48 196.641 254.48 196.641 254.48 196.64C254.374 194.056 254.488 191.465 254.821 188.901C254.866 188.556 255.398 188.651 255.353 188.996C255.04 191.401 254.926 193.826 255.007 196.249C256.238 195.325 257.461 194.391 258.674 193.445C261.134 191.525 263.559 189.558 265.944 187.547C266.21 187.324 266.518 187.769 266.254 187.991C262.027 191.554 257.682 194.977 253.225 198.248C252.36 198.883 251.489 199.512 250.615 200.135C253.663 200.192 256.705 200.438 259.721 200.882C260.066 200.933 259.969 201.465 259.626 201.414C256.507 200.955 253.361 200.704 250.21 200.664C250.12 200.663 250.052 200.625 250.004 200.571C246.576 203.004 243.087 205.35 239.539 207.604C238.463 208.288 237.381 208.961 236.295 209.627C240.358 210.787 244.423 211.946 248.487 213.106C248.818 213.2 248.727 213.733 248.392 213.638C244.185 212.437 239.978 211.238 235.771 210.038C235.74 210.029 235.717 210.013 235.694 209.998C234.319 210.837 232.937 211.661 231.546 212.474C231.248 212.647 230.936 212.206 231.237 212.03C233.809 210.529 236.351 208.981 238.867 207.388C238.771 201.966 238.946 196.539 239.39 191.133C239.419 190.786 239.95 190.883 239.922 191.228H239.921Z" fill="#CFFDF7"/>
<path d="M87.1927 85.0832C87.764 83.4452 90.2835 84.3959 89.7122 86.0371C84.3572 101.404 84.0942 118.47 89.3553 133.91C94.044 147.669 102.818 159.829 114.327 168.672C115.699 169.726 114.139 171.926 112.759 170.865C93.1976 155.833 81.8962 131.96 82.9195 107.251C83.2322 99.6927 84.7052 92.2214 87.1938 85.0832H87.1927Z" fill="#1A5D5B"/>
<path d="M84.7218 145.174C88.7674 146.01 92.4615 148.178 95.5247 150.954C97.0619 152.346 98.5272 154.042 98.7692 156.104L97.9901 156.671C95.8154 157.703 93.3135 157.764 90.9112 157.619C87.2247 157.395 83.5084 156.71 80.2165 155.033C76.9234 153.358 74.0757 150.607 72.8115 147.132C76.2648 144.861 80.6751 144.337 84.7218 145.174Z" fill="#1A5D5B"/>
<path d="M98.579 140.148C97.5369 144.152 97.843 148.428 98.9712 152.408C99.537 154.405 100.407 156.472 102.145 157.602L102.998 157.153C104.884 155.656 106.047 153.436 106.98 151.215C108.412 147.805 109.443 144.165 109.401 140.467C109.358 136.768 108.156 132.993 105.604 130.318C102.041 132.413 99.621 136.143 98.579 140.147V140.148Z" fill="#1A5D5B"/>
<path d="M91.2769 124.848C89.6425 128.649 89.2989 132.922 89.8127 137.027C90.0702 139.086 90.6183 141.261 92.1654 142.641L93.0759 142.327C95.1667 141.132 96.6508 139.115 97.9083 137.061C99.8388 133.908 101.408 130.465 101.924 126.803C102.44 123.14 101.822 119.226 99.704 116.196C95.8662 117.728 92.9102 121.048 91.2747 124.847L91.2769 124.848Z" fill="#1A5D5B"/>
<path d="M89.6876 105.003C87.1548 108.272 85.7536 112.322 85.2243 116.426C84.9591 118.484 84.9447 120.728 86.0984 122.452L87.0587 122.376C89.3815 121.744 91.3231 120.163 93.0547 118.49C95.7123 115.921 98.0926 112.983 99.5082 109.565C100.924 106.149 101.304 102.205 100.011 98.7397C95.9124 99.2599 92.2204 101.732 89.6876 105.001V105.003Z" fill="#1A5D5B"/>
<path d="M92.9797 86.6086C89.6734 89.0888 87.25 92.6236 85.6554 96.4406C84.8554 98.3552 84.2487 100.514 84.9051 102.483L85.851 102.665C88.2578 102.671 90.5475 101.662 92.6603 100.508C95.9026 98.7359 98.9746 96.5335 101.243 93.614C103.512 90.6946 104.922 86.9927 104.59 83.3085C100.501 82.723 96.286 84.1285 92.9797 86.6086Z" fill="#1A5D5B"/>
<path d="M92.7998 69.8757C90.0813 72.991 88.447 76.953 87.68 81.019C87.2955 83.0587 87.1507 85.2975 88.2027 87.0859L89.1663 87.066C91.5212 86.5713 93.5512 85.1061 95.3778 83.5368C98.1802 81.1275 100.727 78.3319 102.34 75.0041C103.952 71.6763 104.561 67.7607 103.471 64.2271C99.3494 64.507 95.5193 66.7603 92.8009 69.8757H92.7998Z" fill="#1A5D5B"/>
<path d="M78.2571 126.086C82.0496 127.727 85.2277 130.599 87.6666 133.939C88.8899 135.615 89.9816 137.572 89.8015 139.641L88.9241 140.038C86.5858 140.606 84.1238 140.159 81.801 139.529C78.2361 138.562 74.7364 137.136 71.8511 134.827C68.9658 132.517 66.7336 129.246 66.1987 125.586C70.0399 124.063 74.4656 124.446 78.2582 126.087L78.2571 126.086Z" fill="#1A5D5B"/>
<path d="M76.0748 106.408C79.5535 108.64 82.2255 111.989 84.0941 115.68C85.0312 117.531 85.7937 119.64 85.2821 121.651L84.3516 121.901C81.9525 122.084 79.5944 121.244 77.4041 120.247C74.0415 118.716 70.818 116.743 68.3427 113.997C65.8685 111.252 64.1921 107.662 64.2551 103.963C68.2919 103.081 72.5972 104.175 76.0748 106.408Z" fill="#1A5D5B"/>
<path d="M79.6516 85.8295C82.517 88.8098 84.3404 92.6888 85.3029 96.7128C85.7858 98.7314 86.0377 100.96 85.0741 102.797L84.1105 102.824C81.7347 102.443 79.6362 101.079 77.7366 99.5991C74.8215 97.3281 72.1428 94.6599 70.3714 91.4128C68.6011 88.1668 67.8033 84.2856 68.7216 80.7021C72.8523 80.7829 76.7862 82.848 79.6516 85.8284V85.8295Z" fill="#1A5D5B"/>
<path d="M89.3402 69.6591C90.9182 73.4827 91.1966 77.7612 90.6209 81.8582C90.3325 83.9134 89.7523 86.0803 88.1843 87.4371L87.2781 87.1095C85.2062 85.8844 83.7519 83.8448 82.5253 81.7719C80.6423 78.5902 79.1251 75.124 78.6631 71.4541C78.2023 67.7843 78.8786 63.8799 81.0423 60.8818C84.857 62.4711 87.7632 65.8354 89.3402 69.6591Z" fill="#1A5D5B"/>
<path d="M78.8782 158.383C79.2882 157.168 79.6982 155.954 80.1082 154.739C75.7078 152.369 71.0401 150.498 66.2166 149.193C64.0462 148.605 61.7742 148.181 59.4912 148.004C58.9906 148.889 58.49 149.773 57.9883 150.656C58.1198 149.754 58.2071 148.846 58.2558 147.935C55.7959 147.843 53.3405 148.052 51 148.676C54.6135 157.779 60.0603 166.137 66.873 173.164C68.1195 172.531 69.366 171.898 70.6124 171.266C70.0246 172.554 69.4367 173.843 68.8488 175.131C70.8191 177.017 72.8866 178.801 75.0537 180.457C81.6751 185.519 89.1585 189.439 97.0718 192.046C97.631 191.302 98.1901 190.557 98.7493 189.813C98.6476 190.703 98.5459 191.594 98.4443 192.485C102.864 193.847 107.41 194.801 112.005 195.318C110.119 188.364 107.162 181.705 103.206 175.714C102.254 176.108 101.302 176.502 100.35 176.896C100.93 175.954 101.509 175.013 102.087 174.072C100.078 171.226 97.8365 168.545 95.3656 166.075C91.2084 161.917 86.4788 158.342 81.3668 155.444C80.5369 156.424 79.7081 157.405 78.8782 158.385V158.383Z" fill="#21827E"/>
<path d="M56.3232 152.739C61.8176 158.854 67.7462 164.57 74.0483 169.844C80.3459 175.115 87.0182 179.94 93.9978 184.264C97.9362 186.705 101.972 188.985 106.094 191.099C106.514 191.315 106.915 190.692 106.491 190.475C99.2114 186.738 92.1987 182.485 85.5187 177.754C78.821 173.009 72.4603 167.789 66.503 162.139C63.1602 158.97 59.9467 155.665 56.8669 152.238C56.5476 151.882 56.0039 152.385 56.3221 152.739H56.3232Z" fill="#CFFDF7"/>
<path d="M65.4627 209.592C62.4946 207.8 59.5264 205.554 58.3373 202.293C56.9019 198.358 58.5694 193.705 61.7652 191.002C64.9599 188.298 69.3901 187.374 73.5517 187.797C77.7133 188.219 81.6561 189.869 85.3536 191.828C89.0511 193.788 92.5718 196.075 96.3279 197.919C105.922 202.628 116.975 204.3 127.53 202.637L123.957 211.561C114.898 216.23 104.638 218.537 94.4548 218.194C84.2718 217.851 74.1893 214.86 65.4627 209.593V209.592Z" fill="#1A5D5B"/>
<path d="M73.9528 207.791C78.8857 207.407 83.7623 206.452 88.482 204.966C85.2486 204.048 82.0661 202.953 78.9531 201.686C78.8924 201.685 78.8327 201.663 78.7841 201.615C77.8216 201.221 76.8657 200.813 75.9176 200.387C71.925 198.591 68.0651 196.501 64.3786 194.137C64.0582 193.932 64.3499 193.414 64.6726 193.621C69.0055 196.398 73.5793 198.792 78.3222 200.782C76.7751 197.9 74.9783 195.156 72.9417 192.596C72.7063 192.3 73.124 191.875 73.3616 192.175C75.5849 194.97 77.5376 197.969 79.1852 201.138C81.3113 202.004 83.4695 202.792 85.6553 203.493C91.1938 205.271 96.9025 206.521 102.677 207.215C99.306 204.411 95.73 201.862 91.9773 199.593C91.6502 199.396 91.943 198.879 92.2712 199.077C96.3013 201.511 100.131 204.269 103.724 207.315C103.731 207.32 103.733 207.328 103.739 207.334C105.309 207.503 106.883 207.634 108.459 207.721C112.788 207.959 117.13 207.882 121.448 207.488C121.829 207.453 121.834 208.048 121.455 208.082C119.169 208.29 116.876 208.407 114.582 208.437C111.289 210.96 107.484 212.757 103.437 213.668C103.064 213.753 102.905 213.179 103.28 213.095C106.988 212.261 110.512 210.677 113.59 208.445C108.415 208.456 103.239 208.022 98.1346 207.153C95.2294 206.659 92.3486 206.022 89.5042 205.25C89.481 205.265 89.4589 205.283 89.4279 205.293C84.4176 206.94 79.2183 207.976 73.9616 208.385C73.5793 208.415 73.5749 207.82 73.955 207.791H73.9528Z" fill="#CFFDF7"/>
<path d="M268.431 145.737V145.842C268.431 146.345 268.424 146.855 268.417 147.358C268.41 147.763 268.402 148.183 268.389 148.594C268.382 149.006 268.368 149.425 268.347 149.83C268.34 150.166 268.319 150.493 268.298 150.815C268.243 151.906 268.166 152.988 268.075 154.064C268.048 154.42 268.012 154.783 267.97 155.139C267.865 156.159 267.747 157.186 267.614 158.213C264.636 180.619 253.749 200.525 237.855 215.025C236.886 215.913 235.882 216.785 234.871 217.637C231.356 220.584 227.625 223.273 223.698 225.69C216.919 229.853 212.769 237.243 212.769 245.213V255.243H136.903V245.213C136.903 237.18 132.663 229.812 125.835 225.6C106.928 213.943 92.4704 195.741 85.6147 174.13C85.6147 174.116 85.6081 174.103 85.6081 174.088C84.6876 171.19 83.9063 168.228 83.2643 165.211C83.2289 165.043 83.1946 164.869 83.1593 164.701C81.8896 158.52 81.2277 152.108 81.2409 145.535C81.3459 93.1154 123.798 51.2987 176.125 52.0114C220.043 52.6046 256.653 83.4904 266.06 124.761C266.066 124.79 266.073 124.818 266.08 124.847C266.294 125.794 266.501 126.746 266.686 127.704C267.076 129.653 267.39 131.615 267.642 133.606C267.733 134.269 267.81 134.933 267.879 135.597C267.955 136.268 268.018 136.939 268.074 137.609C268.137 138.272 268.186 138.95 268.228 139.621C268.234 139.663 268.234 139.705 268.242 139.747C268.276 140.369 268.312 140.99 268.339 141.619V141.653C268.374 142.33 268.396 143.008 268.409 143.693V143.769C268.423 144.425 268.43 145.083 268.43 145.739L268.431 145.737Z" fill="#CFFDF7"/>
<path d="M258.238 145.736C258.238 191.865 220.898 229.261 174.837 229.261C128.777 229.261 91.437 191.865 91.437 145.736C91.437 140.261 91.9619 134.903 92.9786 129.727C96.4197 111.919 105.515 96.1389 118.321 84.3104C133.179 70.5851 153.027 62.2041 174.839 62.2041C196.712 62.2041 216.615 70.6416 231.487 84.4421C231.493 84.4421 231.493 84.4421 231.493 84.4421C244.61 96.6092 253.815 112.944 256.995 131.34C257.817 136.019 258.239 140.829 258.239 145.736H258.238Z" fill="#21827E"/>
<path d="M164.892 169.198C163.883 169.974 162.363 170.07 161.658 171.129C160.98 172.133 161.381 173.462 161.43 174.673C161.471 175.864 161.154 177.531 160.435 178.508C159.53 179.739 158.403 180.646 158.237 182.279C158.189 182.771 158.237 183.275 158.093 183.747C157.774 184.744 156.655 185.255 155.619 185.38C154.582 185.505 153.518 185.346 152.488 185.546C151.465 185.754 150.415 186.48 150.345 187.525C150.269 188.633 151.299 189.678 150.974 190.737C150.794 191.318 150.256 191.698 149.882 192.176C149.281 192.959 149.122 193.983 148.839 194.931C148.272 196.82 147.125 198.53 145.605 199.783C145.28 200.053 144.796 200.261 144.513 200.559C144.167 200.925 143.939 201.555 143.71 201.998C143.171 203.051 142.723 204.137 142.453 205.286C141.631 208.843 142.771 212.789 145.348 215.371C146.047 216.062 146.91 216.845 146.786 217.821C146.599 219.254 144.651 219.495 143.22 219.365C141.472 219.199 139.681 219.026 138.112 218.229C136.551 217.434 135.245 215.862 135.292 214.111C135.326 213.059 135.817 212.021 135.603 210.997C135.299 209.599 133.813 208.817 132.444 208.402C131.069 207.993 129.549 207.696 128.609 206.609C127.428 205.252 127.634 203.142 128.367 201.487C129.099 199.84 130.261 198.393 130.875 196.697C131.463 195.07 131.511 193.306 131.559 191.576C131.621 189.229 131.684 186.876 131.739 184.524C131.781 182.967 131.788 181.118 130.752 179.844C130.15 179.097 129.356 179.097 128.513 178.758C127.642 178.411 126.833 177.928 126.032 177.456C125.382 177.076 124.739 176.695 124.09 176.314C123.427 175.92 122.742 175.511 122.238 174.93C121.727 174.341 121.409 173.539 121.595 172.784C121.816 171.918 122.659 171.24 122.653 170.348C122.639 169.718 122.19 169.171 121.644 168.853C121.104 168.534 120.476 168.41 119.875 168.251C118.734 167.96 117.532 167.496 116.903 166.507C116.206 165.42 116.378 164.008 116.578 162.735C116.786 161.42 117.117 159.911 118.305 159.309C118.699 159.108 119.148 159.032 119.542 158.83C120.005 158.595 120.213 158.111 120.551 157.744C120.973 157.273 121.477 156.92 121.836 156.394C122.451 155.494 122.811 154.373 122.569 153.32C122.327 152.261 121.366 151.34 120.288 151.376C119.051 151.417 117.938 152.594 116.756 152.241C115.885 151.986 115.45 150.995 115.353 150.089C115.257 149.189 115.394 148.255 115.145 147.383C114.737 145.95 113.238 144.919 111.758 145.05C111.329 145.091 110.908 145.216 110.479 145.216C110.051 145.209 109.581 145.043 109.388 144.655C109.022 143.914 109.754 143.07 109.588 142.281C109.449 141.602 108.98 141.396 108.343 141.249C106.498 140.813 104.55 141.519 102.732 140.89C101.309 140.398 100.279 139.167 99.3316 137.997C98.1702 136.565 97.0165 135.132 95.8551 133.706C94.8318 132.432 93.7887 131.132 92.9731 129.726C96.4143 111.919 105.51 96.1381 118.315 84.3097C119.062 84.3993 119.808 84.4823 120.554 84.5731C123.332 84.8918 128.543 86.7743 130.043 83.1886C130.292 82.6076 130.375 81.9635 130.576 81.3614C130.776 80.7594 131.143 80.1573 131.723 79.9083C132.538 79.5697 133.492 80.04 134.087 80.6908C134.681 81.3482 135.061 82.1715 135.641 82.8433C136.215 83.5151 137.12 84.0408 137.963 83.7707C138.847 83.4874 139.069 82.5943 139.719 82.0476C140.507 81.3825 141.198 81.0372 141.813 80.1308C142.408 79.2653 143.244 78.3103 144.281 78.463C145.124 78.588 145.67 79.4048 146.409 79.8408C147.114 80.2625 147.97 80.3178 148.786 80.3665C150.03 80.4362 151.53 80.1662 152.428 81.1146C153.541 82.2911 154.675 83.4608 155.801 84.6306C156.368 85.2194 156.948 85.8281 157.218 86.5895C157.494 87.3575 157.377 88.327 156.733 88.8184C155.635 89.6495 153.728 88.742 152.849 89.7945C152.338 90.4176 152.531 91.345 152.324 92.1197C151.696 94.5212 148.986 94.0641 147.431 92.8811C146.505 92.1684 145.876 91.1779 145.662 90.0225C145.406 88.5893 146.622 87.559 146.816 86.1955C146.975 85.0744 146.429 83.7663 145.337 83.4686C144.591 83.2605 143.782 83.5726 143.202 84.085C142.622 84.5974 142.221 85.2825 141.841 85.9542C141.142 87.1661 140.445 88.3768 139.753 89.5875C139.214 90.5293 138.454 91.5951 137.369 91.5398C136.74 91.5055 136.207 91.0761 135.676 90.7297C134.66 90.0789 133.119 90.3213 131.937 90.3556C130.824 90.3833 129.595 90.5836 128.938 91.594C127.984 93.0615 129.028 94.965 130.051 96.3904C130.935 97.6288 131.861 98.9026 133.175 99.6784C133.846 100.08 135.981 100.904 136.002 99.3951C136.008 98.9735 135.774 98.5928 135.532 98.2464C135.29 97.9077 135.02 97.5547 134.952 97.1452C134.786 96.2244 135.636 95.4353 136.493 95.0757C137.351 94.716 138.331 94.5566 139.023 93.9402C139.707 93.3381 140.004 92.3897 140.703 91.802C141.635 91.0196 143.073 91.1026 144.137 91.698C145.201 92.2934 145.961 93.3038 146.645 94.3143C147.123 95.0137 147.765 96.1481 148.58 96.5011C149.375 96.8475 150.392 96.3141 151.138 96.8121C151.393 96.9847 151.552 97.2625 151.698 97.5314C152.009 98.0992 152.327 98.6736 152.638 99.2413C153.398 100.619 153.902 101.934 153.717 103.54C153.655 104.128 153.468 104.695 153.405 105.284C153.329 106.011 153.681 106.696 153.585 107.402C153.516 107.934 153.095 108.364 152.611 108.6C152.127 108.835 151.587 108.904 151.056 108.967C150.393 109.05 148.934 109.237 148.499 108.524C148.133 107.929 148.72 106.482 148.734 105.804C148.748 104.849 148.119 103.915 147.234 103.575C146.343 103.229 145.258 103.492 144.629 104.211C144 104.924 143.868 106.039 144.325 106.876C144.754 107.672 145.61 108.178 145.984 109.001C147.054 111.361 143.724 113.396 141.92 111.79C141.513 111.424 141.236 110.932 140.849 110.544C140.463 110.157 139.875 109.872 139.371 110.094C138.901 110.302 138.694 110.876 138.7 111.387C138.715 111.906 138.887 112.404 138.955 112.923C139.017 113.436 138.941 114.017 138.554 114.357C137.241 115.52 135.182 113.146 133.924 114.446C132.894 115.512 133.289 117.36 131.823 118.128C130.725 118.703 129.26 118.114 128.202 118.758C127.408 119.243 127.138 120.239 126.668 121.042C126.385 121.519 126.019 121.935 125.583 122.274C124.975 122.759 123.967 122.78 123.655 123.61C123.33 124.467 123.98 125.977 124.173 126.862C124.29 127.402 124.401 127.998 124.146 128.496C123.759 129.264 122.66 129.472 122.314 130.254C121.955 131.064 122.57 132.116 122.079 132.856C121.706 133.431 120.801 133.458 120.261 133.029C119.73 132.607 119.522 131.873 119.529 131.188C119.535 130.503 119.73 129.838 119.854 129.161C119.978 128.489 120.033 127.77 119.771 127.14C119.391 126.198 118.422 125.659 117.517 125.188C117.061 124.952 116.598 124.711 116.094 124.627C115.589 124.537 115.023 124.633 114.656 125.001C114 125.652 114.214 126.87 113.53 127.5C112.943 128.04 112.016 127.853 111.25 127.625C110.205 127.321 109.494 127.41 108.506 127.819C107.677 128.165 106.834 128.517 106.101 129.044C104.345 130.296 103.378 132.684 104.069 134.733C104.767 136.775 107.276 138.096 109.253 137.239C110.185 136.83 110.89 136.048 111.727 135.467C113.088 134.512 115.611 134.533 115.597 136.768C115.59 138.651 112.887 138.575 113.779 140.782C113.98 141.28 114.235 141.835 114.747 142.001C115.639 142.292 116.544 141.171 117.436 141.461C118.009 141.648 118.264 142.354 118.175 142.949C118.079 143.545 117.74 144.07 117.47 144.604C117.2 145.144 116.986 145.767 117.173 146.341C117.456 147.207 118.914 147.981 119.751 148.162C120.946 148.425 122.308 147.934 123.393 147.462C126.129 146.265 128.873 145.068 131.61 143.863C133.096 143.22 134.762 142.555 136.289 143.102C137.685 143.593 138.555 144.95 139.322 146.216C140.497 148.161 141.368 150.043 143.317 151.262C145.57 152.681 147.526 154.674 149.544 156.405C151.292 157.906 153.089 159.429 155.238 160.26C156.952 160.918 158.804 161.098 160.588 161.534C162.37 161.97 164.182 162.746 165.26 164.233C166.331 165.729 166.352 168.089 164.894 169.202L164.892 169.198Z" fill="#1A5D5B"/>
<path d="M178.195 87.453C180.776 87.1122 182.737 85.0327 184.42 83.044C186.103 81.0552 187.931 78.906 190.47 78.3305C191.954 77.9941 193.756 78.1357 194.7 76.9394C198.127 72.5912 185.574 72.1883 183.883 72.112C182.294 72.04 180.699 72.0555 179.114 72.2038C177.297 72.3743 175.499 72.7195 173.705 73.0648C168.392 74.0863 163.08 75.1078 157.767 76.1293C156.796 76.3163 155.648 76.655 155.374 77.6078C155.186 78.2597 155.522 78.9713 156.03 79.4184C156.538 79.8666 157.191 80.1057 157.828 80.3359C159.637 80.9877 161.446 81.6407 163.255 82.2925C163.953 82.5448 164.752 82.9045 164.911 83.6316C165.095 84.4716 164.313 85.1732 163.658 85.7299C162.226 86.9473 160.97 88.5586 160.812 90.4334C160.65 92.3413 161.772 94.2947 163.5 95.1136C165.228 95.9326 167.447 95.5629 168.819 94.2272C170.746 92.3491 171.049 88.905 173.514 87.8293C174.96 87.1985 176.634 87.66 178.196 87.453H178.195Z" fill="#1A5D5B"/>
<path d="M240.173 124.12C240.629 125.795 242.543 126.764 242.985 128.438C243.165 129.123 243.082 129.851 243.185 130.557C243.289 131.256 243.69 132.003 244.387 132.148C245.355 132.342 246.108 131.283 247.068 131.048C247.697 130.889 248.374 131.118 248.899 131.498C249.424 131.879 249.832 132.398 250.227 132.911C251.851 132.468 253.695 132.938 254.912 134.101C255.624 134.793 256.114 135.971 255.5 136.752C254.788 137.666 253.281 137.243 252.272 137.811C251.076 138.475 250.89 140.302 249.653 140.884C248.547 141.41 247.158 140.663 246.038 141.148C245.099 141.55 244.684 142.643 243.944 143.349C242.763 144.477 240.641 144.38 239.569 143.149C238.864 142.345 238.637 141.239 238.339 140.207C237.918 138.761 237.303 137.37 236.515 136.082C236.177 135.515 235.782 134.996 235.457 134.421C235.202 133.971 234.407 132.919 234.407 132.407C233.778 131.21 233.079 130.054 232.423 128.891C231.801 127.777 231.656 126.579 230.626 125.7C229.955 125.126 229.099 124.828 228.277 124.517C227.455 124.206 226.612 123.853 226.01 123.209C225.409 122.566 225.112 121.555 225.541 120.787C225.934 120.074 226.805 119.776 227.607 119.707C228.416 119.645 229.238 119.749 230.033 119.583C231.505 119.278 232.694 117.222 230.42 117.396C228.858 117.513 227.303 117.624 225.768 117.866C224.607 118.047 223.419 117.686 222.797 116.628C222.521 116.157 222.423 115.603 222.217 115.098C222.002 114.593 221.609 114.102 221.07 114.039C220.358 113.956 219.778 114.683 219.681 115.389C219.577 116.095 219.806 116.808 219.902 117.514C219.999 118.227 219.936 119.044 219.397 119.514C218.768 120.061 217.731 119.874 217.137 119.293C216.542 118.705 216.308 117.846 216.238 117.016C216.162 116.186 216.211 115.342 216.066 114.517C215.858 113.39 215.293 112.365 214.739 111.368C214.525 110.987 214.31 110.606 213.985 110.315C213.66 110.032 213.212 109.851 212.796 109.969C212.07 110.17 211.836 111.132 212.064 111.851C212.299 112.564 212.837 113.132 213.217 113.776C213.639 114.495 213.867 115.333 213.853 116.171C213.846 116.987 213.583 117.853 212.94 118.351C212.298 118.849 211.226 118.815 210.777 118.136C210.418 117.596 210.556 116.945 210.625 116.343C210.714 115.624 210.631 114.993 210.542 114.28C210.425 113.353 210.41 112.447 210.1 111.56C209.692 110.418 209.091 109.297 207.861 108.937C206.956 108.667 205.809 108.841 205.332 109.747C204.896 110.577 205.242 111.436 205.138 112.302C205.042 113.146 204.309 113.208 203.77 112.516C203.46 112.122 203.294 111.61 202.914 111.278C202.416 110.835 201.642 110.808 201.041 111.091C200.433 111.382 199.99 111.929 199.679 112.516C199.071 113.686 198.926 115.043 198.539 116.309C198.152 117.575 197.392 118.87 196.134 119.272C195.457 119.486 194.711 119.41 194.027 119.604C192.458 120.046 191.47 121.784 189.873 122.103C188.622 122.358 187.288 121.577 186.736 120.42C186.19 119.272 186.37 117.846 187.04 116.759C187.358 116.247 187.772 115.798 188.091 115.285C188.409 114.773 188.623 114.15 188.484 113.562C188.291 112.759 187.475 112.178 187.399 111.354C187.316 110.414 188.318 109.652 189.265 109.652C190.212 109.646 191.076 110.171 191.85 110.711C192.506 111.162 193.273 111.66 194.027 111.417C194.683 111.203 195.042 110.503 195.326 109.874C195.562 109.348 195.804 108.759 195.63 108.212C195.34 107.244 194.621 107.749 194.027 107.811C193.371 107.873 192.334 107.326 192.341 106.586C192.341 106.109 192.755 105.741 193.177 105.513C193.613 105.277 194.097 105.119 194.525 104.862C194.954 104.613 195.341 104.226 195.43 103.735C195.589 102.911 194.884 102.199 194.545 101.429C193.951 100.1 194.607 98.3561 195.921 97.7408C197.242 97.1243 198.996 97.7474 199.632 99.0555C199.984 99.7826 200.074 100.675 200.889 101.042C201.684 101.388 202.616 100.959 203.419 100.834C205.084 100.564 206.819 100.606 208.491 100.53C210.101 100.46 211.711 100.391 213.314 100.232C214.655 100.094 216.024 99.8856 217.184 99.2005C218.346 98.5155 219.257 97.2693 219.181 95.9203C219.105 94.5634 218.083 93.4567 217.716 92.1409C217.35 90.8328 218.379 88.9713 219.623 89.5036C218.034 87.8358 214.8 89.2059 214.378 91.4758C213.963 93.7113 215.393 96.5068 213.715 98.023C212.54 99.0887 210.701 98.6184 209.216 98.0927C206.555 97.152 203.902 96.2102 201.247 95.2618C200.909 93.6427 201.572 91.9395 202.615 90.659C203.659 89.3719 205.062 88.4301 206.437 87.5171C208.136 86.375 209.83 85.2406 211.53 84.1051C212.961 83.15 214.439 82.1739 216.126 81.801C219.159 81.137 222.47 82.3621 225.407 83.0538C227.425 83.5319 229.443 84.0642 231.482 84.4449C231.488 84.4449 231.488 84.4449 231.488 84.4449C244.605 96.6119 253.81 112.947 256.989 131.342C256.671 131.232 256.354 131.079 256.057 130.872C255.303 130.353 254.633 129.654 253.748 129.405C253.168 129.239 252.553 129.294 251.951 129.239C250.127 129.066 249.042 127.612 247.294 127.349C245.04 127.017 244.709 125.28 243.286 123.882C242.685 123.293 241.848 121.979 240.867 122.304C240.189 122.525 239.983 123.425 240.168 124.125L240.173 124.12Z" fill="#1A5D5B"/>
<path d="M247.333 145.313C246.465 145.701 245.838 146.518 244.962 146.886C243.644 147.442 242.148 146.861 240.839 146.285C238.806 145.392 234.495 144.095 233.791 141.782C232.819 138.587 232.557 134.923 231.936 131.628C231.721 130.492 231.405 129.209 230.39 128.659C229.26 128.048 227.742 128.635 226.648 127.963C225.597 127.318 225.45 125.859 224.736 124.853C224.018 123.839 222.727 123.345 221.486 123.335C220.245 123.326 219.04 123.742 217.906 124.249C216.906 124.696 215.868 125.232 214.779 125.113C213.506 124.975 212.514 123.985 211.634 123.055C211.251 122.65 210.869 122.246 210.485 121.841C209.597 120.9 208.446 119.96 207.781 118.855C207.2 117.887 206.799 117.137 205.433 117.22C204.39 117.283 203.453 117.848 202.563 118.395C200.597 119.606 198.632 120.818 196.666 122.029C195.474 122.763 194.237 123.514 192.85 123.69C190.734 123.959 188.281 122.924 186.614 124.258C185.29 125.318 185.245 127.33 184.26 128.712C183.432 129.874 182.043 130.461 180.814 131.183C179.585 131.907 178.362 133.006 178.323 134.434C178.288 135.726 179.25 137.01 178.816 138.228C178.45 139.255 177.264 139.715 176.585 140.566C175.614 141.781 175.837 143.562 176.387 145.017C177.705 148.507 180.683 151.324 184.237 152.442C187.791 153.561 191.843 152.957 194.917 150.851C195.732 150.293 196.491 149.63 197.406 149.26C198.321 148.891 199.469 148.88 200.194 149.549C200.947 150.244 201.046 151.464 201.828 152.125C202.799 152.947 204.313 152.534 205.477 153.04C206.273 153.385 206.853 154.183 206.936 155.047C207.068 156.421 205.781 156.863 206.449 158.066C207.111 159.261 208.033 160.183 208.496 161.515C208.938 162.784 209.029 164.144 209.117 165.484C209.165 166.217 209.214 166.95 209.261 167.682C209.377 169.451 209.492 171.233 209.252 172.988C208.976 175.012 208.231 176.975 208.215 179.019C208.197 181.203 209.01 183.298 209.811 185.329C210.714 187.618 211.618 189.908 212.521 192.198C213.199 193.917 213.996 195.774 215.625 196.641C217.656 197.724 220.186 196.837 222.1 195.558C224.9 193.685 227.09 191.05 229.239 188.454C231.526 185.691 233.924 182.65 234.084 179.065C234.162 177.313 233.715 175.423 234.572 173.893C235.292 172.608 236.79 171.893 237.459 170.582C238.733 168.082 236.386 165.186 236.564 162.385C236.685 160.48 238.001 158.821 239.588 157.765C241.176 156.708 243.029 156.145 244.83 155.524C246.633 154.902 248.457 154.183 249.861 152.892C251.265 151.602 252.178 149.614 251.709 147.764C251.241 145.914 249.068 144.532 247.328 145.31L247.333 145.313Z" fill="#1A5D5B"/>
<path d="M215.874 170.193H142.093V122.616H215.874V170.193Z" fill="#5D1D1D"/>
<path d="M215.874 122.615L213.363 120.1L139.581 167.677L142.093 170.192L215.874 122.615Z" fill="#5D1D1D"/>
<path d="M213.363 167.677H139.581V120.1H213.363V167.677Z" fill="#AF3B3B"/>
<path d="M198.379 153.069H154.565V134.708H198.379V153.069Z" fill="#5D1D1D"/>
<path d="M198.379 148.037L154.565 153.07V134.708L198.379 129.677V148.037Z" fill="#F66262"/>
<path d="M168.324 136.374C167.869 136.194 167.307 136.444 167.067 136.931C166.828 137.418 167.003 137.959 167.458 138.138C169.078 138.778 170.084 140.313 170.084 142.143C170.084 144.85 167.885 147.339 165.183 147.693C162.48 148.048 160.282 146.133 160.282 143.426C160.282 141.595 161.289 139.797 162.909 138.734C163.364 138.435 163.54 137.848 163.3 137.423C163.061 136.998 162.498 136.898 162.043 137.195C159.808 138.663 158.42 141.144 158.42 143.671C158.42 147.406 161.454 150.047 165.183 149.559C168.912 149.071 171.946 145.636 171.946 141.901C171.946 139.375 170.558 137.258 168.323 136.375L168.324 136.374Z" fill="white" fill-opacity="0.8"/>
<path d="M165.183 143.85C165.697 143.782 166.115 143.311 166.115 142.795V136.097C166.115 135.583 165.698 135.22 165.183 135.286C164.669 135.354 164.251 135.825 164.251 136.341V143.039C164.251 143.553 164.668 143.916 165.183 143.849V143.85Z" fill="white" fill-opacity="0.8"/>
<path d="M268.431 145.737V145.842C268.431 146.345 268.424 146.854 268.417 147.358C268.41 147.763 268.402 148.183 268.389 148.594C268.382 149.006 268.368 149.425 268.347 149.83C268.34 150.166 268.319 150.493 268.298 150.815C268.25 151.905 268.173 152.988 268.075 154.064C268.048 154.42 268.012 154.783 267.97 155.139C267.873 156.159 267.76 157.186 267.614 158.213C267.412 159.819 267.154 161.425 266.861 163.024C263.981 178.565 257.111 193.261 247.068 205.449C244.599 208.446 241.942 211.288 239.132 213.963C238.748 214.319 238.316 214.668 237.855 215.024C236.796 215.855 235.623 216.693 234.871 217.636C231.355 220.583 227.625 223.272 223.697 225.689C216.919 229.851 212.768 237.242 212.768 245.211V255.241H136.903V245.211C136.903 237.179 132.663 229.811 125.835 225.598C106.928 213.942 92.4703 195.74 85.6146 174.129C85.6146 174.115 85.608 174.101 85.608 174.087C84.6875 171.189 83.9062 168.227 83.2642 165.21C100.441 185.648 126.56 198.743 155.315 198.743C207.008 198.743 248.916 156.773 248.916 105.002C248.916 98.5559 248.26 92.262 247.026 86.1719C256.742 97.9549 263.638 112.141 266.686 127.703C267.063 129.652 267.383 131.622 267.642 133.605C267.733 134.268 267.81 134.932 267.878 135.596C267.955 136.267 268.018 136.937 268.074 137.608C268.137 138.271 268.186 138.949 268.228 139.62C268.276 140.284 268.312 140.947 268.339 141.618V141.652C268.374 142.329 268.396 143.006 268.409 143.692V143.768C268.423 144.424 268.43 145.082 268.43 145.738L268.431 145.737Z" fill="#AFDFDD"/>
<path d="M180.394 304.306H169.28C166.481 304.306 164.211 302.032 164.211 299.229V288.22H185.463V299.229C185.463 302.032 183.193 304.306 180.394 304.306Z" fill="#F66262"/>
<path d="M198.49 296.882H151.183C144.185 296.882 138.511 291.2 138.511 284.191V250.356H211.162V284.191C211.162 291.2 205.488 296.882 198.49 296.882Z" fill="#5D1D1D"/>
<path d="M185.463 250.355V283.89C185.463 291.065 179.654 296.882 172.489 296.882H199.094C205.759 296.882 211.163 291.47 211.163 284.796V250.355H185.463Z" fill="#E6B3B3"/>
<path d="M213.77 260.687H135.903C133.454 260.687 131.468 258.698 131.468 256.245V251.022C131.468 248.569 133.454 246.58 135.903 246.58H213.77C216.22 246.58 218.205 248.569 218.205 251.022V256.245C218.205 258.698 216.22 260.687 213.77 260.687Z" fill="#AF3B3B"/>
<path d="M211.163 273.618H138.512C136.192 273.618 134.311 271.734 134.311 269.411C134.311 267.087 136.192 265.204 138.512 265.204H211.163C213.484 265.204 215.364 267.087 215.364 269.411C215.364 271.734 213.484 273.618 211.163 273.618Z" fill="#AF3B3B"/>
<path d="M211.163 286.55H138.512C136.192 286.55 134.311 284.666 134.311 282.343C134.311 280.019 136.192 278.136 138.512 278.136H211.163C213.484 278.136 215.364 280.019 215.364 282.343C215.364 284.666 213.484 286.55 211.163 286.55Z" fill="#AF3B3B"/>
<path d="M180.427 150.898C159.533 174.912 127.706 181.386 109.34 165.358C90.9741 149.33 93.0228 116.87 113.917 92.8555C134.811 68.8412 166.638 62.367 185.004 78.3954C203.37 94.4226 201.321 126.883 180.427 150.898Z" fill="white" fill-opacity="0.301961"/>
<path d="M201.649 210.471C183.407 207.042 165.091 210.455 147.015 213.243C129.902 215.882 111.784 217.866 95.2405 211.41C81.3345 205.983 69.8762 193.414 70.5536 177.744C70.9316 169.017 75.6148 162.623 82.0583 158.122C81.6484 155.011 81.3909 151.851 81.2936 148.649C71.2852 154.413 63.5907 163.623 62.3409 175.716C60.8292 190.349 68.706 204.36 80.3057 212.776C93.626 222.439 110.877 224.832 126.921 223.943C147.365 222.811 167.355 216.815 187.92 217.393C206.334 217.91 223.798 225.278 236.952 238.204C240.8 241.985 246.722 236.064 242.87 232.278C231.614 221.216 217.19 213.393 201.651 210.473L201.649 210.471Z" fill="#0F3634"/>
<path d="M238.019 235.084C224.865 222.158 207.401 214.791 188.988 214.273C168.423 213.695 148.431 219.691 127.988 220.823C111.945 221.712 94.6936 219.32 81.3722 209.655C69.7725 201.24 61.8957 187.228 63.4074 172.595C63.6085 170.645 63.9942 168.778 64.5147 166.98C63.4129 169.697 62.6604 172.61 62.3399 175.716C60.8282 190.35 68.705 204.361 80.3047 212.776C93.625 222.44 110.876 224.833 126.92 223.944C147.364 222.812 167.354 216.816 187.919 217.394C206.333 217.91 223.797 225.279 236.951 238.205C240.03 241.231 244.432 238.042 244.097 234.708C242.651 236.373 240.048 237.077 238.019 235.084Z" fill="#AFDFDD"/>
<path d="M239.979 262.133L255.032 275.266C256.564 276.602 258.887 276.442 260.22 274.909L262.981 271.735C264.315 270.201 264.155 267.874 262.624 266.538L247.571 253.404L239.978 262.133H239.979Z" fill="#21827E"/>
<path d="M241.618 260.248L256.671 273.381C258.203 274.717 260.526 274.558 261.86 273.024L264.621 269.85C265.955 268.316 265.796 265.99 264.264 264.653L249.211 251.52L241.618 260.248ZM261.111 269.58C260.206 270.621 258.629 270.73 257.591 269.822C256.551 268.916 256.442 267.336 257.349 266.296C258.254 265.255 259.831 265.146 260.869 266.054C261.909 266.96 262.017 268.539 261.111 269.58Z" fill="#64BFBA"/>
<path d="M256.372 243.287L271.425 256.422C272.956 257.758 275.279 257.598 276.613 256.064L279.373 252.89C280.707 251.356 280.548 249.03 279.016 247.694L263.963 234.56L256.371 243.289L256.372 243.287Z" fill="#21827E"/>
<path d="M258.011 241.403L273.064 254.538C274.596 255.873 276.919 255.714 278.254 254.18L281.014 251.006C282.348 249.472 282.189 247.146 280.657 245.81L265.604 232.676L258.011 241.404V241.403ZM277.504 250.735C276.599 251.776 275.022 251.885 273.984 250.977C272.944 250.071 272.836 248.492 273.742 247.451C274.647 246.41 276.224 246.301 277.262 247.209C278.301 248.115 278.41 249.695 277.504 250.735Z" fill="#64BFBA"/>
<path d="M261.291 221.585C258.126 218.824 253.325 219.155 250.568 222.325L229.148 246.949C226.39 250.118 226.721 254.927 229.886 257.688L240 266.513L271.405 230.411L261.29 221.586L261.291 221.585Z" fill="#0F3634"/>
<path d="M261.221 221.523C258.094 218.796 253.354 219.123 250.631 222.254L242.274 231.86C245.133 228.573 250.111 228.23 253.393 231.093L263.297 239.733L271.407 230.41L261.221 221.523Z" fill="#AFDFDD"/>
<path d="M274.774 233.948L243.961 269.369C242.845 270.653 240.901 270.787 239.619 269.669L236.932 267.324C235.65 266.206 235.516 264.26 236.633 262.976L267.446 227.555C268.563 226.271 270.507 226.137 271.788 227.256L274.476 229.601C275.758 230.719 275.891 232.667 274.774 233.949V233.948Z" fill="#1A5D5B"/>
<path d="M72.3926 169.521C74.3883 164.831 77.8405 161.069 82.0574 158.123C81.9634 157.41 81.8794 156.695 81.8021 155.978C77.3266 159.429 73.8733 163.889 72.3926 169.521Z" fill="#AFDFDD"/>
</g>
<defs>
<clipPath id="clip0_801_299">
<rect width="253.039" height="252.306" fill="white" transform="translate(51 52)"/>
</clipPath>
</defs>
</svg>
