<svg width="1045" height="665" viewBox="0 0 1045 665" fill="none" xmlns="http://www.w3.org/2000/svg">
<path d="M1039.22 358.27C1027 363.373 1014.78 368.342 1002.83 372.907C996.789 375.19 990.879 377.473 984.971 379.621C971.677 385.798 965.903 387.813 961.875 388.887C959.592 389.021 941.465 397.75 946.03 393.99C941.331 395.332 935.422 397.346 932.602 397.48C931.125 397.077 934.079 393.989 922.128 399.226C902.389 408.626 906.148 405.135 902.791 405.538C903.731 403.523 883.992 412.789 882.247 412.252C874.324 414.266 856.733 421.383 856.464 419.1C846.125 422.189 843.438 421.114 833.635 423.8C817.119 427.157 801.542 429.439 783.549 432.796C767.166 435.213 751.188 437.093 735.611 438.57C328.738 474.826 149.876 163.697 94.5517 37.4723C91.7318 32.2354 88.912 26.8639 86.2264 21.3584C110.128 72.6539 68.5005 128.246 87.1656 177.125C109.053 234.463 134.835 287.101 162.632 334.771C167.332 342.694 171.898 350.482 176.732 358.136C180.223 366.461 185.997 373.444 191.1 380.695C192.443 389.961 201.708 394.795 205.736 402.315C203.185 413.46 212.585 418.026 220.508 423.128C229.37 427.828 224.536 439.779 235.413 443.002C240.65 449.313 248.169 454.281 250.452 462.07C255.421 468.247 260.523 474.29 265.626 480.198C270.729 486.106 275.697 491.88 280.8 497.386C286.708 503.965 286.44 513.5 298.391 516.32C297.048 526.391 313.162 526.66 315.847 534.045C317.324 542.102 331.289 543.041 333.035 550.427C347.134 551.098 338.943 563.586 349.954 565.466C355.326 570.435 370.769 569.63 366.472 579.298C379.497 579.566 377.213 587.757 382.585 591.786C393.059 599.574 403.264 606.557 413.067 612.599C422.198 622.939 420.318 638.247 450.8 635.158C461.005 636.233 466.914 639.455 472.553 642.678C478.059 644.155 487.861 645.23 491.621 649.661C490.413 650.467 489.07 652.078 489.742 653.689C490.413 655.435 492.427 656.106 494.307 656.241C496.187 656.375 498.067 656.241 499.813 656.51C499.41 657.718 499.007 658.926 498.738 660.269C501.155 660.672 503.573 659.463 505.856 658.523C510.018 656.778 514.718 656.107 519.149 656.51C520.358 659.061 523.849 659.329 526.669 659.329C535.263 659.195 544.662 657.852 552.988 659.061C560.776 660.135 568.028 663.626 576.085 663.895C600.927 664.701 625.634 662.955 650.342 660.001C650.745 660.001 660.145 657.315 664.173 655.972C669.813 654.092 675.453 652.212 681.093 650.332C689.15 647.781 697.206 645.095 705.263 642.813C732.119 635.427 757.632 623.61 783.549 613.539C782.743 613.942 781.938 614.345 781.133 614.882C783.415 613.673 785.698 612.465 787.981 611.122C785.295 612.599 782.743 613.942 780.057 615.419L815.508 596.083C808.391 599.843 801.409 603.602 794.292 607.362C853.644 575 903.865 528.136 949.52 478.855C954.623 473.349 960.129 467.978 966.44 463.144C1002.16 434.945 1010.35 420.711 1007.67 411.714C1031.84 387.946 1046.34 368.745 1044.32 357.733C1044.32 357.733 1042.71 358.002 1039.49 358.27H1039.22Z" fill="url(#paint0_linear_283_2600)"/>
<path d="M2.83654 125.96C2.03085 124.214 1.22513 122.603 0.285156 120.991C1.09084 122.737 2.03085 124.348 2.83654 125.96Z" fill="#9BD635"/>
<path d="M94.5391 37.6014C162.083 191.622 413.726 621.188 1039.21 358.265C1028.06 359.474 998.118 362.428 955.282 364.443C933.797 365.517 902.913 369.679 882.1 366.456C840.338 374.648 825.432 366.322 794.01 364.979C783.805 361.354 732.913 379.347 745.669 362.294C737.075 356.788 702.834 364.979 695.314 357.997C670.74 360.414 662.146 353.566 650.329 348.06C638.378 342.689 607.628 347.12 590.708 343.629C568.82 342.823 574.997 326.172 538.741 332.349C520.882 328.455 502.754 324.292 484.626 319.727C463.276 316.907 441.924 313.684 423.662 308.313C416.814 304.419 410.905 299.853 404.326 295.556C397.746 291.259 390.629 287.231 381.229 284.277C358.67 288.439 372.636 272.728 354.642 274.34C353.836 266.551 315.566 279.039 333.425 260.911C329.128 254.734 324.563 248.826 307.778 249.229C321.072 233.384 283.741 244.932 285.352 235.264C206.798 186.385 140.597 121.393 94.6727 37.333L94.5391 37.6014Z" fill="url(#paint1_linear_283_2600)"/>
<path d="M851.083 443.27C839.535 439.913 828.792 435.617 818.855 429.171C894.724 413.997 968.445 389.289 1039.21 358.27H1038.54C984.021 381.635 927.893 400.837 870.42 415.071C871.36 413.594 872.3 412.117 873.105 410.775C874.18 408.626 875.119 406.477 875.925 404.328L880.223 392.512C881.7 388.752 883.31 385.126 885.727 381.769C888.01 378.547 891.233 375.726 894.59 373.981C891.233 375.055 887.607 377.07 884.519 380.292C881.296 383.381 878.745 387.409 876.597 391.169C874.314 395.063 872.435 398.958 870.42 402.449C869.346 404.195 868.405 405.94 867.331 407.283C866.391 408.492 862.095 414.802 860.08 417.622C838.595 422.725 816.842 427.157 794.954 430.648C788.777 431.856 782.466 432.528 776.289 433.334C770.112 434.139 763.801 435.214 757.624 435.751C745.136 436.959 732.647 438.436 720.024 438.973C700.151 440.316 680.143 440.585 660.135 440.048C666.715 428.231 672.086 416.011 678.532 404.463C684.977 392.646 692.9 381.501 703.508 372.907C692.094 380.427 682.963 391.035 675.175 402.449C667.655 413.46 658.792 428.902 651.272 439.779C649.124 439.779 646.841 439.779 644.693 439.51C631.802 438.973 618.776 437.899 606.02 436.422C606.02 436.422 606.019 436.422 605.885 436.422H605.751C593.8 435.079 581.849 433.333 570.032 431.319C545.324 427.022 520.885 421.248 496.983 413.594C495.103 412.923 493.089 412.251 491.209 411.714C500.609 398.42 512.694 387.006 526.391 377.607C541.027 367.536 557.276 359.613 574.464 353.973C557.007 358.404 539.953 364.984 524.376 374.25C509.068 383.246 494.969 394.929 483.689 409.163C440.719 394.392 399.63 374.652 361.494 349.945C355.048 345.782 348.736 341.485 342.425 337.054C352.63 330.474 363.91 325.371 375.861 321.746C388.752 317.717 402.181 315.3 415.743 313.42C402.046 313.957 388.484 315.032 374.922 317.852C361.359 320.672 348.065 325.237 335.711 331.951C303.618 308.855 273.674 282.535 246.414 253.799C233.389 239.968 220.901 225.734 209.084 210.963C214.858 210.426 220.095 209.084 225.332 208.278C231.643 207.338 238.088 206.801 244.131 209.755C241.58 207.741 238.357 206.398 235.134 205.592C231.912 204.787 228.42 204.518 225.198 204.384C219.692 204.115 209.486 203.713 202.907 202.907C185.853 181.019 169.874 158.325 155.237 134.826C142.077 113.61 129.724 91.7217 118.578 69.2967C107.433 47.006 97.2274 23.9094 89.0362 0.678711L77.8906 4.43898C86.6189 28.7439 97.2278 51.5715 108.776 74.2651C120.324 96.8243 132.947 118.847 146.509 140.332C153.76 151.611 161.145 162.757 168.934 173.768C168.934 207.204 171.216 240.908 178.602 273.673C186.121 307.109 199.416 339.471 220.229 366.595C200.49 338.665 188.539 306.169 182.496 272.867C177.125 243.594 175.782 213.784 176.454 183.973C196.059 210.695 217.275 236.074 240.237 259.842C257.962 278.104 276.627 295.426 296.367 311.674C310.869 358.807 325.909 406.343 348.066 450.79C359.211 473.349 372.37 494.969 387.947 514.708C403.523 534.448 421.92 552.039 442.734 566.004C422.323 551.367 404.463 533.373 389.558 513.499C374.518 493.491 362.164 471.738 351.691 449.044C332.488 407.686 319.329 363.91 306.841 319.866C323.223 332.757 340.143 344.842 357.733 355.988C384.187 372.773 411.983 387.14 440.854 399.226L439.914 399.898C467.173 439.645 496.58 478.318 531.225 511.888C548.681 528.539 567.212 544.115 587.489 557.141C607.631 570.435 629.384 581.177 652.078 588.965C629.519 580.506 608.168 569.226 588.563 555.529C568.824 541.967 550.696 526.122 533.91 509.068C502.623 477.109 476.169 440.987 451.596 403.657C465.964 409.297 480.601 414.534 495.372 419.1C519.542 426.62 544.25 432.259 569.227 436.288C579.835 438.033 590.577 439.376 601.32 440.585C617.971 450.656 636.905 464.084 653.556 473.484C671.012 483.286 688.737 492.82 707.268 500.742C725.665 508.665 744.733 515.379 764.338 519.542C783.943 523.839 804.084 525.585 824.092 524.376C804.084 525.047 784.076 522.496 764.874 517.662C745.537 512.828 726.873 505.711 708.88 497.117C690.886 488.658 673.563 478.721 656.509 468.381C642.41 459.787 628.579 450.924 614.748 441.927C624.685 442.867 634.622 443.539 644.693 443.807C669.938 444.747 695.183 444.479 720.428 442.465C733.05 441.793 745.537 440.182 758.16 438.839C764.471 438.168 770.648 437.093 776.959 436.288C783.136 435.348 789.448 434.542 795.625 433.334C800.19 432.528 804.622 431.588 809.187 430.782C820.87 438.034 836.85 445.418 849.741 448.641C863.034 451.864 876.597 453.207 890.025 453.476C917.016 454.013 943.469 450.79 970.191 449.716C943.469 449.581 916.747 451.461 890.159 449.716C877 448.776 863.84 446.896 851.217 443.136L851.083 443.27Z" fill="#95D439"/>
<defs>
<linearGradient id="paint0_linear_283_2600" x1="298.272" y1="329.912" x2="467.696" y2="1056.24" gradientUnits="userSpaceOnUse">
<stop offset="0.19" stop-color="#377603"/>
<stop offset="0.32" stop-color="#3D7B06"/>
<stop offset="0.5" stop-color="#4E8C0E"/>
<stop offset="0.71" stop-color="#6AA71C"/>
<stop offset="0.94" stop-color="#91CC30"/>
<stop offset="0.99" stop-color="#9BD635"/>
</linearGradient>
<linearGradient id="paint1_linear_283_2600" x1="77.5303" y1="759.129" x2="677.677" y2="438.273" gradientUnits="userSpaceOnUse">
<stop offset="0.22" stop-color="#578F15"/>
<stop offset="0.79" stop-color="#95D439"/>
</linearGradient>
</defs>
</svg>
