<svg width="617" height="1465" viewBox="0 0 617 1465" fill="none" xmlns="http://www.w3.org/2000/svg">
<path d="M249.401 805.415C235.57 669.925 229.393 534.704 217.576 399.214C206.297 270.572 164.938 131.591 156.076 0.666992C155.27 1.47268 154.867 2.81546 154.733 4.82968C152.987 40.5485 150.033 74.7902 146.005 107.958C141.976 141.125 137.008 173.084 131.368 203.969C114.18 184.498 118.745 262.381 112.568 294.206C116.731 371.552 97.7976 348.321 91.2178 379.877C90.1435 435.47 78.1923 443.124 69.1954 462.192C66.7784 510.533 64.7639 560.218 47.9788 542.492C50.6644 610.305 33.6106 589.894 29.4479 621.987C30.7907 657.437 34.4165 702.287 20.4512 668.582C7.8288 640.652 17.0946 707.658 13.3348 715.581C10.3806 727.129 6.48582 733.44 4.33732 745.794C2.18882 758.148 1.78646 776.41 5.68062 811.726C6.21775 850.668 -9.35945 810.652 9.30566 912.572C11.1856 930.834 16.4231 961.182 20.7201 985.218C25.0171 1009.25 35.6248 1058.4 26.8965 1020.13C35.3562 1057.46 46.5016 1092.37 59.6612 1124.6C77.252 1176.03 89.6065 1192.28 105.586 1213.23C120.491 1229.88 144.124 1274.06 162.118 1284.26C178.903 1289.1 203.745 1320.12 226.976 1335.96C247.521 1340.12 270.483 1347.24 297.743 1366.58C322.048 1373.02 347.024 1375.71 372.134 1374.37C355.886 1332.74 342.055 1289.5 331.85 1248.14C295.728 1101.37 264.575 955.81 249.401 805.415Z" fill="url(#paint0_linear_283_2592)"/>
<path d="M157.393 0C157.393 0 156.454 0.402811 156.051 0.805655C164.913 131.596 206.271 270.712 217.551 399.353C229.368 534.709 235.679 670.064 249.376 805.554C264.684 955.949 295.837 1101.51 331.825 1248.28C342.03 1289.64 355.727 1332.88 372.109 1374.5C411.588 1372.22 451.604 1360 490.545 1336.23C494.842 1333.68 499.005 1331 503.168 1328.04C520.087 1280.24 550.166 1303.47 563.729 1269.63C575.814 1229.08 596.762 1242.1 600.119 1193.36C599.179 1125.95 624.558 1188.79 611.935 1100.84C622.007 1112.66 612.607 1055.18 598.642 993.682C590.316 957.158 579.708 917.813 567.354 876.723C555 835.633 540.901 792.663 525.458 748.888C510.956 709.006 499.542 687.521 475.908 615.68C474.028 623.469 458.452 571.77 450.798 556.194C456.035 597.015 435.624 525.712 421.525 482.742C416.288 478.445 399.1 422.718 393.863 420.032C393.46 438.429 385 421.509 365.261 355.577C346.461 314.756 327.931 275.814 310.071 239.692C288.183 172.015 290.869 211.896 272.473 159.258C252.465 99.5027 250.853 119.914 243.065 112.394C228.294 74.2579 217.283 52.2357 208.823 40.1504C200.364 28.0651 194.455 26.0507 189.889 28.1992C175.252 8.72837 163.973 -1.34255 157.393 0.268825V0Z" fill="url(#paint1_linear_283_2592)"/>
<path d="M221.347 439.104C220.81 432.524 220.273 426.079 219.736 419.499C234.775 406.34 250.486 393.314 263.109 376.395C269.42 367.935 274.791 358.401 278.417 347.793C282.042 337.185 283.519 325.502 283.116 313.82C282.982 325.502 280.699 336.647 276.537 346.584C272.508 356.521 266.6 365.25 260.02 372.904C247.264 387.675 234.372 398.82 219.064 410.368C217.318 388.346 215.304 366.324 212.484 344.302C206.979 301.197 198.787 259.301 190.596 217.137C197.982 200.352 205.368 181.955 210.336 163.425C215.304 144.491 218.124 124.08 216.781 103.401C217.453 124.08 213.961 144.088 208.456 162.35C203.219 179.807 197.042 195.652 189.523 211.229C186.031 193.504 182.54 175.778 179.183 157.785C167.5 95.2094 160.517 64.4589 156.22 0.80957C156.623 63.3847 167.5 99.1038 178.646 161.813C189.523 222.24 201.205 277.429 208.725 337.587C201.339 334.23 193.953 328.59 187.239 321.474C180.122 313.82 173.543 304.554 167.5 294.752C155.415 275.012 145.612 252.856 136.212 230.431C144.538 253.393 153.401 276.221 164.949 297.437C170.723 308.046 177.034 318.117 184.42 326.979C191.537 335.573 201.07 343.899 209.933 348.464C213.424 378.678 215.439 408.891 217.721 439.104C220.004 470.66 222.019 502.082 223.899 533.638C224.167 537.667 224.436 541.561 224.704 545.589C207.382 529.073 189.925 512.824 174.214 493.891C165.62 483.551 157.563 472.406 150.312 460.052C143.195 447.832 137.018 434.539 132.05 420.708C136.481 434.807 141.986 448.504 148.701 461.395C155.415 474.286 163.203 486.237 171.529 497.382C188.314 519.673 207.113 538.741 225.241 558.212C228.598 612.999 232.09 667.92 236.387 722.841C237.864 741.909 239.475 760.842 241.221 779.91C230.612 775.748 220.272 769.705 210.738 761.514C199.19 751.711 188.582 739.357 179.048 725.929C159.846 698.938 144.135 668.054 126.41 639.183C143.061 668.994 157.564 700.55 176.094 729.018C185.36 743.251 195.699 756.68 207.65 767.691C218.258 777.628 230.075 785.147 242.295 790.384C243.101 799.381 243.906 808.378 244.846 817.375C248.338 849.065 252.366 880.622 257.066 912.178C263.377 954.745 270.762 997.178 278.954 1039.34C267.003 1034.51 255.32 1028.2 244.041 1020.41C230.344 1011.01 217.318 999.729 204.83 987.375C179.719 962.667 157.027 933.797 133.393 906.403C156.087 935.005 177.974 964.95 202.547 991.404C214.767 1004.56 227.793 1016.78 241.624 1027.26C254.246 1036.79 267.539 1044.58 281.236 1050.62C284.593 1067.27 287.95 1083.92 291.442 1100.57C298.021 1131.86 305.004 1163.02 312.255 1194.17C317.761 1217.94 323.267 1241.84 329.712 1265.61C302.05 1261.98 274.119 1251.24 248.471 1233.24C220.407 1213.77 195.162 1186.51 173.677 1155.36C194.223 1187.59 218.795 1216.46 246.86 1237.81C273.448 1258.36 303.125 1271.25 332.935 1276.35C334.009 1280.11 334.949 1283.73 336.158 1287.49C354.688 1348.99 378.322 1408.75 407.864 1464.48L417.801 1456.55C391.079 1407.27 368.922 1354.1 351.197 1299.31C366.774 1279.3 384.768 1261.98 400.21 1240.9C408.536 1229.48 416.189 1216.86 421.426 1202.36C426.663 1187.86 429.349 1171.61 429.08 1155.09C428.677 1171.61 425.321 1187.32 419.547 1200.88C413.773 1214.58 405.849 1226.4 397.121 1236.87C381.813 1255.4 364.088 1270.57 347.84 1288.7C347.303 1287.09 346.766 1285.48 346.363 1283.87C336.963 1253.79 329.712 1223.04 322.193 1192.02C314.807 1161 307.555 1129.98 300.707 1098.96C298.559 1089.29 296.545 1079.63 294.396 1069.82C321.655 1058.14 345.826 1038.4 365.162 1012.75C385.036 986.435 399.807 953.805 408.267 918.086C398.598 953.133 382.619 984.152 362.074 1008.73C342.334 1032.23 318.432 1049.68 292.113 1059.35C281.908 1010.2 272.643 960.922 264.854 911.506C260.289 882.233 256.26 852.96 252.769 823.686C276.402 810.124 295.739 788.101 310.913 762.051C326.489 735.329 338.171 704.444 345.825 671.545C336.829 703.638 323.67 732.912 307.153 757.62C291.711 780.582 272.911 799.381 251.292 810.392C248.069 781.253 245.249 751.98 242.697 722.706C240.146 693.702 237.864 664.563 235.715 635.558C250.755 620.25 266.734 605.747 280.699 588.157C287.682 579.294 293.993 569.626 299.096 558.749C304.199 548.006 307.958 535.921 309.838 523.164C307.287 535.518 302.99 546.932 297.35 557.003C291.71 567.074 284.997 575.937 277.611 583.859C264.317 598.362 249.412 610.179 234.775 622.801C232.627 592.991 230.478 563.18 228.464 533.37C226.181 501.813 223.899 470.257 221.482 438.701L221.347 439.104Z" fill="#8FC266"/>
<defs>
<linearGradient id="paint0_linear_283_2592" x1="-355.712" y1="502.142" x2="-9.9953" y2="423.343" gradientUnits="userSpaceOnUse">
<stop stop-color="#9CD637"/>
<stop offset="0.98" stop-color="#528B0D"/>
</linearGradient>
<linearGradient id="paint1_linear_283_2592" x1="382.32" y1="897.584" x2="-446.391" y2="3.91896" gradientUnits="userSpaceOnUse">
<stop stop-color="#377603"/>
<stop offset="0.61" stop-color="#629429"/>
<stop offset="1" stop-color="#7AA53E"/>
</linearGradient>
</defs>
</svg>
