<svg width="352" height="1008" viewBox="0 0 352 1008" fill="none" xmlns="http://www.w3.org/2000/svg">
<path d="M185.147 881.775C188.639 860.156 192.936 842.699 199.516 816.917C207.438 782.541 214.555 759.444 219.658 752.865C224.895 744.942 239.934 681.696 243.559 690.29C256.988 638.726 255.511 680.353 269.208 629.729C277.802 609.989 286.261 590.653 294.318 571.988C318.489 515.724 338.899 464.697 346.016 421.458C353.804 374.057 351.119 387.888 347.359 406.553C338.094 458.386 350.851 374.594 350.448 368.149C350.448 359.286 350.448 349.349 350.045 339.949C349.642 330.55 348.702 321.687 347.359 315.107C346.285 290.265 336.214 314.57 337.96 262.335C336.214 231.047 336.08 184.989 323.726 209.831C319.16 187.003 312.446 175.052 306.135 157.73C287.336 105.897 265.716 54.7359 247.589 4.7832C290.559 368.014 160.708 387.485 173.867 927.296C177.359 924.477 180.179 920.985 180.716 917.359C180.716 917.359 181.119 913.331 181.925 906.885C182.73 900.44 183.939 891.578 185.416 881.909L185.147 881.775Z" fill="url(#paint0_linear_283_2605)"/>
<path d="M247.312 4.51767C246.909 3.30914 246.372 1.96634 245.969 0.757812C243.418 9.08326 241.672 17.2744 240.329 25.3313C238.046 39.4309 236.838 53.3962 234.555 67.3615C233.078 76.3583 229.989 86.8322 225.424 98.7833C224.35 97.5747 221.395 106.169 217.77 117.583C211.056 147.124 212.398 126.445 208.235 138.262C212.398 99.0519 200.985 153.839 196.419 165.253C194.942 158.136 186.348 193.317 184.736 184.858C175.739 221.919 173.725 214.668 171.308 210.371C164.997 228.902 161.372 230.648 156.941 237.227C149.824 259.787 147.943 250.655 143.109 258.578C137.604 270.932 134.516 267.709 126.727 294.163C123.37 293.223 116.253 314.573 111.956 319.676C106.316 332.836 99.0648 355.529 95.842 354.455C90.7393 365.063 86.5771 370.032 82.1459 377.686C77.7146 385.34 72.8799 395.814 66.4344 416.896C57.9746 432.204 47.3669 463.894 40.1157 480.545C37.6987 481.217 35.147 484.439 28.8357 512.37C26.2844 516.533 20.6448 541.509 19.0335 544.06C12.9908 565.143 8.15683 585.956 4.93407 606.232C-0.168617 637.251 -1.10898 665.853 1.1738 692.441C1.1738 732.323 6.81355 755.285 16.2133 765.087C23.8673 786.438 26.8216 846.059 44.0096 824.44C55.2892 838.271 67.7774 849.819 78.3856 870.633C89.9338 885.404 103.631 885.538 113.03 903.934C124.041 912.931 133.978 919.645 142.035 924.345C150.092 929.045 156.135 931.596 159.089 932.133C163.117 932.805 169.026 930.388 173.726 926.628C160.701 386.951 290.551 367.346 247.446 4.11485L247.312 4.51767Z" fill="url(#paint1_linear_283_2605)"/>
<path d="M243.005 564.197C226.488 580.446 208.226 594.948 189.964 609.719C194.395 568.092 200.035 526.599 207.287 485.106C209.167 474.363 211.315 463.755 213.463 453.012C221.251 442.673 233.203 431.527 242.199 423.068C252.405 413.399 263.281 404.268 273.755 394.6C284.229 385.066 294.435 374.995 302.626 363.581C310.952 352.301 316.994 339.545 319.277 325.982C316.457 339.41 309.877 351.764 301.149 362.641C292.555 373.518 282.081 383.052 271.204 392.183C260.327 401.314 249.048 410.177 238.306 419.576C230.249 426.693 222.46 434.079 215.612 442.404C224.34 401.851 234.68 361.433 242.334 320.745C251.331 304.229 265.162 289.861 277.516 274.687C283.692 267.033 289.601 259.244 294.301 250.65C299.001 242.191 302.492 233.06 304.237 223.66C301.955 232.925 298.061 241.788 292.824 249.845C287.721 258.036 281.41 265.421 274.83 272.672C263.953 284.624 253.479 296.843 244.214 310.271C248.511 285.698 251.733 261.124 252.942 236.148C254.016 212.112 254.956 190.358 255.493 169.544C259.253 160.413 262.879 151.148 265.833 141.748C267.444 136.645 268.787 131.543 269.727 126.306C270.801 121.069 271.204 115.832 271.742 110.595C270.936 115.832 270.264 121.069 268.921 126.171C267.578 131.274 265.967 136.243 264.222 141.211C261.402 148.865 258.85 154.639 255.762 161.353C256.702 110.461 254.956 64.4022 247.437 5.0498C256.299 78.0989 252.136 150.208 250.794 222.586C250.525 235.611 249.585 248.636 247.973 261.662C235.351 246.488 226.891 228.628 222.192 210.097C217.089 190.224 216.015 169.544 217.895 149.268C214.94 169.41 214.806 190.224 218.835 210.635C222.729 230.24 233.874 251.59 247.168 268.644C240.588 318.597 226.22 368.549 214.672 417.696C205.675 408.162 198.021 397.554 191.978 386.14C184.861 372.846 180.027 358.613 176.804 344.11C170.493 315.106 170.494 285.161 172.105 255.753C169.419 285.026 168.076 314.837 173.313 344.513C175.999 359.284 180.296 373.921 187.144 387.886C193.59 401.314 202.318 413.937 212.792 425.216C210.375 435.824 208.092 446.298 206.078 456.772C198.424 496.117 192.247 535.864 187.144 575.611C166.868 550.098 152.231 520.959 141.623 491.014C130.477 459.458 123.494 426.828 117.72 394.063C122.42 426.828 128.195 459.727 138.4 491.82C148.203 523.107 165.122 556.543 186.07 584.071C180.162 631.607 175.999 679.545 173.179 727.483C147.934 704.118 126.717 677.128 110.066 647.989C92.2068 616.701 79.585 582.997 73.0052 548.487C78.3765 583.131 89.9243 617.373 106.978 649.332C123.763 680.888 145.786 710.296 172.776 735.809C170.225 781.465 168.882 827.389 168.479 873.179H168.345C168.345 873.179 168.344 873.179 167.941 873.313C167.673 873.313 167.002 873.313 166.465 873.313C166.196 873.313 165.927 873.179 165.659 873.045C165.39 873.045 164.854 872.776 164.451 872.507C163.645 872.105 162.839 871.836 161.899 871.433C158.542 869.822 155.185 867.942 151.963 865.793C145.517 861.765 139.474 856.931 133.7 852.097C122.286 842.16 111.812 831.014 102.815 819.063C100.398 816.109 98.3841 813.021 96.2356 809.932C94.0871 806.844 91.9383 803.89 90.0584 800.667L84.15 791.133L78.9136 781.33L76.2278 776.496C75.4222 774.885 74.6166 773.139 73.8109 771.528L69.1105 761.457C66.1563 754.743 63.6051 747.894 60.7852 741.046C63.3365 747.894 65.485 754.877 68.3049 761.725L72.602 771.931C73.2734 773.676 73.9453 775.288 74.7509 777.033L77.1679 782.002L82.1363 791.939L87.6414 801.607C89.3871 804.83 91.4013 808.052 93.5498 811.141C95.6983 814.229 97.4444 817.586 99.8615 820.541C108.456 832.894 118.661 844.577 129.94 855.185C135.714 860.422 141.757 865.525 148.337 869.956C151.56 872.239 155.051 874.387 158.677 876.267C159.483 876.804 160.556 877.207 161.496 877.61C162.033 877.879 162.436 878.013 162.973 878.281L164.988 878.953C165.928 879.222 167.002 879.221 168.21 879.221C167.807 922.057 168.21 964.893 169.15 1007.73C173.582 1009.34 175.999 1003.43 175.999 999.269C175.999 997.523 175.999 995.912 175.999 994.166C175.327 915.88 175.596 837.863 178.819 760.114C192.247 749.909 202.05 736.749 209.704 723.052C217.626 709.087 223.803 694.45 230.919 680.217C222.728 693.913 215.477 708.281 206.749 721.575C199.229 732.989 190.233 743.732 179.221 752.057C181.236 707.476 184.19 662.894 188.756 618.447C208.092 601.528 227.965 584.742 245.422 565.943C254.419 556.275 262.61 546.204 269.727 535.327C276.844 524.45 282.618 513.036 286.915 501.085C282.081 512.902 275.77 524.047 268.25 534.521C260.73 544.995 252.136 554.663 242.871 563.929L243.005 564.197Z" fill="#92D223"/>
<defs>
<linearGradient id="paint0_linear_283_2605" x1="-140.834" y1="35.0054" x2="5.19931" y2="-314.784" gradientUnits="userSpaceOnUse">
<stop stop-color="#417D0F"/>
<stop offset="1" stop-color="#74B717"/>
</linearGradient>
<linearGradient id="paint1_linear_283_2605" x1="-187.025" y1="150.502" x2="-94.6177" y2="-531.425" gradientUnits="userSpaceOnUse">
<stop stop-color="#508A0B"/>
<stop offset="0.98" stop-color="#6BB308"/>
</linearGradient>
</defs>
</svg>
