<svg width="356" height="356" viewBox="0 0 356 356" fill="none" xmlns="http://www.w3.org/2000/svg">
<path d="M286.853 197.742C286.853 259.714 236.616 309.952 174.643 309.952C112.671 309.952 62.4336 259.714 62.4336 197.742C62.4336 135.771 112.671 85.5322 174.643 85.5322C236.616 85.5322 286.853 135.77 286.853 197.742Z" fill="#3B9566"/>
<path d="M123.025 165.994C122.826 165.381 122.506 164.817 122.187 164.257C121.33 162.752 120.395 161.168 118.866 160.356C117.68 159.727 116.15 159.56 115.376 158.462C116.263 157.801 117.421 157.662 118.52 157.545C118.9 157.504 119.291 157.464 119.661 157.559C120.076 157.665 120.427 157.93 120.765 158.194C122.317 159.409 123.799 160.733 125.024 162.278C125.92 163.408 126.668 164.647 127.348 165.916C127.692 166.56 128.019 167.214 128.342 167.869C128.613 168.422 129.009 169.008 128.978 169.647C128.881 171.635 125.86 170.329 125.019 169.739C124.467 169.352 123.975 168.858 123.674 168.25C123.326 167.542 123.268 166.74 123.028 165.997L123.025 165.994Z" fill="#90BA7E"/>
<path d="M130.001 176.584C130.363 177.215 131.033 177.605 131.712 177.866C132.391 178.127 133.107 178.291 133.755 178.621C134.619 179.06 135.432 179.809 136.395 179.702C136.52 179.689 136.649 179.658 136.747 179.581C136.998 179.383 136.958 178.994 136.867 178.688C136.482 177.382 135.61 176.227 134.459 175.498C134.167 175.313 133.854 175.151 133.626 174.891C133.443 174.683 133.329 174.425 133.197 174.18C132.698 173.247 131.788 172.031 130.567 172.455C129.752 172.738 129.73 173.873 129.69 174.581C129.652 175.259 129.652 175.976 130 176.583L130.001 176.584Z" fill="#90BA7E"/>
<path d="M122.225 173.783C122.268 173.811 122.313 173.839 122.363 173.843C122.417 173.848 122.47 173.827 122.517 173.799C122.876 173.596 122.988 173.135 123.037 172.723C123.096 172.246 123.115 171.74 122.914 171.302C122.752 170.948 122.439 170.673 122.079 170.532C121.896 170.46 121.698 170.423 121.501 170.429C121.237 170.437 121.141 170.561 120.991 170.759C120.787 171.027 120.494 171.332 120.519 171.696C120.547 172.096 120.874 172.49 121.119 172.789C121.441 173.185 121.821 173.477 122.225 173.78V173.783Z" fill="#90BA7E"/>
<path d="M140.513 182.934C140.82 183.087 141.107 183.277 141.418 183.421C141.881 183.634 142.395 183.738 142.906 183.722C142.928 183.722 142.95 183.72 142.969 183.708C142.991 183.694 143.001 183.667 143.01 183.642C143.134 183.258 143.067 182.832 142.91 182.459C142.752 182.087 142.508 181.759 142.268 181.435C142.082 181.184 141.89 180.928 141.624 180.762C141.245 180.524 140.749 180.475 140.312 180.475C139.968 180.475 139.596 180.508 139.283 180.667C138.637 180.995 138.785 181.792 139.239 182.232C139.593 182.574 140.085 182.719 140.516 182.934H140.513Z" fill="#90BA7E"/>
<path d="M285.941 183.379C283.833 183.782 281.674 183.911 279.535 183.755C279.723 184.562 279.908 185.425 279.623 186.202C279.338 186.98 278.379 187.565 277.659 187.153C277.104 186.834 276.951 186.117 276.853 185.484C276.146 180.898 274.971 175.658 270.847 173.532C270.44 173.323 269.987 173.147 269.535 173.22C268.767 173.343 268.301 174.104 267.87 174.752C265.561 178.228 261.331 180.334 257.164 180.08C256.339 180.031 255.405 179.928 254.784 180.473C254.384 180.824 254.218 181.365 254.063 181.873C251.549 190.095 246.897 197.652 240.691 203.602C239.574 204.672 238.361 205.763 237.897 207.238C236.938 210.275 239.524 213.431 239.11 216.589C238.674 219.925 235.095 222.093 234.367 225.378C233.909 227.441 234.659 229.557 235.397 231.535C236.094 233.402 236.79 235.268 237.488 237.134C238.029 238.584 238.584 240.06 239.546 241.271C242.094 244.482 246.68 245.014 250.77 245.295C254.373 245.544 258.581 245.544 260.844 242.731C265.356 240.118 264.529 250.045 263.776 251.76C262.423 254.844 261.65 258.182 261.512 261.547C261.446 263.147 261.618 264.72 261.678 266.315C261.703 266.98 261.842 267.558 262.047 268.1C277.559 248.854 286.853 224.384 286.853 197.74C286.853 192.873 286.542 188.08 285.941 183.377V183.379Z" fill="#90BA7E"/>
<path d="M114.943 288.4C115.925 286.802 117.857 286 119.728 285.845C121.598 285.688 123.464 286.072 125.325 286.319C129.716 286.902 134.357 286.691 138.318 284.705C141.38 283.168 144.028 280.596 147.413 280.065C150.171 279.633 152.939 280.648 155.727 280.785C159.456 280.968 163.064 279.584 166.541 278.222C167.218 277.957 167.929 277.667 168.376 277.092C168.712 276.66 168.86 276.114 168.98 275.579C169.658 272.567 170.19 268.8 173.104 267.779C174.431 267.315 175.898 267.612 177.288 267.398C180.533 266.897 182.657 263.82 184.308 260.982C185.082 259.65 185.867 258.187 185.677 256.656C185.596 256.004 185.34 255.388 185.047 254.799C183 250.677 178.992 247.584 174.486 246.65C173.187 246.38 171.739 246.225 170.833 245.255C169.798 244.145 169.883 242.418 169.291 241.02C168.038 238.057 164.159 237.23 162.127 234.735C160.827 233.139 160.412 231.027 159.876 229.039C159.065 226.035 157.885 223.131 156.372 220.412C155.89 219.547 155.345 218.668 154.502 218.147C153.264 217.381 151.681 217.552 150.274 217.181C147.75 216.517 146.016 214.169 145.023 211.754C144.032 209.34 143.569 206.722 142.449 204.365C140.652 200.584 137.131 197.666 133.081 196.603C131.763 196.257 130.382 196.093 129.146 195.521C127.718 194.86 126.59 193.706 125.313 192.79C121.899 190.338 117.281 189.656 113.304 191.014C112.579 188.724 111.061 186.465 108.676 186.173C108.028 186.094 107.337 186.21 106.744 185.934C106.071 185.62 105.712 184.888 105.443 184.196C104.416 181.564 104.166 178.068 106.441 176.394C107.221 175.821 108.19 175.562 109.014 175.053C109.837 174.544 110.551 173.607 110.305 172.671C110.185 172.212 109.856 171.841 109.538 171.488C107.68 169.427 105.819 167.366 103.961 165.306C103.703 165.02 103.433 164.71 103.383 164.328C103.323 163.861 103.61 163.418 103.936 163.077C105.031 161.923 106.62 161.382 107.864 160.391C109.109 159.4 109.969 157.499 108.987 156.248C108.179 155.219 106.614 155.24 105.35 155.574C104.085 155.908 102.794 156.464 101.518 156.178C100.138 155.867 99.1231 154.585 98.8065 153.205C98.4884 151.826 98.7625 150.376 99.2184 149.036C101.458 142.451 108.498 137.848 115.427 138.435C116.081 138.491 116.758 138.596 117.296 138.973C117.788 139.319 118.137 139.874 118.696 140.099C119.288 140.336 119.965 140.141 120.596 140.242C121.255 140.349 121.815 140.773 122.333 141.197C123.744 142.358 125.062 143.634 126.266 145.009C126.99 145.836 127.717 146.924 127.339 147.956C127.128 148.533 126.615 148.935 126.229 149.416C125.185 150.718 125.119 152.524 125.102 154.192C125.097 154.568 125.111 154.991 125.38 155.255C125.826 155.693 126.576 155.376 127.076 155.001C129.623 153.086 131.223 149.97 131.298 146.785C131.319 145.892 131.267 144.882 131.893 144.244C132.315 143.813 132.943 143.672 133.535 143.555C137.107 142.847 140.711 142.3 144.333 141.918C144.981 141.849 145.681 141.762 146.153 141.314C146.584 140.903 146.725 140.283 147.004 139.759C147.728 138.391 149.336 137.744 150.86 137.483C152.385 137.224 153.974 137.234 155.422 136.689C157.108 136.053 158.433 134.726 160.003 133.842C163.011 132.151 166.657 132.205 170.108 132.304C170.92 134.424 173.533 135.233 175.803 135.184C178.072 135.134 180.359 134.515 182.585 134.959C182.553 133.3 180.885 132.395 179.231 132.269C178.12 132.184 176.801 132.269 176.124 131.384C175.788 130.944 175.709 130.346 175.81 129.802C176.042 128.559 177.131 127.615 178.322 127.191C179.514 126.768 180.81 126.774 182.074 126.782C184.75 126.802 187.427 126.822 190.104 126.843C188.272 128.534 185.869 129.597 183.384 129.817C182.893 130.786 183.705 131.957 184.677 132.444C185.648 132.932 186.781 133.03 187.739 133.542C188.374 133.879 188.909 134.386 189.553 134.709C190.196 135.031 191.038 135.131 191.589 134.669C192.136 134.21 192.184 133.351 191.897 132.697C191.608 132.044 191.058 131.55 190.525 131.076C191.284 130.016 191.979 128.908 192.603 127.763C193.327 126.432 193.934 124.71 193.034 123.49C192.322 122.526 190.863 122.224 190.381 121.126C190.22 120.758 190.193 120.346 190.17 119.944C190.003 117.09 189.836 114.236 189.669 111.38C188.88 111.21 188.03 111.342 187.329 111.741C187.096 111.874 186.866 112.04 186.597 112.066C186.388 112.087 186.18 112.018 185.985 111.934C184.827 111.436 183.932 110.366 183.644 109.139C183.504 108.545 183.499 107.916 183.265 107.352C182.78 106.173 181.364 105.568 180.099 105.726C178.834 105.885 177.723 106.665 176.843 107.587C177.096 108.167 176.398 108.891 175.808 108.66C174.558 108.784 173.939 110.301 172.872 110.965C171.763 111.654 170.251 111.314 169.224 110.507C168.198 109.699 167.547 108.519 166.924 107.371C166.438 106.477 165.953 105.583 165.468 104.689C164.926 103.69 164.37 102.529 164.766 101.465C165.172 100.374 166.4 99.8628 167.513 99.5227C174.903 97.2608 182.95 97.1963 190.375 99.3409C190.467 99.9742 190.56 100.609 190.652 101.242C189.471 101.84 188.123 102.11 186.801 102.013C186.109 102.891 186.551 104.175 187.078 105.161C187.971 106.83 189.197 108.519 191.022 109.02C192.847 109.522 195.195 108.082 194.877 106.216C195.805 106.226 196.734 106.237 197.662 106.245C197.955 106.248 198.27 106.244 198.506 106.069C198.993 105.709 198.797 104.939 198.501 104.41C197.914 103.363 197.12 102.434 196.176 101.694C197.34 100.461 197.307 98.2958 196.108 97.0981C198.735 96.0896 201.503 95.4475 204.305 95.1939C203.92 96.5792 204.865 97.9674 205.859 99.0067C206.853 100.046 208.017 101.104 208.212 102.529C208.513 104.732 206.356 106.613 206.327 108.836C206.302 110.7 207.765 112.26 208.111 114.092C208.249 114.819 208.221 115.618 208.643 116.225C209.328 117.212 210.773 117.176 211.965 117.036C212.77 116.94 213.602 116.836 214.291 116.41C214.98 115.983 215.48 115.137 215.245 114.363C219.151 114.017 223.057 113.673 226.962 113.327C227.409 107.88 225.268 102.274 221.3 98.5156C221.278 97.019 219.561 96.2083 218.108 95.8433C215.882 95.2833 213.602 94.9301 211.31 94.7923C210.609 94.7498 209.827 94.6941 209.351 94.1781C208.989 93.7867 208.897 93.2252 208.725 92.7195C208.376 91.689 207.684 90.8871 206.833 90.226C196.637 87.1784 185.835 85.5337 174.647 85.5337C155.343 85.5337 137.178 90.4107 121.314 98.9965C117.006 106.14 109.557 111.015 104.707 117.868C102.248 121.341 100.504 125.258 98.7772 129.145C96.8349 133.514 94.894 137.884 92.9517 142.252C92.1938 143.958 91.4272 145.69 91.1413 147.535C90.4377 152.066 92.6834 156.476 94.8588 160.511C95.4467 161.602 96.0345 162.691 96.6208 163.78C98.0662 166.46 99.5116 169.142 100.777 171.913C101.184 172.806 101.581 173.753 101.505 174.73C101.413 175.929 100.621 176.983 100.495 178.18C100.381 179.254 100.813 180.304 101.237 181.298C102.435 184.112 103.632 186.927 104.831 189.74C105.1 190.369 105.582 191.121 106.252 190.981C106.895 190.848 107.168 189.945 107.819 189.847C108.591 189.731 108.953 190.764 109.019 191.544C109.134 192.916 109.248 194.287 109.364 195.659C109.444 196.616 109.521 197.606 109.213 198.516C108.851 199.586 108.004 200.413 107.153 201.157C104.471 203.506 101.464 205.485 98.9604 208.024C96.4567 210.561 94.4323 213.84 94.4044 217.405C94.3355 226.262 99.3401 234.943 104.235 242.326C105.138 243.689 106.098 245.03 106.737 246.536C108.605 250.944 107.441 256.041 105.649 260.479C104.694 262.845 103.552 265.202 103.348 267.746C102.943 272.8 106.306 277.717 105.393 282.704C105.224 283.626 104.909 284.562 105.107 285.479C105.141 285.638 105.211 285.785 105.273 285.935C108.297 288.317 111.448 290.543 114.711 292.609C114.324 291.116 114.377 289.332 114.95 288.399L114.943 288.4Z" fill="#90BA7E"/>
<path d="M280.073 291.341H269.622L271.917 106.826H277.778C277.778 173.188 280.073 291.341 280.073 291.341Z" fill="#D2D3D5"/>
<path d="M272.898 106.149V46C275.85 47.2489 277.99 49.8802 278.613 53.0246L284.253 81.4907C284.892 84.7186 284.383 88.0667 282.816 90.959L277.617 100.553V106.147H272.896L272.898 106.149Z" fill="#D2D3D5"/>
<path d="M277.616 106.148L331.36 133.155C328.918 135.232 325.607 135.963 322.517 135.109L294.549 127.366C291.378 126.488 288.613 124.531 286.733 121.832L280.494 112.878L275.495 110.366L277.615 106.148H277.616Z" fill="#D2D3D5"/>
<path d="M275.014 110.335L221.659 138.1C221.404 134.904 222.749 131.791 225.252 129.787L247.901 111.644C250.468 109.587 253.674 108.492 256.963 108.546L267.874 108.729L272.836 106.146L275.014 110.333V110.335Z" fill="#D2D3D5"/>
<path d="M281.503 108.302C281.503 111.977 278.523 114.957 274.848 114.957C271.173 114.957 268.192 111.977 268.192 108.302C268.192 104.627 271.173 101.646 274.848 101.646C278.523 101.646 281.503 104.627 281.503 108.302Z" fill="#D2D3D5"/>
<path d="M278.861 108.302C278.861 110.518 277.064 112.315 274.848 112.315C272.631 112.315 270.834 110.518 270.834 108.302C270.834 106.085 272.631 104.288 274.848 104.288C277.064 104.288 278.861 106.085 278.861 108.302Z" fill="#561A2A"/>
<path d="M269.908 113.075C268.733 111.858 268.049 110.259 267.983 108.572L268.414 108.556C268.475 110.137 269.115 111.636 270.217 112.776L269.908 113.075Z" fill="#561A2A"/>
<path d="M274.847 115.173C273.738 115.173 272.676 114.916 271.697 114.409L271.894 114.026C273.698 114.959 275.882 114.975 277.697 114.078L277.889 114.465C276.939 114.935 275.916 115.173 274.847 115.173Z" fill="#561A2A"/>
<path d="M280.099 112.733L279.769 112.456C280.748 111.297 281.288 109.822 281.288 108.302L281.285 108.101L281.716 108.091L281.719 108.302C281.719 109.923 281.143 111.496 280.099 112.733Z" fill="#561A2A"/>
<path d="M76.0886 267.4H66.9531L68.9599 141.099H74.0818C74.0818 186.524 76.0886 267.4 76.0886 267.4Z" fill="#D2D3D5"/>
<path d="M69.8159 140.506V87.9302C72.3959 89.0223 74.2678 91.3223 74.8132 94.0708L79.743 118.954C80.3015 121.775 79.8573 124.702 78.4882 127.231L73.9439 135.617V140.507H69.8174L69.8159 140.506Z" fill="#D2D3D5"/>
<path d="M73.9408 140.506L120.918 164.113C118.784 165.929 115.889 166.568 113.189 165.821L88.7419 159.053C85.9714 158.286 83.5541 156.574 81.9109 154.215L76.4577 146.389L72.0879 144.193L73.9408 140.506Z" fill="#D2D3D5"/>
<path d="M71.6657 144.165L25.0268 168.436C24.804 165.643 25.9797 162.921 28.1668 161.17L47.9637 145.31C50.208 143.513 53.0093 142.556 55.8854 142.603L65.4225 142.762L69.7601 140.505L71.6643 144.165H71.6657Z" fill="#D2D3D5"/>
<path d="M77.337 142.389C77.337 145.602 74.7321 148.206 71.5203 148.206C68.307 148.206 65.7036 145.601 65.7036 142.389C65.7036 139.176 68.3085 136.572 71.5203 136.572C74.7335 136.572 77.337 139.177 77.337 142.389Z" fill="#D2D3D5"/>
<path d="M75.0285 142.388C75.0285 144.326 73.4585 145.896 71.5206 145.896C69.5827 145.896 68.0127 144.325 68.0127 142.388C68.0127 140.45 69.5827 138.88 71.5206 138.88C73.4585 138.88 75.0285 140.452 75.0285 142.388Z" fill="#561A2A"/>
<path d="M67.1814 146.58C66.1494 145.512 65.5484 144.108 65.4912 142.626L65.9222 142.61C65.975 143.985 66.532 145.29 67.4907 146.28L67.1814 146.58Z" fill="#561A2A"/>
<path d="M71.5205 148.421C70.5589 148.421 69.6017 148.189 68.7529 147.751L68.9508 147.368C70.5149 148.177 72.4191 148.195 73.9994 147.414L74.1899 147.799C73.3573 148.211 72.4572 148.421 71.5205 148.421Z" fill="#561A2A"/>
<path d="M76.1306 146.279L75.8008 146.002C76.6539 144.994 77.1216 143.711 77.1216 142.389L77.1186 142.214L77.5496 142.203L77.5525 142.389C77.5525 143.812 77.0483 145.195 76.1306 146.281V146.279Z" fill="#561A2A"/>
<path d="M73.8511 137.293C72.6066 136.723 71.1641 136.632 69.8536 137.038L69.7261 136.626C71.1363 136.189 72.6901 136.286 74.0314 136.9L73.8511 137.291V137.293Z" fill="#561A2A"/>
<path d="M119.799 294.078H101.179V264.165H119.799V294.078Z" fill="#D2D3D5"/>
<path d="M99.3921 294.078H101.179V264.165H99.3921V294.078Z" fill="#D8C3BF"/>
<path d="M119.799 270.914L101.179 274.404V264.165H119.799V270.914Z" fill="#BDBFC1"/>
<path d="M164.452 268.981H55.7826L42.9473 202.2L44.5084 200.402L166.251 267.184L164.452 268.981Z" fill="#D8C3BF"/>
<path d="M126.04 294.077H90.8091V290.654H126.04V294.077Z" fill="#D2D3D5"/>
<path d="M96.3443 294.077H90.8091V290.654H96.3443V294.077Z" fill="#D8C3BF"/>
<path d="M166.012 267.184H57.3422L44.5083 200.402H152.996L166.012 267.184Z" fill="white" fill-opacity="0.8"/>
<path d="M166.012 267.4H57.165L44.2959 200.442L44.7195 200.362L57.5197 266.969H166.012V267.4Z" fill="#561A2A"/>
<path d="M65.0794 203.562H50.3999C49.2859 203.562 48.5485 204.473 48.764 205.587L51.5873 220.274C51.8013 221.39 52.889 222.301 54.0046 222.301H68.6914C69.8054 222.301 70.5428 221.39 70.3273 220.274L67.4967 205.587C67.2826 204.473 66.195 203.562 65.0794 203.562Z" fill="#561A2A"/>
<path d="M85.8905 203.562H71.2111C70.097 203.562 69.3611 204.473 69.5751 205.587L72.4072 220.274C72.6227 221.39 73.7104 222.301 74.826 222.301H89.5113C90.6268 222.301 91.3612 221.39 91.1458 220.274L88.3078 205.587C88.0923 204.473 87.0046 203.562 85.8905 203.562Z" fill="#561A2A"/>
<path d="M106.703 203.562H92.024C90.9099 203.562 90.174 204.473 90.3895 205.587L93.229 220.274C93.4445 221.39 94.5336 222.301 95.6477 222.301H110.333C111.447 222.301 112.183 221.39 111.968 220.274L109.121 205.587C108.905 204.473 107.816 203.562 106.702 203.562H106.703Z" fill="#561A2A"/>
<path d="M127.516 203.562H112.837C111.723 203.562 110.987 204.473 111.204 205.587L114.051 220.274C114.266 221.39 115.355 222.301 116.471 222.301H131.156C132.27 222.301 133.006 221.39 132.789 220.274L129.935 205.587C129.718 204.473 128.629 203.562 127.515 203.562H127.516Z" fill="#561A2A"/>
<path d="M148.328 203.562H133.648C132.534 203.562 131.8 204.473 132.017 205.587L134.871 220.274C135.088 221.39 136.177 222.301 137.292 222.301H151.979C153.093 222.301 153.828 221.39 153.611 220.274L150.749 205.587C150.532 204.473 149.443 203.562 148.328 203.562Z" fill="#561A2A"/>
<path d="M69.0917 224.387H54.4049C53.2894 224.387 52.5535 225.3 52.7675 226.416L55.5937 241.118C55.8078 242.235 56.8969 243.149 58.0125 243.149H72.7066C73.8221 243.149 74.558 242.235 74.344 241.118L71.5104 226.416C71.2949 225.3 70.2072 224.387 69.0917 224.387Z" fill="#561A2A"/>
<path d="M89.9144 224.388H75.2276C74.1135 224.388 73.3761 225.301 73.5916 226.416L76.4267 241.119C76.6422 242.236 77.7298 243.15 78.8454 243.15H93.5395C94.6551 243.15 95.391 242.236 95.1755 241.119L92.3346 226.416C92.1191 225.301 91.0299 224.388 89.9158 224.388H89.9144Z" fill="#561A2A"/>
<path d="M110.738 224.387H96.0508C94.9353 224.387 94.1994 225.3 94.4164 226.416L97.2587 241.118C97.4742 242.235 98.5634 243.149 99.6789 243.149H114.373C115.489 243.149 116.224 242.235 116.008 241.118L113.159 226.416C112.944 225.3 111.855 224.387 110.739 224.387H110.738Z" fill="#561A2A"/>
<path d="M131.56 224.388H116.874C115.758 224.388 115.024 225.301 115.239 226.416L118.089 241.119C118.306 242.236 119.395 243.15 120.511 243.15H135.205C136.32 243.15 137.055 242.236 136.838 241.119L133.981 226.416C133.764 225.301 132.675 224.388 131.559 224.388H131.56Z" fill="#561A2A"/>
<path d="M152.384 224.387H137.697C136.583 224.387 135.847 225.3 136.064 226.416L138.921 241.118C139.138 242.235 140.228 243.149 141.344 243.149H156.038C157.154 243.149 157.888 242.235 157.671 241.118L154.807 226.416C154.59 225.3 153.499 224.387 152.384 224.387Z" fill="#561A2A"/>
<path d="M73.1082 245.234H58.4141C57.2985 245.234 56.5612 246.147 56.7767 247.264L59.6059 261.982C59.8213 263.099 60.909 264.013 62.0261 264.013H76.7275C77.8431 264.013 78.5804 263.099 78.3649 261.982L75.5284 247.264C75.3129 246.147 74.2238 245.234 73.1082 245.234Z" fill="#561A2A"/>
<path d="M93.9428 245.234H79.2487C78.1331 245.234 77.3972 246.147 77.6112 247.264L80.4492 261.982C80.6647 263.099 81.7539 264.013 82.8709 264.013H97.5723C98.6879 264.013 99.4252 263.099 99.2083 261.982L96.3644 247.264C96.149 246.147 95.0598 245.234 93.9443 245.234H93.9428Z" fill="#561A2A"/>
<path d="M114.776 245.234H100.082C98.9661 245.234 98.2302 246.147 98.4457 247.264L101.291 261.982C101.506 263.099 102.597 264.013 103.713 264.013H118.414C119.53 264.013 120.266 263.099 120.05 261.982L117.199 247.264C116.982 246.147 115.893 245.234 114.777 245.234H114.776Z" fill="#561A2A"/>
<path d="M135.611 245.234H120.917C119.801 245.234 119.065 246.147 119.282 247.264L122.135 261.982C122.352 263.099 123.442 264.013 124.558 264.013H139.259C140.375 264.013 141.111 263.099 140.894 261.982L138.034 247.264C137.817 246.147 136.726 245.234 135.611 245.234Z" fill="#561A2A"/>
<path d="M156.444 245.234H141.75C140.635 245.234 139.9 246.147 140.117 247.264L142.977 261.982C143.194 263.099 144.285 264.013 145.402 264.013H160.103C161.219 264.013 161.955 263.099 161.736 261.982L158.869 247.264C158.652 246.147 157.561 245.234 156.446 245.234H156.444Z" fill="#561A2A"/>
<path d="M55.9455 269.124L55.6201 268.841L57.1798 267.042L57.5053 267.325L55.9455 269.124Z" fill="#561A2A"/>
<path d="M119.799 290.87H101.179V290.439H119.799V290.87Z" fill="#561A2A"/>
<path d="M119.799 269.197H99.3921V268.766H119.799V269.197Z" fill="#561A2A"/>
<path d="M184.654 262.681C184.654 254.572 178.081 247.999 169.971 247.999C161.862 247.999 155.289 254.572 155.289 262.681C155.289 265.468 156.066 268.074 157.415 270.295L159.943 274.239C161.337 276.362 162.079 278.844 162.079 281.383V282.896C162.079 283.758 162.397 284.59 162.972 285.232L163.623 285.959H168.796H171.147H176.32L176.971 285.232C177.546 284.59 177.864 283.759 177.864 282.896V281.383C177.864 278.844 178.606 276.361 180 274.239L182.528 270.295C183.877 268.075 184.654 265.469 184.654 262.681Z" fill="#F4BD3A"/>
<path d="M170.316 293.432H169.629C168.292 293.432 167.203 292.345 167.203 291.006V279.081C167.203 277.744 168.29 276.655 169.629 276.655H170.316C171.653 276.655 172.742 277.743 172.742 279.081V291.006C172.742 292.343 171.655 293.432 170.316 293.432ZM169.629 277.086C168.529 277.086 167.634 277.98 167.634 279.081V291.006C167.634 292.106 168.528 293.001 169.629 293.001H170.316C171.416 293.001 172.311 292.107 172.311 291.006V279.081C172.311 277.982 171.417 277.086 170.316 277.086H169.629Z" fill="#561A2A"/>
<path d="M170.847 285.905H169.097H163.572V288.341C163.572 288.664 163.833 288.925 164.155 288.925V292.825C164.155 295.007 165.923 296.774 168.104 296.774H169.097H170.847H171.838C174.019 296.774 175.789 295.007 175.789 292.825V288.925C176.111 288.925 176.372 288.664 176.372 288.341V285.905H170.847Z" fill="#D2D3D5"/>
<path d="M175.789 289.14H164.155V288.709H175.789V289.14Z" fill="#561A2A"/>
<path d="M170.189 276.872H169.758V262.471H170.189V276.872Z" fill="#561A2A"/>
<path d="M168.189 277.272L161.76 265.906L162.135 265.693L168.563 277.061L168.189 277.272Z" fill="#561A2A"/>
<path d="M171.755 277.272L171.38 277.061L177.809 265.693L178.185 265.906L171.755 277.272Z" fill="#561A2A"/>
<path d="M162.135 266.015C162.072 266.015 162.008 266.014 161.943 266.014L161.951 265.583C164.943 265.618 167.609 264.532 169.821 262.317L169.985 262.153L170.136 262.329C171.969 264.465 174.615 265.56 177.999 265.583L177.996 266.014C174.574 265.992 171.87 264.904 169.962 262.783C167.745 264.929 165.114 266.015 162.135 266.015Z" fill="#561A2A"/>
<path d="M178.667 252.528C180.518 254.188 181.493 256.12 180.844 256.844C180.194 257.568 178.167 256.81 176.316 255.152C174.464 253.493 173.489 251.561 174.139 250.837C174.788 250.112 176.815 250.87 178.667 252.528Z" fill="#FFD16E"/>
<path d="M221.027 180.214C221.027 180.214 219.305 196.874 203.855 196.284C204.121 186.3 210.483 181.485 221.027 180.214Z" fill="#A8E285"/>
<path d="M203.946 196.48L203.763 196.09C210.307 193.012 215.436 188.321 219.01 182.148L219.384 182.363C215.764 188.615 210.571 193.364 203.946 196.48Z" fill="#77A35D"/>
<path d="M211.769 191.117C210.309 186.64 213.037 183.626 213.065 183.595L213.381 183.888C213.355 183.916 210.8 186.754 212.178 190.985L211.769 191.118V191.117Z" fill="#77A35D"/>
<path d="M160.733 197.683C160.733 197.683 167.29 187.187 177.351 192.599C173.929 199.137 168.143 200.266 160.733 197.683Z" fill="#A8E285"/>
<path d="M162.732 197.103L162.491 196.744C166.934 193.765 171.935 192.29 177.355 192.383L177.348 192.813C172.005 192.717 167.099 194.172 162.732 197.101V197.103Z" fill="#77A35D"/>
<path d="M167.136 198.079L166.981 197.677C167.007 197.667 169.596 196.625 170.051 193.404L170.477 193.464C169.986 196.941 167.254 198.035 167.138 198.079H167.136Z" fill="#77A35D"/>
<path d="M177.443 207.991C177.443 207.991 186.529 216.394 179.333 225.267C173.549 220.684 173.522 214.789 177.443 207.991Z" fill="#A8E285"/>
<path d="M179.543 225.31L179.121 225.222C180.2 220 179.702 214.899 177.639 210.062L178.036 209.893C180.133 214.813 180.64 219.999 179.543 225.308V225.31Z" fill="#77A35D"/>
<path d="M179.767 218.349C176.444 217.218 175.881 214.328 175.859 214.207L176.283 214.129C176.287 214.155 176.829 216.894 179.906 217.942L179.767 218.349Z" fill="#77A35D"/>
<path d="M238.495 240.121C238.495 240.121 226.859 244.332 222.282 233.864C229.009 230.831 234.259 233.514 238.495 240.121Z" fill="#A8E285"/>
<path d="M236.533 239.775C231.199 239.376 226.358 237.446 222.147 234.033L222.418 233.699C226.561 237.056 231.319 238.955 236.566 239.347L236.533 239.776V239.775Z" fill="#77A35D"/>
<path d="M228.524 237.739L228.227 237.428C230.76 234.996 233.584 235.823 233.702 235.86L233.576 236.272C233.548 236.263 230.87 235.485 228.524 237.739Z" fill="#77A35D"/>
<path d="M213.172 220.978C213.172 220.978 214.525 233.278 203.274 235.262C201.909 228.01 205.753 223.539 213.172 220.978Z" fill="#A8E285"/>
<path d="M203.406 235.433L203.145 235.091C207.381 231.856 210.35 227.677 211.964 222.671L212.374 222.804C210.731 227.894 207.714 232.144 203.406 235.433Z" fill="#77A35D"/>
<path d="M208.136 230.322C206.367 227.288 207.836 224.739 207.9 224.632L208.271 224.85C208.257 224.875 206.871 227.297 208.509 230.105L208.136 230.322Z" fill="#77A35D"/>
<path d="M217.256 200.847C217.256 200.847 227.718 207.456 222.255 217.49C215.734 214.037 214.635 208.244 217.256 200.847Z" fill="#A8E285"/>
<path d="M222.47 217.495L222.039 217.486C222.15 212.153 220.731 207.229 217.826 202.847L218.185 202.608C221.142 207.065 222.583 212.074 222.47 217.495Z" fill="#77A35D"/>
<path d="M221.423 210.611C217.949 210.102 216.87 207.364 216.826 207.248L217.228 207.096C217.238 207.122 218.269 209.715 221.485 210.186L221.423 210.611Z" fill="#77A35D"/>
<path d="M184.031 164.733C184.031 164.733 190.758 175.12 181.592 181.938C177.119 176.069 178.55 170.349 184.031 164.733Z" fill="#A8E285"/>
<path d="M181.785 182.033L181.398 181.844C183.734 177.05 184.512 171.986 183.71 166.788L184.135 166.722C184.95 172.008 184.16 177.159 181.784 182.031L181.785 182.033Z" fill="#77A35D"/>
<path d="M183.72 175.344C180.78 173.426 180.948 170.488 180.957 170.363L181.387 170.393C181.385 170.42 181.234 173.207 183.956 174.982L183.72 175.343V175.344Z" fill="#77A35D"/>
<path d="M154.877 153.702C154.877 153.702 167.253 153.732 167.965 165.136C160.606 165.679 156.594 161.359 154.877 153.702Z" fill="#A8E285"/>
<path d="M167.78 165.246C165.039 160.673 161.219 157.257 156.427 155.094L156.603 154.701C161.477 156.902 165.361 160.377 168.15 165.026L167.78 165.248V165.246Z" fill="#77A35D"/>
<path d="M161.076 160.306C159.215 160.306 157.99 159.403 157.919 159.35L158.179 159.006C158.201 159.023 160.451 160.671 163.427 159.358L163.6 159.752C162.678 160.16 161.825 160.306 161.076 160.306Z" fill="#77A35D"/>
<path d="M206.926 274.829L206.495 274.825C206.792 252.627 203.673 232.123 197.221 213.884C190.771 195.649 180.809 179.162 167.612 164.881L167.928 164.589C194.403 193.236 207.522 230.326 206.926 274.83V274.829Z" fill="#561A2A"/>
<path d="M209.461 275.666L209.03 275.655C210.118 226.451 234.37 196.739 234.615 196.444L234.946 196.72C234.702 197.013 210.545 226.617 209.46 275.664L209.461 275.666Z" fill="#561A2A"/>
<path d="M204.035 275.681C201.552 248.216 187.856 227.798 163.329 214.989L163.529 214.606C188.195 227.487 201.967 248.022 204.465 275.641L204.035 275.679V275.681Z" fill="#561A2A"/>
<path d="M199.849 220.755L199.448 220.598C204.575 207.418 205.001 193.159 200.713 178.219L201.126 178.1C205.442 193.133 205.011 207.484 199.849 220.753V220.755Z" fill="#561A2A"/>
<path d="M193.517 242.7C183.312 242.7 177.959 236.326 177.906 236.26L178.239 235.986C178.29 236.05 183.525 242.269 193.517 242.269C193.654 242.269 193.792 242.269 193.933 242.266L193.94 242.697C193.799 242.7 193.657 242.7 193.518 242.7H193.517Z" fill="#561A2A"/>
<path d="M215.42 236.337L215.394 235.908C215.42 235.905 218.121 235.717 221.683 234.132C224.968 232.671 229.679 229.691 233.476 223.788L233.838 224.019C229.98 230.022 225.183 233.049 221.84 234.533C218.21 236.144 215.533 236.328 215.422 236.336L215.42 236.337Z" fill="#561A2A"/>
<path d="M185.784 193.629C171.26 193.629 164.738 182.49 164.671 182.369L165.045 182.155C165.115 182.278 172.294 194.555 188.452 193.073L188.49 193.503C187.559 193.588 186.656 193.627 185.784 193.627V193.629Z" fill="#561A2A"/>
<path d="M217.016 300.136H196.328L193.673 275.054H219.671L217.016 300.136Z" fill="#F4BD3A"/>
<path d="M221.013 277.811H192.002V272.023H221.013V277.811Z" fill="#F4BD3A"/>
<path d="M219.38 278.026H193.965V277.595H219.38V278.026Z" fill="#561A2A"/>
<path d="M237.494 185.915C237.494 185.915 241.564 197.601 231.044 202.051C228.091 195.287 230.837 190.07 237.494 185.915Z" fill="#A8E285"/>
<path d="M231.209 202.189L230.878 201.914C234.283 197.812 236.242 193.076 236.695 187.837L237.124 187.874C236.662 193.202 234.673 198.018 231.209 202.189Z" fill="#77A35D"/>
<path d="M234.678 196.15C232.275 193.588 233.136 190.774 233.174 190.656L233.584 190.786C233.575 190.813 232.768 193.483 234.993 195.855L234.678 196.15Z" fill="#77A35D"/>
<path d="M189.848 242.089C189.848 242.089 201.735 238.649 205.616 249.394C198.705 251.98 193.643 248.96 189.848 242.089Z" fill="#A8E285"/>
<path d="M205.469 249.553C201.555 245.932 196.932 243.724 191.722 242.992L191.782 242.566C197.079 243.313 201.783 245.557 205.761 249.238L205.468 249.554L205.469 249.553Z" fill="#77A35D"/>
<path d="M196.034 246.921C195.066 246.921 194.407 246.679 194.351 246.657L194.504 246.256C194.53 246.264 197.152 247.216 199.64 245.121L199.917 245.451C198.514 246.632 197.091 246.921 196.034 246.921Z" fill="#77A35D"/>
<path d="M279.013 237.221H255C253.279 237.221 251.872 235.813 251.872 234.092V233.344C251.872 231.623 253.279 230.214 255 230.214H279.013C280.734 230.214 282.141 231.623 282.141 233.344V234.092C282.141 235.813 280.732 237.221 279.013 237.221Z" fill="#1A79AF"/>
<path d="M282.473 238.719H251.537C249.611 238.719 248.033 237.144 248.033 235.216C248.033 233.29 249.609 231.712 251.537 231.712H282.473C284.399 231.712 285.976 233.288 285.976 235.216C285.976 237.142 284.401 238.719 282.473 238.719Z" fill="#2F97C3"/>
<path d="M281.528 292.704H252.33C251.085 292.704 250.062 291.722 250.012 290.477L247.881 235.47H285.975L283.844 290.477C283.794 291.72 282.771 292.704 281.526 292.704H281.528Z" fill="#2F97C3"/>
<path d="M255.303 265.234L258.085 270.337C258.698 271.461 259.876 272.161 261.156 272.161H264.857V266.656H258.312C257.156 266.643 255.836 266.104 255.303 265.234Z" fill="white" fill-opacity="0.8"/>
<path d="M256.236 264.925C256.909 265.475 258.017 265.793 259.752 265.689L261.514 262.672L262.591 263.3L260.948 258.148L255.613 259.235L256.757 259.902L255.695 261.719C255.077 262.778 255.287 264.15 256.236 264.925Z" fill="white" fill-opacity="0.8"/>
<path d="M278.081 262.147L276.221 258.946L271.461 261.712L274.749 267.372C275.318 268.379 275.516 269.79 275.032 270.689L278.046 265.72C278.71 264.625 278.723 263.254 278.079 262.147H278.081Z" fill="white" fill-opacity="0.8"/>
<path d="M269.699 266.605L269.701 265.359L266.073 269.369L269.692 273.436L269.694 272.113L271.799 272.116C273.025 272.119 274.106 271.248 274.299 270.037C274.436 269.179 274.156 268.061 273.194 266.614L269.701 266.607L269.699 266.605Z" fill="white" fill-opacity="0.8"/>
<path d="M267.022 252.679C267.587 251.669 268.691 250.767 269.708 250.711L263.896 250.722C262.616 250.723 261.439 251.425 260.827 252.551L259.061 255.804L263.898 258.431L267.022 252.679Z" fill="white" fill-opacity="0.8"/>
<path d="M267.184 254.405L268.994 257.392L267.929 258.038L273.24 259.053L274.832 253.846L273.7 254.534L272.609 252.733C271.975 251.684 270.669 251.213 269.534 251.679C268.729 252.009 267.921 252.83 267.186 254.403L267.184 254.405Z" fill="white" fill-opacity="0.8"/>
<path d="M287.11 238.719H246.748V235.005H287.11V238.719Z" fill="#2F97C3"/>
<path d="M285.824 238.934H248.033V238.503H285.824V238.934Z" fill="#561A2A"/>
<path d="M285.687 235.22H248.173V234.791H285.687V235.22Z" fill="#561A2A"/>
<path d="M254.145 241.557H251.925V238.505H254.145V241.557ZM252.356 241.126H253.714V238.936H252.356V241.126Z" fill="#561A2A"/>
<path d="M268.038 241.557H265.82V238.505H268.038V241.557ZM266.25 241.126H267.607V238.936H266.25V241.126Z" fill="#561A2A"/>
<path d="M281.932 241.557H279.714V238.505H281.932V241.557ZM280.145 241.126H281.501V238.936H280.145V241.126Z" fill="#561A2A"/>
<path d="M248.429 292.704C247.543 292.704 246.815 291.979 246.815 291.09V286.072C246.815 285.186 247.541 284.458 248.429 284.458C249.316 284.458 250.043 285.184 250.043 286.072V291.09C250.043 291.977 249.318 292.704 248.429 292.704Z" fill="#561A2A"/>
<path d="M285.469 292.704C284.582 292.704 283.855 291.979 283.855 291.09V286.072C283.855 285.186 284.581 284.458 285.469 284.458C286.356 284.458 287.083 285.184 287.083 286.072V291.09C287.083 291.977 286.357 292.704 285.469 292.704Z" fill="#561A2A"/>
<path d="M275.981 284.067H257.919C256.197 284.067 254.8 285.464 254.8 287.186V292.702H279.101V287.186C279.101 285.462 277.704 284.067 275.982 284.067H275.981Z" fill="#1A79AF"/>
<path d="M219.223 268.845H215.026V249.183H219.223V268.845Z" fill="#561A2A"/>
<path d="M219.223 254.139H215.026V249.096C215.026 248.49 215.517 247.999 216.124 247.999H218.138C218.736 247.999 219.221 248.484 219.221 249.082V254.139H219.223Z" fill="white" fill-opacity="0.8"/>
<path d="M234.034 268.845H229.837V249.183H234.034V268.845Z" fill="#561A2A"/>
<path d="M234.034 254.139H229.837V249.096C229.837 248.49 230.328 247.999 230.935 247.999H232.949C233.547 247.999 234.032 248.484 234.032 249.082V254.139H234.034Z" fill="white" fill-opacity="0.8"/>
<path d="M208.318 268.845V288.947C208.318 296.06 214.137 301.881 221.251 301.881H227.811C234.925 301.881 240.745 296.061 240.745 288.947V268.845H208.319H208.318Z" fill="#561A2A"/>
<path d="M233.968 295.356L233.568 295.196C234.254 293.472 234.616 291.522 234.616 289.556V271.393H235.047V289.556C235.047 291.576 234.675 293.582 233.968 295.356Z" fill="#935469"/>
<path d="M215.092 295.356C214.385 293.582 214.013 291.576 214.013 289.556V271.393H214.444V289.556C214.444 291.522 214.806 293.472 215.492 295.196L215.092 295.356Z" fill="#935469"/>
<path d="M242.756 268.845H206.305C205.707 268.845 205.222 268.36 205.222 267.762V264.145C205.222 263.547 205.707 263.062 206.305 263.062H242.756C243.354 263.062 243.841 263.547 243.841 264.145V267.762C243.841 268.36 243.355 268.845 242.756 268.845Z" fill="#561A2A"/>
<path d="M240.743 269.06H208.316V268.629H240.743V269.06Z" fill="#935469"/>
<path d="M224.529 290.448C220.869 290.448 217.892 287.47 217.892 283.809C217.892 280.149 220.869 277.17 224.529 277.17C228.19 277.17 231.168 280.149 231.168 283.809C231.168 287.47 228.19 290.448 224.529 290.448ZM224.529 277.603C221.106 277.603 218.323 280.388 218.323 283.811C218.323 287.234 221.106 290.019 224.529 290.019C227.952 290.019 230.737 287.234 230.737 283.811C230.737 280.388 227.952 277.603 224.529 277.603Z" fill="#935469"/>
</svg>
