<svg width="356" height="356" viewBox="0 0 356 356" fill="none" xmlns="http://www.w3.org/2000/svg">
<path d="M276.53 191.952L276.436 190.62C276.436 190.62 277.03 190.579 278.027 190.581C279.029 190.57 280.454 190.617 282.156 190.745C285.561 190.99 290.079 191.68 294.456 192.941C298.853 194.143 303.038 196.011 306.045 197.621C307.544 198.442 308.798 199.119 309.609 199.703C310.442 200.251 310.919 200.565 310.919 200.565L310.169 201.672C310.169 201.672 309.705 201.367 308.893 200.831C308.103 200.26 306.878 199.602 305.416 198.8C302.481 197.228 298.394 195.402 294.092 194.226C289.81 192.992 285.383 192.316 282.055 192.076C280.391 191.952 279.001 191.906 278.034 191.916C277.06 191.915 276.531 191.952 276.531 191.952H276.53Z" fill="#0F8E6E"/>
<path d="M312.275 207.687C311.267 206.902 310.653 205.817 310.428 204.666C310.217 203.506 310.315 202.386 310.989 201.41C311.639 200.467 312.758 199.86 313.964 199.852C315.175 199.828 316.544 200.3 317.727 201.234C318.871 202.213 319.523 203.534 319.701 204.73C319.874 205.941 319.537 207.072 318.7 207.886C317.864 208.698 316.703 209.058 315.545 209.021C314.374 208.991 313.245 208.519 312.275 207.689V207.687Z" fill="#FBE200"/>
<path d="M312.75 204.96C312.75 204.96 313.286 205.228 314.044 205.464C314.81 205.691 315.71 206.001 316.585 205.903C316.592 205.041 316.255 204.038 315.821 203.353C315.394 202.658 314.973 202.175 314.973 202.175C316.267 201.846 317.291 201.236 317.98 200.698C318.67 200.161 319.024 199.698 319.024 199.698C317.488 198.908 316.125 198.55 314.963 198.463C313.807 198.364 312.775 198.644 311.994 198.939C310.414 199.564 309.62 200.51 309.62 200.51C309.62 200.51 309.108 201.638 309.061 203.274C309.024 204.107 309.148 204.994 309.405 206.039C309.672 207.074 310.148 208.158 310.977 209.225C310.977 209.225 311.376 208.795 311.802 208.052C312.228 207.307 312.682 206.25 312.75 204.96Z" fill="#0F8E6E"/>
<path d="M87.4957 188.983L87.0076 190.335C87.0076 190.335 86.4593 190.137 85.4562 189.827C84.4569 189.513 83.017 189.092 81.2708 188.649C77.7823 187.748 73.064 186.774 68.2905 186.199C63.5197 185.597 58.7104 185.45 55.113 185.513C53.3169 185.603 51.8141 185.612 50.7726 185.728C49.7297 185.831 49.1327 185.89 49.1327 185.89L48.9893 184.461C48.9893 184.461 49.5978 184.4 50.6611 184.295C51.7244 184.179 53.2515 184.167 55.081 184.075C58.7398 184.01 63.626 184.161 68.4648 184.772C73.3061 185.355 78.0859 186.341 81.6269 187.256C83.3987 187.707 84.863 188.135 85.8841 188.455C86.9039 188.77 87.4945 188.982 87.4945 188.982L87.4957 188.983Z" fill="#0F8E6E"/>
<path d="M42.292 181.546C43.8691 181.286 45.3808 181.552 46.4992 182.206C47.6253 182.919 48.3594 183.987 48.4926 185.234C48.6258 186.48 48.1518 187.669 47.3255 188.575C46.5069 189.539 45.3436 190.249 43.9664 190.472C43.2708 190.563 42.611 190.616 41.9717 190.528C41.3337 190.445 40.7239 190.248 40.1705 189.957C39.0674 189.374 38.1822 188.417 37.8453 187.21C37.507 186.004 37.803 184.766 38.6088 183.728C39.0098 183.211 39.5363 182.743 40.1602 182.36C40.7841 181.98 41.5016 181.655 42.292 181.548V181.546Z" fill="#FBE200"/>
<path d="M44.3547 183.867C44.3547 183.867 43.7103 184.103 42.9493 184.536C42.1832 184.94 41.3287 185.666 40.8765 186.488C41.6374 187.032 42.6495 187.254 43.4912 187.451C44.3278 187.622 44.9735 187.646 44.9735 187.646C44.3547 188.9 44.2138 190.135 44.2163 191.06C44.2202 191.984 44.3637 192.598 44.3637 192.598C45.7345 192.013 46.7709 191.229 47.5754 190.397C48.3915 189.619 48.9629 188.765 49.3613 187.974C50.162 186.391 50.2427 185.06 50.2427 185.06C50.2427 185.06 49.9673 183.764 48.8014 182.376C48.2173 181.681 47.4037 180.965 46.2764 180.381C45.1528 179.852 43.709 179.484 41.8911 179.421C41.8911 179.421 41.9757 180.044 42.3344 180.91C42.6905 181.776 43.3183 182.886 44.3534 183.868L44.3547 183.867Z" fill="#0F8E6E"/>
<path d="M180.301 101.33C180.301 101.33 169.181 95.8258 167.235 83.7334C165.289 71.641 184.592 67.0533 192.594 87.0694C192.594 87.0694 191.143 65.3853 204.348 63.0229C217.552 60.6605 215.42 87.0425 211.413 91.2266C211.413 91.2266 216.96 87.2091 222.399 90.5451C227.838 93.8811 226.082 106.947 208.543 110.422C191.004 113.896 180.301 101.33 180.301 101.33Z" fill="#FFD100"/>
<path d="M192.419 104.685C189.337 97.8732 183.738 90.5837 183.682 90.5106L183.988 90.2749C184.045 90.3479 189.671 97.6721 192.772 104.526L192.421 104.685H192.419Z" fill="white" fill-opacity="0.8"/>
<path d="M201.98 103.576L201.601 103.511L206.19 76.8408L206.569 76.9062L201.98 103.576Z" fill="white" fill-opacity="0.8"/>
<path d="M116.845 125.211C116.845 125.211 112.264 115.163 102.816 115.166C93.3674 115.169 91.9992 125.145 97.5246 132.552C97.5246 132.552 88.4543 126.256 75.4164 126.76C62.3785 127.263 52.742 136.9 55.5758 147.67C58.4096 158.44 72.9605 160.897 77.1165 159.764C77.1165 159.764 62.7552 169.968 68.4241 179.226C74.093 188.485 91.8544 179.226 91.8544 179.226L116.844 125.211H116.845Z" fill="#BCE13D"/>
<path d="M97.7792 151.375C97.6178 151.308 81.5385 144.678 73.3188 143.861L73.3944 143.094C81.7268 143.921 97.9111 150.595 98.0738 150.663L97.7792 151.375Z" fill="white" fill-opacity="0.8"/>
<path d="M73.5855 151.329L73.1294 150.707C76.3565 148.341 82.7237 145.972 82.9927 145.873L83.2605 146.595C83.1951 146.619 76.7242 149.027 73.5855 151.329Z" fill="white" fill-opacity="0.8"/>
<path d="M90.3733 148.387C90.2823 148.139 88.1582 142.271 87.9712 139.884L88.7399 139.824C88.9192 142.107 91.0766 148.063 91.0971 148.123L90.3733 148.387Z" fill="white" fill-opacity="0.8"/>
<path d="M76.6499 174.872L76.2617 174.206C84.2661 169.535 90.6179 168.59 90.6807 168.581L90.7896 169.344C90.7281 169.353 84.5147 170.283 76.6499 174.872Z" fill="white" fill-opacity="0.8"/>
<path d="M111.083 135.717C110.83 135.443 104.855 128.923 103.225 123.622L103.962 123.395C105.54 128.528 111.589 135.129 111.651 135.194L111.085 135.717H111.083Z" fill="white" fill-opacity="0.8"/>
<path d="M70.9209 196.543L70.288 191.845C67.8295 191.5 65.1802 191.294 62.3169 191.287C54.5354 191.26 46.8961 192.673 40.5469 195.252L40.2651 198.581L38.6637 196.071C37.6029 196.56 36.5844 197.085 35.6108 197.651L36.6203 203.806L32.9422 199.369C30.052 201.452 27.8242 203.838 26.4508 206.528C25.089 209.203 24.6534 212.098 25.2824 215.164C25.8256 217.812 27.0388 220.05 28.7235 221.9C29.569 222.826 30.5235 223.65 31.5932 224.389C32.6732 225.134 33.8595 225.783 35.1329 226.34C40.242 228.578 46.8987 229.398 54.0819 228.873L55.7845 223.472L58.1546 228.443C59.7777 228.208 61.4265 227.916 63.0676 227.55L62.6103 224.315L65.2993 227.018C65.9348 226.855 66.5689 226.685 67.2005 226.502C78.5742 223.214 85.7549 217.82 90.0851 213.213C94.4165 208.61 95.9013 204.807 95.9013 204.807C95.9013 204.807 89.3676 195.581 73.3025 192.36L70.9196 196.545L70.9209 196.543Z" fill="#FFD100"/>
<path d="M37.9155 215.204L37.772 214.447L90.6641 204.481L90.8076 205.238L37.9155 215.204Z" fill="white" fill-opacity="0.8"/>
<path d="M55.6306 211.855C51.8615 211.638 44.3913 208.378 44.0762 208.24L44.3849 207.534C44.4618 207.567 52.0434 210.875 55.6741 211.087L55.6293 211.857L55.6306 211.855Z" fill="white" fill-opacity="0.8"/>
<path d="M58.6632 217.781L57.915 217.594C58.7209 214.371 62.8909 210.066 63.0677 209.886L63.6198 210.424C63.5776 210.467 59.4178 214.762 58.6619 217.781H58.6632Z" fill="white" fill-opacity="0.8"/>
<path d="M76.3707 207.926C72.0456 206.936 67.5258 202.356 67.335 202.162L67.8858 201.623C67.9307 201.669 72.4389 206.235 76.5423 207.175L76.3694 207.926H76.3707Z" fill="white" fill-opacity="0.8"/>
<path d="M283.118 242.092L282.106 246.605C284.238 247.753 286.593 248.84 289.209 249.817C296.319 252.478 303.787 253.774 310.47 253.566L311.856 250.615L312.471 253.454C313.608 253.367 314.717 253.233 315.8 253.044L316.962 247.072L318.823 252.377C322.173 251.449 325.02 250.022 327.188 248.026C329.34 246.04 330.72 243.54 331.182 240.52C331.583 237.913 331.231 235.454 330.316 233.191C329.856 232.057 329.263 230.98 328.534 229.941C327.797 228.894 326.933 227.897 325.956 226.957C322.04 223.179 316.228 220.172 309.477 218.22L306.089 222.584L305.605 217.234C304.04 216.899 302.433 216.608 300.807 216.386L300.129 219.501L298.585 216.116C297.95 216.049 297.312 215.992 296.67 215.944C285.15 215.099 276.753 217.601 271.23 220.349C265.707 223.093 263.06 226.068 263.06 226.068C263.06 226.068 265.912 236.724 279.519 245.114L283.117 242.092H283.118Z" fill="#FFD100"/>
<path d="M319.511 236.954L267.742 228.15L267.872 227.39L319.64 236.193L319.511 236.954Z" fill="white" fill-opacity="0.8"/>
<path d="M311.114 241.035C311.056 240.978 305.24 235.384 301.991 233.962L302.299 233.256C305.675 234.733 311.407 240.247 311.649 240.481L311.114 241.036V241.035Z" fill="white" fill-opacity="0.8"/>
<path d="M314.191 189.377C315.276 188.105 315.938 186.702 316.143 185.221C316.287 183.799 315.953 182.314 315.157 180.87C315.157 180.87 315.518 181.255 316.059 181.831C316.593 182.414 317.34 183.161 318.026 183.959C319.336 185.612 320.646 187.266 320.646 187.266C319.514 188.583 318.883 189.968 318.539 191.474C318.222 192.963 318.321 194.472 318.882 195.945C320.106 194.824 320.914 193.53 321.27 192.11C321.448 191.4 321.514 190.659 321.466 189.898C321.416 189.139 321.274 188.346 320.923 187.617C320.923 187.617 321.105 187.847 321.379 188.192C321.638 188.548 321.95 189.046 322.278 189.533C322.927 190.513 323.575 191.493 323.575 191.493C323.59 192.343 323.708 193.134 323.927 193.869C324.109 194.626 324.361 195.346 324.733 195.996C325.466 197.304 326.605 198.383 328.145 199.227C328.307 197.547 327.986 195.945 327.257 194.571C326.888 193.885 326.434 193.247 325.859 192.701C325.245 192.177 324.543 191.73 323.762 191.374C323.762 191.374 323.438 190.884 322.95 190.147C322.706 189.779 322.422 189.35 322.118 188.889C321.966 188.658 321.808 188.421 321.649 188.179C321.47 187.951 321.288 187.72 321.106 187.489C319.644 185.644 318.183 183.799 318.183 183.799C320.754 185.758 324.001 186.101 327.07 184.832C325.701 183.525 324.091 182.789 322.541 182.55C320.969 182.323 319.419 182.614 317.892 183.457C317.892 183.457 316.443 181.914 314.994 180.372C314.297 179.574 313.472 178.904 312.893 178.363C312.304 177.832 311.912 177.477 311.912 177.477C312.638 177.857 313.384 178.133 314.141 178.307C314.906 178.475 315.67 178.554 316.402 178.569C317.891 178.575 319.415 178.168 320.865 177.317C320.097 176.754 319.311 176.32 318.526 176.021C317.751 175.711 316.889 175.619 316.097 175.61C314.487 175.614 312.959 176.147 311.578 177.176C311.578 177.176 311.186 176.821 310.597 176.289C309.969 175.804 309.133 175.155 308.296 174.508C307.458 173.861 306.63 173.203 305.948 172.793C305.284 172.357 304.842 172.067 304.842 172.067C305.62 172.334 306.401 172.493 307.18 172.553C307.94 172.639 308.686 172.643 309.433 172.53C310.921 172.311 312.384 171.686 313.708 170.637C311.99 169.772 310.327 169.371 308.731 169.609C307.129 169.849 305.688 170.601 304.467 171.821C304.467 171.821 304.025 171.53 303.361 171.094C302.695 170.662 301.754 170.176 300.838 169.648C300.376 169.389 299.914 169.13 299.482 168.888C299.035 168.674 298.617 168.474 298.259 168.303C297.543 167.961 297.066 167.731 297.066 167.731C298.674 168.046 300.248 167.923 301.675 167.524C303.117 167.092 304.475 166.263 305.634 165.034C304.724 164.722 303.835 164.537 302.986 164.482C302.561 164.455 302.147 164.457 301.743 164.496C301.331 164.55 300.931 164.636 300.544 164.75C298.998 165.21 297.687 166.157 296.661 167.538C296.661 167.538 296.459 167.44 296.104 167.271C295.74 167.123 295.219 166.913 294.595 166.658C293.357 166.12 291.657 165.532 289.947 164.977C288.224 164.463 286.481 164.011 285.154 163.762C283.832 163.488 282.93 163.402 282.93 163.402L282.91 163.621C282.91 163.621 283.535 163.688 284.469 163.856C285.404 164.017 286.638 164.299 287.865 164.61C289.082 164.959 290.304 165.292 291.196 165.624C292.094 165.931 292.694 166.136 292.694 166.136C292.46 167.836 292.632 169.459 293.16 170.837C293.702 172.188 294.543 173.444 295.755 174.41C296.218 172.813 296.238 171.284 295.803 169.876C295.383 168.438 294.432 167.292 293.112 166.293C293.112 166.293 293.601 166.491 294.333 166.788C295.064 167.091 296.054 167.458 296.993 167.939C297.941 168.4 298.902 168.836 299.601 169.203C300.291 169.59 300.75 169.849 300.75 169.849C300.256 171.509 300.202 173.107 300.533 174.531C300.849 175.988 301.502 177.354 302.58 178.463C303.268 176.955 303.507 175.451 303.276 174.004C303.16 173.281 302.928 172.573 302.584 171.892C302.222 171.238 301.732 170.637 301.141 170.067C301.141 170.067 301.601 170.324 302.29 170.712C302.996 171.072 303.853 171.691 304.741 172.26C306.539 173.368 308.181 174.695 308.181 174.695C307.451 176.266 307.166 177.838 307.291 179.297C307.419 180.755 307.843 182.241 308.751 183.5C309.648 182.101 310.103 180.641 310.086 179.168C310.074 178.436 309.962 177.684 309.705 176.976C309.433 176.288 309.041 175.614 308.536 174.967C308.536 174.967 308.953 175.289 309.58 175.772C310.227 176.23 311.005 176.942 311.783 177.653C312.566 178.361 313.348 179.067 313.934 179.597C314.238 179.852 314.442 180.114 314.606 180.276C314.763 180.444 314.854 180.54 314.854 180.54C313.905 181.996 313.394 183.525 313.299 185.006C313.253 185.746 313.312 186.477 313.48 187.188C313.64 187.905 313.843 188.665 314.193 189.372L314.191 189.377Z" fill="#BCE13D"/>
<path d="M73.2551 93.0365C71.8382 94.4291 70.9145 96.0202 70.5187 97.7382C70.1036 99.4664 70.2804 101.279 71.0081 103.092C71.0081 103.092 70.6378 102.585 70.0831 101.822C69.5143 101.069 68.8046 100.033 68.1102 98.9847C67.4081 97.9419 66.7074 96.8991 66.1808 96.1176C65.9118 95.7307 65.7081 95.395 65.5672 95.1593C65.4237 94.9249 65.3417 94.7904 65.3417 94.7904C66.815 93.3414 67.7822 91.6849 68.2332 89.949C68.4574 89.0804 68.5522 88.1913 68.5125 87.2907C68.5009 86.3811 68.3818 85.4549 68.1115 84.5299C66.5741 85.7931 65.5082 87.2958 64.9586 88.9805C64.4449 90.646 64.4936 92.46 65.065 94.3356C65.065 94.3356 64.3347 93.1416 63.6045 91.9463C63.2445 91.3467 62.864 90.7574 62.6104 90.2975C62.3593 89.8363 62.1927 89.5288 62.1927 89.5288C62.3285 87.4803 61.9083 85.6842 61.0884 84.0969C60.3146 82.4904 59.0425 81.1311 57.2784 80.0229C56.9645 82.0164 57.2335 83.9508 58.0009 85.6406C58.8106 87.3061 60.2083 88.6718 61.9634 89.6582C61.9634 89.6582 62.0467 89.8119 62.194 90.081C62.3375 90.3513 62.5463 90.7369 62.8281 91.1802C63.3765 92.077 64.1067 93.271 64.8382 94.4662C65.548 95.6743 66.3448 96.8273 66.9316 97.6985C67.5183 98.5697 67.9091 99.1513 67.9091 99.1513C66.4588 97.8445 64.7652 97.0502 63.0344 96.68C61.3011 96.3123 59.4345 96.4315 57.5436 97.0848C58.2815 97.8932 59.0745 98.562 59.9046 99.0834C60.7412 99.5997 61.6508 99.9366 62.5604 100.147C64.3911 100.557 66.3038 100.373 68.2063 99.5958C68.2063 99.5958 68.5586 100.117 69.0877 100.9C69.6437 101.664 70.3842 102.681 71.1259 103.698C72.5813 105.753 74.1571 107.718 74.1571 107.718C73.3833 107.119 72.5659 106.645 71.7204 106.292C70.8941 105.925 70.0344 105.681 69.1517 105.563C67.3876 105.328 65.5339 105.591 63.6967 106.388C65.2866 107.854 67.0341 108.775 68.875 109.062C70.7275 109.341 72.6287 109.034 74.4837 108.14C74.4837 108.14 74.8706 108.637 75.451 109.381C76.0211 110.134 76.8256 111.102 77.6276 112.073C78.4283 113.044 79.2303 114.013 79.8311 114.742C80.4499 115.456 80.8624 115.931 80.8624 115.931C77.6571 113.7 73.9534 113.375 70.3598 115.187C72.0189 116.546 73.8278 117.339 75.6649 117.539C77.5085 117.735 79.4058 117.316 81.2109 116.335C81.2109 116.335 81.6234 116.81 82.2409 117.524C82.8545 118.241 83.6847 119.187 84.5366 120.113C85.3822 121.044 86.229 121.977 86.8632 122.675C87.5101 123.362 87.9419 123.82 87.9419 123.82C84.6455 121.726 80.9175 121.59 77.4316 123.559C80.847 126.134 84.7749 126.348 88.3083 124.209C88.3083 124.209 89.0423 124.986 90.1441 126.151C91.2676 127.295 92.7448 128.842 94.2718 130.339C95.7836 131.852 97.3286 133.33 98.497 134.429C99.6628 135.531 100.461 136.245 100.461 136.245L100.635 136.049C100.635 136.049 98.397 134.023 96.2396 131.908C95.1507 130.861 94.0925 129.784 93.2854 128.99C92.4924 128.181 91.9633 127.642 91.9633 127.642C93.0958 125.92 93.6774 124.098 93.7158 122.288C93.7709 120.46 93.2764 118.652 92.2464 116.929C89.9007 120.136 89.6368 123.865 91.5917 127.26C91.5917 127.26 89.8302 125.467 88.1174 123.624C87.2488 122.715 86.4007 121.787 85.7716 121.084C85.1388 120.386 84.716 119.919 84.716 119.919C87.104 116.582 87.3666 112.745 85.4655 109.239C82.9673 112.343 82.5612 116.039 84.3586 119.525C84.3586 119.525 83.9384 119.057 83.3093 118.355C82.6918 117.643 81.8681 116.694 81.0443 115.743C80.2116 114.8 79.4109 113.832 78.8152 113.101C78.2156 112.374 77.8159 111.889 77.8159 111.889C79.0983 110.274 79.8221 108.523 80.0374 106.72C80.2628 104.91 79.9579 103.066 79.0919 101.28C77.7711 102.764 76.9589 104.413 76.6796 106.149C76.4054 107.878 76.6309 109.722 77.4764 111.478C77.4764 111.478 77.0767 110.994 76.4772 110.266C75.8968 109.523 75.123 108.532 74.3505 107.541C72.7799 105.577 71.3245 103.526 71.3245 103.526C72.6915 101.984 73.5306 100.267 73.8355 98.4966C74.125 96.7313 73.9969 94.8583 73.2564 93.0404L73.2551 93.0365Z" fill="#90B31D"/>
<path d="M279.238 199.209C279.238 253.364 235.337 297.264 181.183 297.264C127.029 297.264 83.1274 253.363 83.1274 199.209C83.1274 145.055 127.029 101.154 181.183 101.154C235.338 101.154 279.238 145.055 279.238 199.209Z" fill="#1A6652"/>
<path d="M200.907 267.86C152.498 267.86 113.255 228.617 113.255 180.209C113.255 147.585 131.081 119.125 157.522 104.034C114.798 114.62 83.126 153.213 83.126 199.208C83.126 253.363 127.027 297.263 181.181 297.263C225.909 297.263 263.639 267.314 275.42 226.376C259.96 251.276 232.372 267.859 200.907 267.859V267.86Z" fill="#18604F"/>
<path d="M213.235 103.547C213.1 99.1208 220.497 91.9939 220.811 91.6929L221.078 91.9709C221.002 92.0439 213.49 99.2796 213.62 103.535L213.235 103.547Z" fill="white" fill-opacity="0.8"/>
<path d="M165.386 100.444L164.603 100.467C164.603 100.467 164.596 100.162 164.527 99.5972C164.466 99.0361 164.336 98.2341 164.137 97.2784C163.728 95.3708 162.947 92.8688 161.867 90.4911C160.786 88.1171 159.487 85.838 158.339 84.2482C157.81 83.4231 157.282 82.7967 156.941 82.338C156.593 81.8845 156.394 81.6257 156.394 81.6257L157.004 81.1338C157.004 81.1338 157.206 81.3977 157.561 81.8589C157.908 82.3252 158.445 82.9632 158.986 83.8036C160.154 85.423 161.48 87.7456 162.583 90.1695C163.685 92.5959 164.484 95.153 164.904 97.1131C165.108 98.0945 165.243 98.9208 165.305 99.5075C165.377 100.088 165.387 100.444 165.387 100.444H165.386Z" fill="#0F8E6E"/>
<path d="M156.372 77.2237C157.524 78.5214 157.575 80.2817 156.509 81.1323C155.44 81.9868 153.764 81.7434 152.753 80.5981C151.673 79.5117 151.555 77.8143 152.484 76.8124C153.413 75.8106 155.155 75.9912 156.372 77.2237Z" fill="#FBE200"/>
<path d="M155.901 78.8486C155.901 78.8486 155.61 78.618 155.19 78.3964C154.753 78.1901 154.19 77.9915 153.68 78.0197C153.646 78.5283 153.823 79.0779 154.008 79.4981C154.176 79.9337 154.35 80.2437 154.35 80.2437C152.85 80.4013 151.893 81.4032 151.893 81.4032C153.24 82.3537 154.565 82.4473 155.514 82.3525C156.466 82.2538 157.095 81.8951 157.095 81.8951C157.095 81.8951 157.605 81.3801 157.901 80.4282C158.201 79.4764 158.207 78.1197 157.235 76.4209C157.235 76.4209 156.207 77.31 155.901 78.8499V78.8486Z" fill="#0F8E6E"/>
<path d="M144.057 86.498C144.057 86.498 144.362 94.1642 151.511 99.673C158.659 105.182 165.384 102.931 165.384 102.931C165.384 102.931 165.848 95.8553 158.698 90.3465C151.549 84.8377 144.057 86.498 144.057 86.498Z" fill="#90B31D"/>
<path d="M165.266 103.085L146.935 88.9595L147.17 88.6533L165.502 102.779L165.266 103.085Z" fill="white" fill-opacity="0.8"/>
<path d="M149.312 94.2139L149.301 93.8283L153.635 93.6899L153.648 94.0756L149.312 94.2139Z" fill="white" fill-opacity="0.8"/>
<path d="M152.127 92.9035L151.156 88.6784L151.531 88.5913L152.502 92.8177L152.127 92.9035Z" fill="white" fill-opacity="0.8"/>
<path d="M154.029 97.8487L154.018 97.4631L158.35 97.3247L158.363 97.7103L154.029 97.8487Z" fill="white" fill-opacity="0.8"/>
<path d="M156.844 96.5383L155.872 92.3132L156.248 92.2261L157.219 96.4525L156.844 96.5383Z" fill="white" fill-opacity="0.8"/>
<path d="M158.746 101.482L158.733 101.097L163.067 100.959L163.08 101.343L158.746 101.482Z" fill="white" fill-opacity="0.8"/>
<path d="M161.56 100.173L160.589 95.9475L160.964 95.8604L161.935 100.087L161.56 100.173Z" fill="white" fill-opacity="0.8"/>
<path d="M177.138 86.3301C177.138 86.3301 171.032 86.5722 166.645 92.2655C162.257 97.9588 164.05 103.314 164.05 103.314C164.05 103.314 169.686 103.683 174.073 97.9895C178.46 92.2962 177.138 86.3301 177.138 86.3301Z" fill="#BCE13D"/>
<path d="M130.335 99.6359L134.372 93.1547C133.014 87.6267 130.821 81.3685 127.275 75.0795C124.424 70.0716 121.107 65.8875 117.53 62.3798L112.079 66.2103C112.079 66.2103 112.797 64.6576 113.563 63.1164C114.325 61.5868 115.087 60.0571 115.087 60.0571C110.821 56.2689 106.5 53.3518 102.644 51.1675C100.674 50.0836 98.9479 49.1741 97.3439 48.4694C95.7528 47.7648 94.3513 47.2665 93.2457 47C92.3053 48.2875 91.2471 50.3745 90.3273 53.175C89.8507 54.588 89.4805 56.1254 89.1602 57.8241C88.8514 59.5127 88.5709 61.3972 88.4569 63.3381C88.4569 63.3381 90.1607 64.026 91.8646 64.7153C93.557 65.3776 95.248 66.0386 95.248 66.0386C95.248 66.0386 93.5301 66.1053 91.8108 66.1706C90.0839 66.2193 88.3569 66.268 88.3569 66.268C88.2839 74.4927 90.2581 84.2561 95.6682 93.37C96.6432 95.0354 97.6796 96.5971 98.7545 98.0627C99.8255 99.5321 100.916 100.923 102.046 102.207C102.046 102.207 104.45 102.058 106.855 101.911C109.252 101.746 111.649 101.581 111.649 101.581L105.608 105.989C110.516 110.788 115.426 114.018 119.091 116.051C120.923 117.069 122.447 117.784 123.517 118.254C124.58 118.714 125.207 118.951 125.207 118.951L130.859 115.035L136.511 111.119C136.511 111.119 136.546 110.762 136.547 110.059C136.551 109.361 136.538 108.341 136.47 107.048C136.332 104.47 135.981 100.818 135.132 96.5522L130.335 99.6346V99.6359Z" fill="#90B31D"/>
<path d="M132.612 113.822C130.48 110.704 125.23 102.981 118.804 92.9924C112.361 83.0036 104.723 70.7574 97.9268 58.3818C102.91 71.6119 109.705 84.5473 115.702 94.8885C121.695 105.255 126.917 113.052 129.107 116.251L130.859 115.037L132.612 113.822Z" fill="white" fill-opacity="0.8"/>
<path d="M138.304 106.171L142.525 103.633C143.365 100.054 143.942 95.803 143.737 91.1307C143.563 87.4053 142.854 84.0052 141.816 80.9331L137.56 81.5672C137.56 81.5672 138.437 80.8869 139.314 80.2067C140.193 79.5392 141.072 78.8705 141.072 78.8705C139.705 75.432 138.032 72.479 136.411 70.1051C134.792 67.7414 133.264 65.962 132.112 65.0396C130.307 66.0106 127.281 68.7702 124.743 73.1362C124.743 73.1362 125.533 74.015 126.324 74.8926C127.114 75.7548 127.905 76.617 127.905 76.617C127.905 76.617 126.891 76.1648 125.878 75.7125C124.865 75.25 123.851 74.7876 123.851 74.7876C121.458 79.4841 119.77 85.6335 120.222 92.4259C120.377 94.8998 120.777 97.2109 121.302 99.3478L127.002 101.797L122.24 102.557C123.65 106.742 125.518 110.036 127.019 112.279C127.77 113.402 128.434 114.26 128.909 114.844C129.383 115.421 129.673 115.741 129.673 115.741L134.069 115.164L138.466 114.588C138.466 114.588 138.959 113.767 139.642 112.237C140.324 110.715 141.195 108.514 141.964 105.811L138.304 106.17V106.171Z" fill="#BCE13D"/>
<path d="M135.431 114.988C135.126 112.569 134.396 106.59 133.63 98.9673C132.855 91.3383 132.043 82.0643 131.635 72.9658C130.75 82.0387 130.876 91.4497 131.292 99.1467C131.699 106.855 132.391 112.866 132.705 115.345L134.068 115.166L135.431 114.986V114.988Z" fill="white" fill-opacity="0.8"/>
<path d="M257.821 144.34C257.821 144.34 264.315 126.296 263.503 108.802C262.691 91.3084 267.832 78.1719 276.221 79.1929C284.608 80.214 291.914 111.872 259.986 146.235L257.821 144.34Z" fill="#BCE13D"/>
<path d="M260.626 143.683L259.973 143.273C260.091 143.086 271.761 124.279 272.212 103.533L272.984 103.549C272.528 124.514 260.745 143.495 260.626 143.683Z" fill="white" fill-opacity="0.8"/>
<path d="M259.284 146.487C259.284 146.487 270.927 140.419 282.87 139.355C294.812 138.293 303.25 133.594 301.783 127.998C300.317 122.402 278.167 120.365 257.801 145.193L259.286 146.487H259.284Z" fill="#90B31D"/>
<path d="M259.889 145.022L259.396 144.43C259.514 144.332 271.328 134.568 285.541 132.32L285.661 133.081C271.664 135.295 260.007 144.925 259.889 145.022Z" fill="white" fill-opacity="0.8"/>
<path d="M311.973 143.478C308.528 143.125 304.313 142.728 299.619 142.901C294.933 143.095 289.82 143.947 284.477 146.343C279.136 148.722 276.232 152.998 274.586 156.744C272.95 160.483 272.598 163.671 272.598 163.671C272.598 163.671 275.061 165.749 279.011 167.101C282.948 168.453 288.403 169.071 294.051 166.167C299.687 163.254 303.772 159.208 306.615 155.091C309.478 150.99 311.045 146.738 311.971 143.478H311.973Z" fill="#BCE13D"/>
<path d="M272.643 163.783L272.554 163.561C272.554 163.561 274.692 162.706 277.864 161.334C281.036 159.965 285.24 158.074 289.385 156.065C293.535 154.064 297.621 151.93 300.639 150.25C302.156 149.423 303.398 148.697 304.266 148.186C305.136 147.679 305.633 147.388 305.633 147.388L305.756 147.593C305.756 147.593 305.257 147.884 304.386 148.393C303.517 148.905 302.272 149.631 300.753 150.46C297.729 152.141 293.641 154.278 289.488 156.28C285.338 158.29 281.133 160.183 277.957 161.553C274.782 162.927 272.64 163.783 272.64 163.783H272.643Z" fill="white" fill-opacity="0.8"/>
<path d="M295.501 153.1C295.49 153.047 295.381 152.416 295.557 151.292C295.729 150.165 296.203 148.574 297.318 146.6L297.522 146.721C296.434 148.656 295.969 150.222 295.8 151.326C295.713 151.876 295.697 152.307 295.703 152.601C295.708 152.893 295.737 153.057 295.737 153.057L295.501 153.102V153.1Z" fill="white" fill-opacity="0.8"/>
<path d="M289.535 156.163L289.712 156.001C289.712 156.001 289.846 156.146 290.124 156.359C290.401 156.572 290.825 156.859 291.418 157.16C292.605 157.759 294.473 158.424 297.204 158.596L297.183 158.835C294.398 158.661 292.506 157.988 291.303 157.383C290.1 156.773 289.577 156.209 289.535 156.163Z" fill="white" fill-opacity="0.8"/>
<path d="M278.446 161.25L278.63 161.096C278.63 161.096 278.779 161.268 279.085 161.525C279.393 161.783 279.864 162.133 280.53 162.505C281.863 163.251 283.967 164.089 287.086 164.426L287.056 164.665C283.884 164.322 281.759 163.483 280.41 162.727C279.063 161.974 278.493 161.304 278.446 161.249V161.25Z" fill="white" fill-opacity="0.8"/>
<path d="M283.2 159.059C283.189 158.982 283.07 158.026 283.417 156.372C283.765 154.725 284.58 152.382 286.379 149.523L286.576 149.654C284.804 152.471 284.004 154.803 283.66 156.434C283.489 157.251 283.432 157.896 283.419 158.336C283.407 158.778 283.437 159.024 283.437 159.024L283.2 159.057V159.059Z" fill="white" fill-opacity="0.8"/>
<path d="M299.646 150.977L299.815 150.806C299.815 150.806 300.137 151.117 300.85 151.436C301.564 151.754 302.678 152.089 304.29 152.132L304.281 152.374C302.614 152.324 301.472 151.986 300.736 151.656C300.001 151.325 299.672 151.003 299.646 150.977Z" fill="white" fill-opacity="0.8"/>
<path d="M181.696 302.661L180.666 303.458C180.666 303.458 180.336 303.012 179.755 302.233C179.188 301.45 178.382 300.332 177.46 298.96C175.601 296.226 173.238 292.5 171.09 288.649C168.929 284.805 167.007 280.829 165.681 277.793C165.055 276.26 164.533 274.981 164.168 274.086C163.841 273.175 163.654 272.655 163.654 272.655L164.879 272.211C164.879 272.211 165.062 272.724 165.384 273.621C165.744 274.503 166.259 275.764 166.876 277.277C168.186 280.273 170.085 284.205 172.226 288.013C174.354 291.827 176.695 295.52 178.537 298.227C179.45 299.586 180.249 300.693 180.807 301.464C181.372 302.225 181.695 302.661 181.695 302.661H181.696Z" fill="#0F8E6E"/>
<path d="M166.552 266.145C166.932 267.366 166.778 268.616 166.372 269.661C165.953 270.705 165.165 271.562 164.094 271.943C163.023 272.325 161.867 272.145 160.853 271.513C159.828 270.89 159.052 269.76 158.63 268.387C158.528 268.042 158.456 267.699 158.412 267.36C158.383 267.016 158.388 266.675 158.417 266.346C158.476 265.686 158.642 265.071 158.899 264.537C159.413 263.463 160.296 262.718 161.41 262.497C162.525 262.277 163.658 262.602 164.578 263.261C165.038 263.591 165.446 264.008 165.774 264.493C165.938 264.737 166.078 264.997 166.203 265.273C166.342 265.549 166.46 265.84 166.551 266.146L166.552 266.145Z" fill="#FBE200"/>
<path d="M164.656 268.113C164.656 268.113 164.38 267.594 163.91 266.981C163.675 266.673 163.387 266.343 163.07 266.038C162.769 265.729 162.43 265.449 162.057 265.25C161.814 265.601 161.637 266.021 161.51 266.454C161.4 266.882 161.35 267.32 161.323 267.716C161.272 268.508 161.335 269.125 161.335 269.125C160.125 268.68 158.976 268.619 158.13 268.681C157.285 268.741 156.746 268.923 156.746 268.923C158.246 271.822 160.297 272.916 161.878 273.322C163.461 273.727 164.63 273.45 164.63 273.45C164.63 273.45 165.689 272.866 166.673 271.584C167.658 270.301 168.538 268.354 168.44 265.613C168.44 265.613 167.884 265.743 167.132 266.115C166.38 266.488 165.432 267.104 164.656 268.113Z" fill="#0F8E6E"/>
<path d="M201.552 127.523C197.649 126.312 194.823 125.932 192.534 124.642C190.246 123.352 187.958 122.397 186.21 122.47C184.46 122.543 180.826 121.59 178.673 122.47C176.519 123.35 174.24 127.786 170.939 128.596C167.637 129.407 159.347 127.657 157.032 126.176C154.717 124.695 154.059 121.735 154.725 120.255C155.39 118.774 155.659 116.132 155.524 115.165C155.39 114.198 158.889 112.299 160.1 111.029C161.311 109.758 162.456 105.616 159.591 103.543C145.858 106.629 133.216 112.593 122.332 120.773C122.333 120.782 122.419 121.741 123.222 123.081C124.029 124.426 122.735 125.235 122.776 125.638C122.817 126.042 123.539 125.996 122.91 126.759C122.281 127.523 122.921 127.388 122.332 127.926C121.743 128.464 121.205 129.003 120.8 129.272C120.396 129.541 120.531 130.348 119.724 131.291C118.916 132.232 117.435 133.041 117.435 134.52C117.435 136.001 115.147 138.019 114.878 138.827C114.609 139.635 112.321 142.731 112.187 144.75C112.052 146.769 112.052 148.923 112.187 150.133C112.321 151.345 112.389 152.69 112.086 154.171C111.783 155.652 111.513 156.997 111.378 159.689C111.244 162.381 112.32 163.593 114.877 164.4C117.434 165.207 122.273 167.495 123.487 169.245C124.702 170.995 125.376 173.149 126.317 173.418C127.259 173.687 128.067 176.513 131.163 178.666C134.258 180.82 140.046 181.093 142.603 183.85C145.16 186.607 149.871 193.326 151.081 197.032C152.293 200.739 154.311 202.103 156.465 203.911C158.618 205.718 161.31 207.737 163.329 207.872C165.348 208.006 166.172 207.16 166.096 206.44C166.02 205.718 163.463 203.566 163.06 203.027C162.656 202.489 161.849 198.854 160.637 196.297C159.427 193.74 159.292 193.635 159.696 192.409C160.099 191.183 160.906 188.495 162.118 187.82C163.329 187.145 164.272 187.638 165.079 186.449C165.886 185.26 166.172 184.591 166.096 183.85C166.02 183.108 164.81 182.648 163.598 182.542C162.387 182.435 161.982 181.358 160.368 181.089C158.753 180.82 156.465 180.147 155.927 179.204C155.388 178.263 154.177 177.994 153.369 178.128C152.562 178.263 150.14 178.666 148.524 177.052C146.909 175.437 146.774 172.341 146.505 170.726C146.236 169.11 145.967 168.572 146.371 167.362C146.774 166.15 146.774 165.2 148.659 164.329C150.543 163.458 153.639 162.778 155.523 164.329C157.408 165.881 161.175 164.67 161.984 163.727C162.791 162.786 165.079 159.958 166.963 159.824C168.848 159.689 171.943 159.824 173.155 158.748C174.366 157.67 178.942 155.401 179.749 153.574C180.556 151.749 183.652 146.453 183.652 144.726C183.652 143 189.305 139.635 190.92 140.174C192.536 140.712 194.688 138.155 195.496 138.155C196.303 138.155 198.726 138.558 200.073 136.943C201.419 135.327 202.495 134.244 203.571 132.7C204.647 131.156 205.456 128.734 201.552 127.522V127.523Z" fill="#0F8E6E"/>
<path d="M193.16 254.397C193.16 254.397 188.621 251.555 184.766 249.932C180.91 248.309 178.069 242.563 177.055 241.377C176.04 240.19 175.228 229.842 177.055 228.015C178.882 226.188 180.72 223.144 182.236 220.708C183.751 218.273 184.36 216.65 183.751 215.635C183.143 214.621 183.143 208.859 183.751 207.885C184.36 206.91 187.404 205.083 188.824 205.286C190.245 205.489 194.71 204.241 196.535 205.271C198.362 206.301 205.261 209.95 208.305 210.155C211.349 210.36 214.393 212.999 216.828 211.578C219.264 210.157 222.838 211.78 224.906 214.824C226.975 217.868 229.41 220.965 232.86 222.968C236.31 224.971 236.009 226.798 237.986 227.204C239.963 227.61 244.377 228.814 246.769 230.45C249.161 232.086 248.376 234.103 246.402 236.538C244.427 238.973 241.97 242.828 240.357 245.264C238.744 247.699 239.332 251.351 240.357 252.366C241.382 253.381 240.571 257.642 239.15 258.86C237.73 260.077 234.686 262.106 233.469 264.339C232.252 266.571 232.368 268.228 229.57 269.226C226.772 270.225 220.481 273.065 216.626 273.979C212.77 274.892 209.523 275.107 206.886 277.334C204.248 279.559 203.876 285.603 201.393 286.641C198.911 287.678 191.463 292.339 188.622 292.037C185.78 291.736 185.786 291.167 187.406 289.117C189.028 287.068 193.131 283.459 195.443 280.168C197.755 276.876 194.709 273.699 196.739 272.367C198.768 271.036 199.123 267.078 199.757 265.911C200.392 264.744 200.221 258.264 193.16 254.395V254.397Z" fill="#0F8E6E"/>
<path d="M251.463 163.671C251.87 164.499 254.033 165.445 255.658 166.258C257.281 167.07 258.807 165.821 259.464 163.671C260.123 161.523 262.963 161.116 264.451 161.927C265.94 162.74 267.563 163.144 268.646 162.874C269.714 162.606 271.787 161.811 271.84 161.79C265.645 146.797 255.845 133.675 243.513 123.509C243.51 123.512 242.398 125.143 240.642 126.759C238.883 128.376 238.447 129.595 237.989 130.541C237.53 131.488 236.177 135.547 236.718 137.306C237.258 139.065 237.033 140.282 239.04 141.77C241.047 143.259 242.833 143.764 241.94 146.487C241.047 149.211 241.723 152.12 240.776 153.574C239.83 155.029 239.721 157.869 241.94 159.764C244.159 161.658 247 161.252 247.676 161.387C248.353 161.523 251.059 162.843 251.465 163.671H251.463Z" fill="#0F8E6E"/>
<path d="M184.766 186.449C184.766 186.449 184.766 188.31 183.413 189.527C182.06 190.744 180.708 192.909 182.06 193.179C183.413 193.449 186.255 193.849 186.931 194.258C187.608 194.667 191.126 196.561 192.072 195.885C193.019 195.208 193.695 193.585 194.642 193.449C195.589 193.315 195.859 190.915 196.671 190.153C197.484 189.391 200.324 186.685 200.594 184.52C200.865 182.356 201.135 179.109 200.594 178.298C200.054 177.485 196.265 176.945 195.859 175.862C195.453 174.78 193.041 173.969 191.204 175.05C189.367 176.133 188.554 178.568 188.284 180.327C188.014 182.086 184.632 183.372 184.766 186.449Z" fill="#0F8E6E"/>
<path d="M242.935 129.015L241.82 128.177C241.82 128.177 242.152 127.738 242.698 126.881C243.249 126.035 243.997 124.791 244.83 123.259C246.498 120.197 248.444 115.95 250.009 111.556C251.575 107.164 252.849 102.666 253.578 99.242C254.006 97.5445 254.219 96.0981 254.425 95.0976C254.615 94.0944 254.724 93.5205 254.724 93.5205L256.097 93.7562C256.097 93.7562 255.987 94.3366 255.795 95.3525C255.586 96.3646 255.369 97.8276 254.938 99.5482C254.2 103.016 252.908 107.573 251.32 112.029C249.73 116.486 247.754 120.801 246.053 123.925C245.202 125.488 244.436 126.762 243.866 127.638C243.308 128.514 242.932 129.014 242.932 129.014L242.935 129.015Z" fill="#0F8E6E"/>
<path d="M260.633 88.416C260.218 91.4202 257.906 93.5122 255.513 93.0933C253.112 92.6731 251.5 90.107 251.883 87.3565C252.159 84.588 254.355 82.4818 256.782 82.6522C259.21 82.8226 260.937 85.4028 260.633 88.4172V88.416Z" fill="#FBE200"/>
<path d="M257.893 89.6292C257.893 89.6292 257.867 88.9746 257.678 88.1495C257.464 87.3232 257.098 86.3304 256.481 85.6616C255.745 86.1933 255.191 87.0657 254.821 87.8024C254.426 88.5352 254.209 89.136 254.209 89.136C252.256 87.2669 249.8 87.1054 249.8 87.1054C250.073 90.1173 251.459 92.0313 252.72 93.1997C253.977 94.3668 255.2 94.7742 255.2 94.7742C255.2 94.7742 256.489 94.8395 258.102 94.1234C259.71 93.4072 261.564 91.8673 262.718 88.6684C262.718 88.6684 260.326 88.2802 257.894 89.6292H257.893Z" fill="#0F8E6E"/>
<path d="M202.671 189.371C202.671 189.371 201.074 190.817 199.956 192.409C198.838 194.002 201.873 193.204 202.671 193.363C203.469 193.523 203.629 194.676 205.225 194.258C206.821 193.842 205.385 194.321 206.821 193.842C208.259 193.363 208.738 193.523 210.174 193.363C211.612 193.202 211.328 192.16 212.109 191.244C212.889 190.329 212.925 189.529 212.109 188.731C211.293 187.933 210.813 190.328 209.216 188.731C207.62 187.135 207.672 185.763 206.209 186.448C204.745 187.134 205.125 187.376 204.457 187.974C203.788 188.572 202.669 189.371 202.669 189.371H202.671Z" fill="#0F8E6E"/>
<path d="M197.201 308.948H189.324C189.324 308.948 185.01 280.078 189.324 273.98C193.639 267.882 202.681 269.959 197.201 308.948Z" fill="#FFD100"/>
<path d="M186.767 308.948H179.736C179.736 308.948 170.513 306.072 166.096 299.041C161.679 292.011 168.23 289.029 173.024 292.037C177.818 295.047 186.767 308.948 186.767 308.948Z" fill="#FFD100"/>
<path d="M189.324 308.948H185.009C185.009 308.948 174.782 298.849 173.504 286.641C172.225 274.432 181.973 278.398 186.287 289.119C190.602 299.841 191.081 308.95 191.081 308.95H189.323L189.324 308.948Z" fill="#90B31D"/>
<path d="M199.757 308.948H206.788C206.788 308.948 216.011 306.072 220.428 299.041C224.845 292.011 218.294 289.029 213.5 292.037C208.706 295.047 199.757 308.948 199.757 308.948Z" fill="#FFD100"/>
<path d="M197.2 308.948H201.515C201.515 308.948 211.742 298.849 213.021 286.641C214.299 274.432 204.551 278.398 200.238 289.119C195.923 299.841 195.444 308.95 195.444 308.95H197.202L197.2 308.948Z" fill="#90B31D"/>
</svg>
